<?xml version="1.0" encoding="iso-8859-1"?>
<!-- Uploaded to: SVG Repo, www.svgrepo.com, Generator: SVG Repo Mixer Tools -->
<svg fill="#000000" height="32px" width="32px" version="1.1" id="Layer_1" xmlns="http://www.w3.org/2000/svg" xmlns:xlink="http://www.w3.org/1999/xlink"
	 viewBox="0 0 481.829 481.829" xml:space="preserve">
<g>
	<path d="M256.621,180.247c0-41.355-33.645-75-75-75s-75,33.645-75,75s33.645,75,75,75S256.621,221.603,256.621,180.247z
		 M181.62,225.247c-24.813,0-45-20.187-45-45s20.187-45,45-45s45,20.187,45,45S206.434,225.247,181.62,225.247z"/>
	<path d="M481.829,459.765l-71.348-71.349c12.528-16.886,19.949-37.777,19.949-60.37c0-46.31-31.166-85.477-73.624-97.632
		c4.269-15.558,6.435-31.617,6.435-47.945C363.24,82.324,281.765,0.85,181.62,0.85S0,82.324,0,182.469
		c0,41.232,13.525,80.127,39.139,112.514L181.62,474.122l66.901-84.114c18.584,24.051,47.7,39.571,80.376,39.571
		c22.594,0,43.485-7.421,60.371-19.95l71.348,71.349L481.829,459.765z M181.62,425.928L62.643,276.342
		C41.288,249.339,30,216.879,30,182.469C30,98.866,98.016,30.85,181.62,30.85s151.62,68.016,151.62,151.619
		c0,15.058-2.197,29.837-6.536,44.072c-54.976,1.171-99.34,46.253-99.34,101.505c0,11.661,1.982,22.867,5.617,33.306L181.62,425.928
		z M328.897,399.579c-39.443,0-71.533-32.09-71.533-71.533s32.09-71.533,71.533-71.533s71.532,32.09,71.532,71.533
		S368.34,399.579,328.897,399.579z"/>
</g>
</svg>