<svg xmlns="http://www.w3.org/2000/svg" viewBox="0 0 80 80" width="32" height="32"><path d="M5.4 77.5a3 3 0 0 1-2.5-1.4c-.5-.9-.6-1.9-.1-2.8L37.4 4.1c.5-1 1.5-1.6 2.6-1.6s2.1.6 2.6 1.6l34.6 69.2c.5.9.4 2-.1 2.8-.5.9-1.4 1.4-2.5 1.4H5.4Z" style="fill:#da251d"/><path d="M40 5c.3 0 .3.1.4.2L75 74.4c0 .1.1.2 0 .4s-.3.2-.4.2H5.4l-.4-.2c-.1-.2-.1-.3 0-.4L39.6 5.2c.1-.1.1-.2.4-.2m0-5c-1.9 0-3.9 1-4.8 3L.6 72.2A5.4 5.4 0 0 0 5.4 80h69.2c4 0 6.7-4.2 4.8-7.8L44.9 3c-1-2-2.9-3-4.8-3Z"/><circle cx="40" cy="65" r="5"/><path d="M36.5 52.5c0 1.9 1.6 3.5 3.5 3.5s3.5-1.6 3.5-3.5l2.6-25.4c0-3.4-2.7-6.1-6.1-6.1s-6.1 2.7-6.1 6.1l2.6 25.4Z"/></svg>