<svg xmlns="http://www.w3.org/2000/svg" id="Layer_2" viewBox="0 0 80 80" width="32" height="32"><defs><style>.cls-1{fill:#fff}</style></defs><g id="Layer_1-2"><circle cx="40" cy="40" r="39" style="fill:#da251d"/><path d="M40 2a38 38 0 1 1 0 76 38 38 0 0 1 0-76m0-2a40 40 0 1 0 0 80 40 40 0 0 0 0-80Z" class="cls-1"/><path d="M65.7 49.6v-11h-7v14a9 9 0 0 1 7-3ZM14.3 49.6v-11h7v14a9 9 0 0 0-7-3ZM28.6 27.4h-7.3l-3.5 6.5H5v4.7h20.5v-5.1l-2.3-4.7h4.7l.7-1.4Zm-4.5 6h-4.6l2.3-4.6 2.3 4.7ZM62.2 34l-3.5-6.6h-7.3l.7 1.4h4.7l-2.3 4.7v5.1H75v-4.7H62.2Zm-4-5.2 2.3 4.7H56l2.3-4.7Z" class="cls-1"/><path d="M44.8 35.7h-1.5L38.9 43l7.3.4-3 5.3 2.8 1.6c1.3-2.2 3-4 4.7-5.3l3.8-6.5-4-2.3-.5-.3-5.2-.3Zm4.5 1.5-2.3 4L44 37l5.2.3Zm-8.2 5 2.3-4 2.9 4.3-5.2-.3Z" class="cls-1"/><path d="m33.8 43.5 7.3-.4-4.4-7.5-1.5.1-5.2.3-.4.3-4 2.3 3.7 6.5c1.7 1.2 3.4 3 4.7 5.3l2.8-1.6-3-5.3Zm5.1-1.3-5.2.3 2.9-4.3 2.3 4Zm-3-5.3L33 41.3l-2.3-4 5.2-.4Z" class="cls-1"/></g></svg>