<svg xmlns="http://www.w3.org/2000/svg" id="Layer_2" viewBox="0 0 80 80" width="32" height="32"><defs><style>.cls-2{fill:#fff;stroke:#146eb4;stroke-miterlimit:10}</style></defs><g id="Layer_1-2"><rect width="78" height="78" x="1" y="1" rx="4" ry="4" style="fill:#146eb4"/><path d="M75 2a3 3 0 0 1 3 3v70a3 3 0 0 1-3 3H5a3 3 0 0 1-3-3V5a3 3 0 0 1 3-3h70m0-2H5a5 5 0 0 0-5 5v70a5 5 0 0 0 5 5h70a5 5 0 0 0 5-5V5a5 5 0 0 0-5-5Z" style="fill:#fff"/><path d="M20.9 31.9h25.5l-4-7.2H24.9l-4 7.2zM27.3 13.2h6.4v4h-6.4zM27.3 18.3h6.4v5.6h-6.4zM21 32.6v12.8c0 3 2.4 5.5 5.5 5.5h31c4 0 12-4 17.5-18.3H21Zm8.7 9.6a2 2 0 1 1 0-4 2 2 0 0 1 0 4Zm6.7 0a2 2 0 1 1 0-4 2 2 0 0 1 0 4Zm6.8 0a2 2 0 1 1 0-4 2 2 0 0 1 0 4Z" class="cls-2"/><path d="M16.9 35.8h25.5l-4-7.1H20.9l-4 7.1zM23.3 17.1h6.4v4h-6.4zM23.3 22.3h6.4v5.6h-6.4zM17 36.6v12.7c0 3.1 2.4 5.6 5.5 5.6h31c4 0 12-4 17.5-18.3H17Zm8.7 9.6a2 2 0 1 1 0-4 2 2 0 0 1 0 4Zm6.7 0a2 2 0 1 1 0-4 2 2 0 0 1 0 4Zm6.8 0a2 2 0 1 1 0-4 2 2 0 0 1 0 4Z" class="cls-2"/><path d="M13 39.8h25.4l-4-7.2H16.9L13 39.8zM19.3 21.1h6.4v4h-6.4zM19.3 26.3h6.4v5.6h-6.4zM13 40.6v12.7c0 3.1 2.4 5.6 5.5 5.6h31c4 0 12-4 17.5-18.3H13Zm8.7 9.6a2 2 0 1 1 0-4 2 2 0 0 1 0 4Zm6.8 0a2 2 0 1 1 0-4 2 2 0 0 1 0 4Zm6.7 0a2 2 0 1 1 0-4 2 2 0 0 1 0 4Z" class="cls-2"/><path d="M9 43.8h25.4l-3.9-7.2H13l-4 7.2zM15.3 25.1h6.4v4h-6.4zM15.3 30.3h6.4v5.6h-6.4zM9 44.6v12.7c0 3 2.5 5.6 5.6 5.6h31c4 0 11.9-4 17.5-18.3H9Zm8.7 9.5a2 2 0 1 1 0-4 2 2 0 0 1 0 4Zm6.8 0a2 2 0 1 1 0-4 2 2 0 0 1 0 4Zm6.8 0a2 2 0 1 1 0-4 2 2 0 0 1 0 4Z" class="cls-2"/><path d="M5 47.8h25.5l-4-7.2H9l-4 7.2zM11.4 29.1h6.4v4h-6.4zM11.4 34.2h6.4v5.6h-6.4zM5 48.5v12.8c0 3 2.5 5.6 5.6 5.6h31c4 0 12-4 17.5-18.4H5Zm8.8 9.6a2 2 0 1 1 0-4 2 2 0 0 1 0 4Zm6.7 0a2 2 0 1 1 0-4 2 2 0 0 1 0 4Zm6.8 0a2 2 0 1 1 0-4 2 2 0 0 1 0 4Z" class="cls-2"/></g></svg>