<svg xmlns="http://www.w3.org/2000/svg" viewBox="0 0 80 80" width="32" height="32">
  <path d="M5.4 77.5a2.8 2.8 0 0 1-2.5-4.2L37.3 4c.5-1 1.5-1.6 2.6-1.6S42 3 42.5 4l34.6 69.2c.4.9.4 2-.1 2.8a3 3 0 0 1-2.5 1.4H5.4Z" style="fill:#fff"/>
  <path d="M40 5c.3 0 .3.1.4.2l34.5 69.2s.1.2 0 .4c0 .2-.3.2-.3.2H5.4s-.2 0-.3-.2c-.2-.2 0-.3 0-.4L39.5 5.2 40 5m0-5c-2 0-3.9 1-4.8 3L.5 72.2A5.4 5.4 0 0 0 5.4 80h69.2c4 0 6.6-4.2 4.8-7.8L44.8 3c-1-2-2.9-3-4.8-3Z" style="fill:#da251d"/>
  <path d="M29.5 63.9v9.5h-2.1V67l-.9 6.4H25L24 67v6.3h-2v-9.5h3l.3 2 .3 2.4.6-4.4h3.2Zm5.3 0v9.5h-2.5v-9.5h2.5Zm8.2 0v9.5h-2L39.5 69v4.3h-2v-9.5h2l1.4 4.3v-4.3h2Zm2.9 0h4v1.9h-1.6v1.8H50v1.8h-1.6v2h1.8v2H46v-9.5Zm12 2.9h-2.3v-1.4h-.7l-.1.6.1.8.7.5c1.1.7 1.8 1.2 2 1.6s.5 1.1.5 2c0 .7 0 1.2-.2 1.5s-.5.6-1 .8a4 4 0 0 1-3.2 0c-.5-.3-.8-.6-1-1s-.2-.9-.2-1.6V70h2.3v1l.1.7.4.2c.2 0 .3-.1.3-.2l.2-.6c0-.6-.1-1-.3-1.1l-1.1-.9-1.2-.8c-.2-.1-.4-.5-.5-.8l-.2-1.2c0-.8 0-1.3.2-1.6s.5-.6 1-.8.8-.3 1.4-.3c.7 0 1.2.1 1.7.3s.7.5.9.8.2.8.2 1.6v.4Zm-.2-17.5c-.2-.1-.2-.2-.2-.4v-.6c0-.5.1-1-.4-1.3-.8-.5-1.3 0-1.5.3a116.6 116.6 0 0 1-7.7 2.9v-.4q.4-1.3.9-1.8l.2-.3.7-.9c1.5-2.1 1.3-3.5.5-5.6 0-.3.3-.7.5-1 .5-.9 1.2-2 1.4-3.7.2-2.4-1.3-6.5-3.8-8.5a14 14 0 0 0-8.3-3 14 14 0 0 0-8.3 2.9c-2.5 2-4 6.1-3.8 8.5.2 1.7.9 2.8 1.4 3.7l.5 1c-.8 2.1-1 3.5.5 5.6l.7 1 .2.2q.5.5.8 1.8v.4a123.4 123.4 0 0 1-7.6-2.9c-.3-.2-.7-.8-1.5-.3-.5.3-.5.8-.4 1.3v.6c0 .2 0 .3-.2.4a1 1 0 0 0-.3 1c0 .3.1.5.3.7.3.2.7.2 1.2.1h1.3c2.3.4 7.3 2 8.2 2.4l.3 1c-1.7.6-5.6 2.3-5.7 2.4-.6.2-1.2.2-1.8.1-.5 0-1-.1-1.3.2-.2.1-.4.3-.4.5 0 .4.2.6.4.8l.4.6v.5c0 .3-.2.9.5 1.2h.5c.3 0 .7-.1 1-.4l1.7-.9 5.9-2.4.3.6a6 6 0 0 0 5 2.3h.4a5.8 5.8 0 0 0 5.4-3l5.8 2.5 1.6 1c.5.2.8.4 1.2.4l.4-.1c.7-.3.6-.9.5-1.2V59c0-.2.2-.4.4-.6.2-.2.4-.4.4-.8 0-.2-.1-.4-.3-.5-.4-.3-.9-.3-1.4-.2-.6 0-1.2.1-1.7-.1l-5.8-2.5.3-1c.9-.2 6-1.9 8.2-2.3h1.4c.4 0 .8.1 1-.1.3-.2.4-.4.4-.8 0-.5-.2-.7-.3-.9Zm-27-8c.5-1.4.5-1.6.4-2.7v-1a12 12 0 0 1-.1-3.2v-.8c0-.2-.2-.4-.4-.4s-.4.2-.4.4v.7c-.1.8-.2 1.7 0 3.4v1c.2.7.2 1 0 1.4 0-.1 0-.2-.2-.3a7.7 7.7 0 0 1-1.2-3.4 10 10 0 0 1 3.5-7.8A13 13 0 0 1 40 26c3.3 0 6.3 1.4 7.8 2.6 2.3 2 3.7 5.7 3.5 7.8a7.5 7.5 0 0 1-1.3 3.4l-.2.3c-.2-.5-.2-.7 0-1.4v-1c.2-1.7.1-2.6 0-3.3v-.8c0-.2-.1-.4-.4-.4-.2 0-.4.2-.4.4v.8a18.5 18.5 0 0 1-.1 4.2c-.1 1-.1 1.3.4 2.6.8 2 1.1 3 0 4.8-.5.1-1.2.5-2.8 1.4l-.2.1c-.7.4-1.2 1.8-1.5 3h-.1c-.6 0-.7-.1-2.1.6-1 .5-1.8.4-2.6.4s-1.5 0-2.6-.4c-1.4-.7-1.5-.6-2-.6h-.2c-.3-1.2-.7-2.6-1.4-3l-.3-.1c-1.6-1-2.3-1.3-2.7-1.4-1.2-1.8-.8-2.9 0-4.8Zm14.1 11v.5l-.2.1h-.2v-.5c0-.2 0-.2.2-.2l.2.1Zm-3 .3.1-.5c0-.1 0-.3.2-.3s.3.2.3.3v.4c0 .2 0 .3-.2.3s-.3 0-.3-.2Zm.2 1.6c0 .2-.2.4-.3.4s-.4-.2-.4-.4v-.5l.4-.1c.2 0 .3 0 .3.2v.4Zm.7-1 .4.1v.7c0 .2-.2.2-.4.2s-.3 0-.3-.2v-.5c0-.2.1-.3.3-.3Zm.3-1v-.4l.2-.4.3.4v.4c0 .2-.1.2-.3.2s-.2 0-.2-.2Zm.8.6c.2 0 .3 0 .3.2v.5c0 .2-.2.2-.3.2l-.3-.1V53c0-.2.2-.3.3-.3Zm.1-1.1v-.4c0-.2.1-.3.2-.3l.2.3v.3l-.1.2-.3-.1ZM40.7 53c-.2 0-.4 0-.4-.3v-.5c0-.2.4-.4.6-.4s.3.2.3.4v.6c0 .2-.3.2-.5.2Zm.1.8v.6c0 .2 0 .3-.3.3s-.3-.1-.3-.3v-.6c0-.2.2-.3.3-.3s.3 0 .3.3Zm-1.6 0c0-.2.1-.3.3-.3s.3.1.3.3v.6c0 .2-.1.3-.3.3s-.3-.1-.3-.3v-.6Zm-.4-1v-.6c0-.2.2-.4.4-.4s.6.2.6.4v.5c0 .2-.2.3-.4.3s-.6 0-.6-.2Zm-2.9.1c0-.1.1-.2.3-.2s.4 0 .4.3v.5c0 .1-.2 0-.4 0l-.3-.1V53Zm0-1.2c-.2 0-.2 0-.2-.2v-.3c0-.2 0-.3.2-.3s.2.1.2.3v.3c0 .2-.1.2-.3.2Zm.6.4v-.4c0-.1.1-.4.3-.4s.3.2.3.4v.4c0 .1-.1.2-.3.2s-.3 0-.3-.2Zm.4 1.1c0-.1.2 0 .4 0l.3.1v.6c0 .2-.1.2-.3.2s-.4 0-.4-.2v-.7Zm.7-.8V52c0-.2.1-.3.3-.3s.2.1.2.3v.5c0 .1-.1.2-.3.2s-.3-.2-.3-.3Zm.4 1.3c0-.2.2-.2.4-.2l.3.1v.5c0 .2-.2.4-.4.4s-.3-.2-.3-.4v-.4Zm-2.6-1.6c.2 0 .3 0 .3.2v.4c0 .2-.2 0-.3 0h-.2v-.5l.2-.1Zm-10.4-2h-1.7l-.4.1V50c.2-.2.5-.5.5-1v-1.3h.1l.3.2c.1.2.4.5.7.6 2 .9 6.8 2.4 7.8 2.7l.4 1.4C31 52 27 50.7 25 50.3Zm3.3 8.6c-.8.3-1.3.6-1.7.9-.6.3-.7.4-.9.3v-.2c.1-.3.2-.6 0-1-.1-.4-.3-.6-.5-.8l-.1-.2h.7c.6 0 1.4.2 2.2-.2l5.7-2.4v.2l.4.9-5.8 2.5Zm16.2-1.6a5 5 0 0 1-4.3 2h-.1c-1.4 0-3.2-.2-4.6-2l-.7-1.3-.3-.8c-.5-1.3-1-2.9-1.4-4.6l-.2-.9c-.4-1.4-.4-1.5-1-2.2l1.2.7.3.1c.2.2.6.7 1 2.5v.3l.1.5c.1 1 .4 2.2 1 2.7 1.2 1 1.7 1.1 4.5 1.1s3.4-.2 4.5-1.1c.6-.5 1-1.7 1-2.7V51l.2-.3c.4-1.8.8-2.3 1-2.5l.2-.1 1.2-.7c-.5.7-.6.8-1 2.2l-.1 1c-.4 1.6-1 3.2-1.5 4.5l-.3.8-.7 1.3Zm2-2 5.6 2.4c.8.4 1.5.3 2.2.2h.7l-.1.2-.5.7c-.2.4-.1.8 0 1l-.1.3-.8-.3-1.7-1-5.8-2.4.4-1v-.1Zm10.7-4.9h-.5c-.4-.1-1-.2-1.6 0-2 .4-6.1 1.6-7.7 2.2l.3-1.4c1-.3 5.8-1.8 7.9-2.7l.7-.5.2-.3c.2.2.2.2.2.6v.7c0 .5.2.8.4 1v.4Z"/>
  <path d="M44 44.7c1.5 0 3.2-1.8 3-3.2 0-1.3-1.8-2.3-3.4-2.2-1.5.1-2.7.8-2.4 2.1.4 1.4 1.4 3.3 2.8 3.3Zm-5.7 3.9c.5.6 1.3.1 1.7-.1.4.3 1.2.7 1.7.1.5-.5.4-1 .2-2.3 0-.4-1.3-2.5-1.9-2.7-.6.2-1.8 2.3-1.9 2.7-.3 1.4-.3 1.8.2 2.3ZM36 44.7c1.4 0 2.4-2 2.8-3.3.3-1.3-.9-2-2.4-2-1.6-.2-3.4.8-3.5 2.1-.1 1.4 1.6 3.2 3 3.2Z"/>
</svg>
