<?xml version="1.0" encoding="UTF-8" standalone="no"?>
<svg
   viewBox="0 0 80 80"
   width="32"
   height="32"
   version="1.1"
   id="svg233"
   sodipodi:docname="warningIce.svg"
   inkscape:version="1.2.2 (732a01da63, 2022-12-09)"
   xmlns:inkscape="http://www.inkscape.org/namespaces/inkscape"
   xmlns:sodipodi="http://sodipodi.sourceforge.net/DTD/sodipodi-0.dtd"
   xmlns="http://www.w3.org/2000/svg"
   xmlns:svg="http://www.w3.org/2000/svg">
  <defs
     id="defs237" />
  <sodipodi:namedview
     id="namedview235"
     pagecolor="#ffffff"
     bordercolor="#000000"
     borderopacity="0.25"
     inkscape:showpageshadow="2"
     inkscape:pageopacity="0.0"
     inkscape:pagecheckerboard="0"
     inkscape:deskcolor="#d1d1d1"
     showgrid="false"
     inkscape:zoom="32"
     inkscape:cx="6.71875"
     inkscape:cy="17.15625"
     inkscape:window-width="2560"
     inkscape:window-height="1369"
     inkscape:window-x="-8"
     inkscape:window-y="271"
     inkscape:window-maximized="1"
     inkscape:current-layer="svg233" />
  <path
     d="M5.4 77.5a3 3 0 0 1-2.5-1.4c-.5-.9-.6-1.9-.1-2.8L37.4 4.1c.5-1 1.5-1.6 2.6-1.6s2.1.6 2.6 1.6l34.6 69.2c.5.9.4 2-.1 2.8-.5.9-1.4 1.4-2.5 1.4H5.4Z"
     style="fill:#fef100"
     id="path225" />
  <path
     d="m 40,5 c 0.3,0 0.3,0.1 0.4,0.2 L 75,74.4 c 0,0.1 0.1,0.2 0,0.4 C 74.9,75 74.7,75 74.6,75 H 5.5 L 5.1,74.8 C 5,74.6 5,74.5 5.1,74.4 L 39.7,5.2 C 39.8,5.1 39.8,5 40.1,5 m 0,-5 C 38.2,0 36.2,1 35.3,3 L 0.7,72.2 c -1.7737683,3.574905 0.8093306,7.772441 4.8,7.8 h 69.2 c 4,0 6.7,-4.2 4.8,-7.8 L 44.9,3 C 43.9,1 42,0 40.1,0 Z"
     id="path227"
     sodipodi:nodetypes="cccsscccccscccscss" />
  <path
     d="m 56.338824,60.760736 -4.985517,-2.886137 4.45187,-0.773361 c 0.437787,-0.102964 0.794476,-0.388136 1.007831,-0.758604 0.185727,-0.322536 0.262549,-0.709778 0.189003,-1.097163 -0.158035,-0.832366 -0.950017,-1.350883 -1.768908,-1.158274 l -6.397062,2.330098 -6.150829,-3.139779 6.15091,-3.139705 6.397057,2.330107 c 0.818964,0.192609 1.610968,-0.325912 1.768904,-1.15828 0.158087,-0.832367 -0.377884,-1.663159 -1.19677,-1.855771 l -4.451871,-0.773358 4.985441,-2.886135 c 0.714423,-0.413602 0.9447,-1.354854 0.51425,-2.102374 -0.430452,-0.747521 -1.358449,-1.01816 -2.07287,-0.604635 l -4.985516,2.886139 1.558019,-4.252601 c 0.243081,-0.807432 -0.206547,-1.688102 -1.004455,-1.967127 -0.797846,-0.278953 -1.64167,0.149562 -1.884756,0.956976 l -1.186055,6.719976 -5.423532,3.139707 v -6.27934 l 5.211002,-4.389941 c 0.5758,-0.614824 0.52398,-1.561839 -0.115946,-2.115181 -0.639906,-0.553487 -1.625418,-0.50346 -2.201227,0.111269 l -2.893924,3.47924 v -5.772273 c 0,-0.827205 -0.838086,-1.497741 -1.55862,-1.497741 -0.720535,0 -1.558623,0.670536 -1.558623,1.497741 v 5.772277 l -2.893927,-3.479241 c -0.575802,-0.614823 -1.561316,-0.664688 -2.201218,-0.111269 -0.639834,0.553342 -0.691658,1.50036 -0.115851,2.115184 l 5.211003,4.389937 v 6.279491 L 33.313114,47.430879 32.127056,40.71083 c -0.243171,-0.807426 -1.086979,-1.235932 -1.884826,-0.956974 -0.797994,0.278952 -1.247536,1.159693 -1.004459,1.967124 l 1.558021,4.252602 -4.985442,-2.886139 c -0.714421,-0.413597 -1.642491,-0.142892 -2.072868,0.604635 -0.430369,0.747522 -0.200179,1.688776 0.514248,2.102374 l 4.985517,2.886138 -4.451947,0.77343 c -0.818885,0.192609 -1.354702,1.023411 -1.196767,1.855777 0.157998,0.832293 0.950017,1.350811 1.768975,1.158199 l 6.396989,-2.330108 6.150832,3.139634 -6.15091,3.139707 -6.397059,-2.330108 c -0.818959,-0.192608 -1.61089,0.32591 -1.768978,1.158207 -0.157945,0.832213 0.377883,1.663163 1.196772,1.85577 l 4.451945,0.773431 -4.985518,2.886138 c -0.714273,0.413602 -0.94455,1.354851 -0.514099,2.102373 0.430452,0.74752 1.358447,1.018239 2.072868,0.604635 l 4.985519,-2.886136 -1.558019,4.252527 c -0.129931,0.431649 -0.06201,0.884042 0.151275,1.254428 0.185729,0.32254 0.48175,0.582921 0.853113,0.712699 0.797922,0.278953 1.641742,-0.149562 1.884828,-0.956979 l 1.186056,-6.720045 5.423534,-3.139711 v 6.27949 l -5.211004,4.389941 c -0.575878,0.614823 -0.523981,1.561763 0.115851,2.115181 0.639834,0.553263 1.625418,0.503466 2.201221,-0.111352 l 2.893931,-3.479243 v 5.772354 c 0,0.8272 0.697797,1.497738 1.55862,1.497738 0.860821,0 1.558622,-0.670538 1.558622,-1.497738 v -5.77236 l 2.893924,3.479241 c 0.307862,0.328678 0.732546,0.495831 1.1591,0.495831 0.371445,0 0.744305,-0.126848 1.042127,-0.384475 0.639906,-0.553417 0.691726,-1.500356 0.115945,-2.115179 L 41.853911,62.26394 v -6.279487 l 5.423534,3.139708 1.186056,6.72005 c 0.24308,0.807427 1.086906,1.235933 1.88475,0.956975 0.797771,-0.279012 1.247542,-1.159773 1.004384,-1.967123 l -1.558017,-4.252602 4.985515,2.886138 c 0.714424,0.413595 1.642494,0.142893 2.072867,-0.604636 0.430528,-0.747445 0.20033,-1.688699 -0.514171,-2.102224 z"
     id="path21953-4"
     style="fill:#000000;fill-opacity:1;stroke:#000000;stroke-width:0.847152;stroke-dasharray:none;stroke-opacity:1"
     sodipodi:nodetypes="ccccscccccccccsccccccccccccsasccccccccccccscccccccccccccscccscccccccccsssccscccccccccccsc" />
</svg>
