<?xml version="1.0" encoding="UTF-8" standalone="no"?>
<!-- Created with Inkscape (http://www.inkscape.org/) -->

<svg
   version="1.1"
   id="svg21838"
   width="32"
   height="32"
   viewBox="0 0 48 48"
   xml:space="preserve"
   xmlns="http://www.w3.org/2000/svg"
   xmlns:svg="http://www.w3.org/2000/svg"><defs
     id="defs21842" /><g
     id="g21844"><path
       style="display:inline;fill:#dbeff7;fill-opacity:1;stroke:#000000;stroke-width:0.75;stroke-opacity:1"
       d="M 9.8343587,29.945332 H 35.741393 C 52.254196,24.735225 43.655581,2.4683537 28.580573,9.6272312 23.120557,-1.690745 12.187274,7.4071552 12.51239,12.712789 -1.6343843,15.498783 2.3160453,28.219454 9.8343587,29.945332 Z"
       id="path13029" /><path
       d="m 39.871751,34.941768 -2.942514,-1.703435 2.627551,-0.456445 c 0.258387,-0.06077 0.46891,-0.229084 0.594832,-0.447738 0.109613,-0.190364 0.154964,-0.41892 0.111559,-0.647561 -0.09326,-0.491273 -0.560711,-0.797307 -1.044029,-0.683627 l -3.775627,1.375255 -3.630297,-1.853139 3.630344,-1.853094 3.775624,1.375259 c 0.483362,0.113681 0.950814,-0.192357 1.044029,-0.683631 0.0933,-0.491274 -0.223031,-0.981618 -0.706348,-1.095299 l -2.627551,-0.456446 2.942471,-1.703434 c 0.421661,-0.244112 0.557573,-0.799651 0.303515,-1.240847 -0.254057,-0.441197 -0.801772,-0.600931 -1.223433,-0.356863 l -2.942515,1.703435 0.919564,-2.509939 c 0.143469,-0.476556 -0.121902,-0.996338 -0.592842,-1.161022 -0.470901,-0.164644 -0.968935,0.08827 -1.112407,0.56482 l -0.700025,3.966213 -3.201036,1.853095 v -3.706146 l 3.075598,-2.590999 c 0.339846,-0.362876 0.30926,-0.921816 -0.06842,-1.248406 -0.37768,-0.326674 -0.959342,-0.297149 -1.299191,0.06568 l -1.70803,2.053492 v -3.406869 c 0,-0.488227 -0.41185,-0.883985 -0.919918,-0.883985 -0.508069,0 -0.919918,0.395758 -0.919918,0.883985 v 3.406871 l -1.708034,-2.053494 c -0.339845,-0.362877 -0.921507,-0.39231 -1.299187,-0.06568 -0.377638,0.32659 -0.408224,0.885531 -0.06838,1.248407 l 3.0756,2.590998 v 3.706234 l -3.201037,-1.853096 -0.700026,-3.966256 c -0.143515,-0.476554 -0.64155,-0.729464 -1.112449,-0.56482 -0.470985,0.16464 -0.736312,0.684466 -0.592844,1.161022 l 0.919564,2.509939 -2.94247,-1.703435 c -0.421661,-0.244112 -0.96942,-0.08433 -1.223434,0.356863 -0.25401,0.441196 -0.118145,0.996736 0.303516,1.240847 l 2.942514,1.703434 -2.627594,0.45649 c -0.483317,0.113681 -0.799564,0.604028 -0.706348,1.095302 0.09326,0.49123 0.560711,0.797265 1.044072,0.683584 l 3.775584,-1.375259 3.630298,1.853051 -3.630345,1.853095 -3.775624,-1.375259 c -0.483361,-0.113681 -0.950769,0.192357 -1.044073,0.683587 -0.09322,0.491183 0.223031,0.981619 0.706349,1.095299 l 2.627594,0.456489 -2.942515,1.703435 c -0.421573,0.244112 -0.557485,0.799651 -0.303428,1.240847 0.254058,0.441197 0.801773,0.600978 1.223434,0.356863 l 2.942516,-1.703433 -0.919564,2.509895 c -0.07669,0.254764 -0.0366,0.521772 0.08928,0.740378 0.109613,0.190368 0.284334,0.344048 0.503516,0.420644 0.470944,0.164644 0.968978,-0.08827 1.11245,-0.56482 l 0.700025,-3.966257 3.201037,-1.853095 v 3.706233 l -3.075599,2.590999 c -0.33989,0.362876 -0.30926,0.921773 0.06838,1.248407 0.377638,0.326542 0.959343,0.297152 1.299188,-0.06572 l 1.708035,-2.053493 v 3.406916 c 0,0.488224 0.411849,0.883982 0.919917,0.883982 0.508068,0 0.919918,-0.395758 0.919918,-0.883982 v -3.406921 l 1.70803,2.053493 c 0.181704,0.19399 0.432359,0.292644 0.684116,0.292644 0.21923,0 0.439298,-0.07487 0.615076,-0.226921 0.377681,-0.326633 0.408267,-0.88553 0.06842,-1.248406 l -3.075643,-2.591 v -3.706233 l 3.201037,1.853095 0.700025,3.966257 c 0.143472,0.476554 0.641506,0.729464 1.112403,0.56482 0.470856,-0.164684 0.736315,-0.684514 0.592799,-1.161022 l -0.919561,-2.509939 2.942515,1.703435 c 0.421661,0.244111 0.969419,0.08433 1.223433,-0.356863 0.254102,-0.441152 0.118233,-0.996692 -0.303472,-1.24076 z"
       id="path21953"
       style="stroke-width:0.5;fill:#ffffff;fill-opacity:1;stroke:#000000;stroke-opacity:1;stroke-dasharray:none" /><path
       d="m 19.275168,40.466789 -1.659439,-0.960657 1.481814,-0.257414 c 0.145718,-0.03427 0.264443,-0.129192 0.335458,-0.252503 0.06182,-0.107357 0.08739,-0.236251 0.06291,-0.365193 -0.0526,-0.277055 -0.316215,-0.449644 -0.588784,-0.385534 l -2.129275,0.775578 -2.047316,-1.045082 2.047343,-1.045057 2.129273,0.775581 c 0.272594,0.06411 0.536214,-0.108481 0.588783,-0.385536 0.05262,-0.277055 -0.125779,-0.553586 -0.398347,-0.617697 l -1.481814,-0.257414 1.659414,-0.960656 c 0.237797,-0.137668 0.314445,-0.450966 0.171169,-0.699779 -0.143277,-0.248814 -0.452162,-0.338897 -0.689959,-0.201254 l -1.659439,0.960657 0.51859,-1.415487 c 0.08091,-0.268755 -0.06875,-0.561888 -0.334335,-0.654762 -0.265565,-0.09285 -0.546433,0.04978 -0.627345,0.318532 l -0.394781,2.236757 -1.805233,1.045058 v -2.090091 l 1.734492,-1.461201 c 0.191657,-0.204645 0.174408,-0.519861 -0.03859,-0.704042 -0.212994,-0.184229 -0.541024,-0.167578 -0.732683,0.03704 l -0.963248,1.158072 v -1.921313 c 0,-0.275337 -0.232264,-0.498526 -0.51879,-0.498526 -0.286527,0 -0.518791,0.223189 -0.518791,0.498526 v 1.921314 l -0.96325,-1.158074 c -0.191657,-0.204645 -0.519687,-0.221243 -0.73268,-0.03704 -0.21297,0.184181 -0.230219,0.499398 -0.03856,0.704043 l 1.734493,1.4612 v 2.090141 l -1.805234,-1.045059 -0.394782,-2.236781 c -0.08094,-0.268754 -0.361803,-0.411383 -0.627368,-0.318531 -0.265614,0.09285 -0.415245,0.386006 -0.334336,0.654761 l 0.51859,1.415487 -1.6594138,-0.960657 c -0.237797,-0.137667 -0.546707,-0.04756 -0.689959,0.201254 -0.143249,0.248814 -0.06663,0.562112 0.171169,0.699779 l 1.6594388,0.960657 -1.4818388,0.257438 c -0.272568,0.06411 -0.450916,0.340644 -0.398347,0.617699 0.05259,0.27703 0.316215,0.44962 0.588807,0.385509 l 2.1292508,-0.775581 2.047317,1.045033 -2.047343,1.045058 -2.1292738,-0.775581 c -0.272592,-0.06411 -0.536188,0.10848 -0.588808,0.385511 -0.05257,0.277004 0.125779,0.553587 0.398348,0.617697 l 1.4818388,0.257438 -1.6594398,0.960657 c -0.237747,0.137668 -0.314395,0.450965 -0.171119,0.699779 0.143277,0.248814 0.452162,0.338923 0.689959,0.201254 l 1.6594398,-0.960656 -0.51859,1.415462 c -0.04325,0.143675 -0.02064,0.294255 0.05035,0.417539 0.06182,0.107358 0.160351,0.194026 0.28396,0.237223 0.26559,0.09285 0.546457,-0.04978 0.627369,-0.318532 l 0.394781,-2.236781 1.805234,-1.045059 v 2.090141 l -1.734493,1.461201 c -0.191682,0.204645 -0.174408,0.519836 0.03856,0.704042 0.21297,0.184155 0.541024,0.16758 0.732681,-0.03706 l 0.963251,-1.158073 v 1.92134 c 0,0.275335 0.232263,0.498525 0.51879,0.498525 0.286526,0 0.51879,-0.22319 0.51879,-0.498525 v -1.921342 l 0.963248,1.158073 c 0.102473,0.109401 0.24383,0.165038 0.385809,0.165038 0.123636,0 0.247744,-0.04222 0.346874,-0.127973 0.212994,-0.184206 0.230243,-0.499397 0.03859,-0.704042 L 14.45383,40.967136 v -2.09014 l 1.805234,1.045058 0.394781,2.236782 c 0.08091,0.268754 0.361779,0.411383 0.627343,0.318531 0.26554,-0.09287 0.415247,-0.386033 0.334311,-0.654761 l -0.518589,-1.415487 1.659439,0.960657 c 0.237797,0.137666 0.546707,0.04756 0.689958,-0.201254 0.143302,-0.248789 0.06668,-0.562087 -0.171143,-0.69973 z"
       id="path21953-4"
       style="fill:#ffffff;fill-opacity:1;stroke:#000000;stroke-width:0.281976;stroke-dasharray:none;stroke-opacity:1" /></g></svg>
