<?xml version="1.0" encoding="UTF-8" standalone="no"?>
<!-- Created with Inkscape (http://www.inkscape.org/) -->

<svg
   version="1.1"
   id="svg12965"
   width="32"
   height="32"
   viewBox="0 0 48 48"
   xmlns="http://www.w3.org/2000/svg"
   xmlns:svg="http://www.w3.org/2000/svg">
  <defs
     id="defs12969" />
  <g
     id="g12971">
    <path
       style="display:inline;fill:#dbeff7;fill-opacity:1;stroke:#000000;stroke-width:0.75;stroke-opacity:1"
       d="M 10.013505,30.389824 H 35.920539 C 52.433342,25.179717 43.834727,2.9128454 28.759719,10.071723 23.299703,-1.2462533 12.36642,7.8516466 12.691536,13.157281 -1.4552376,15.943275 2.495192,28.663946 10.013505,30.389824 Z"
       id="path13029" />
    <path
       style="display:inline;fill:#e8bc81;fill-opacity:1;stroke:#000000;stroke-width:0.75;stroke-opacity:1"
       d="m 21.948206,22.646825 h 6.753295 l -2.09585,5.763587 h 3.784173 l -10.071723,15.544221 3.260211,-10.77034 h -3.493083 z"
       id="path13910" />
    <path
       style="fill:#648489;fill-opacity:0.99607843;stroke:#000000;stroke-width:0.75;stroke-opacity:1"
       d="m 10.129941,34.581524 -4.3975314,7.290777 c 0.1738902,1.304091 0.7646493,2.12718 2.3598999,1.79124 l 4.3663545,-7.516587 c -0.05737,-1.434227 -0.844272,-1.942502 -2.328723,-1.56543 z"
       id="path16381" />
    <path
       style="fill:#648489;fill-opacity:0.996078;stroke:#000000;stroke-width:0.75;stroke-opacity:1"
       d="m 15.859327,34.591376 -4.397531,7.290777 c 0.17389,1.304091 0.764649,2.12718 2.3599,1.79124 l 4.366354,-7.516587 c -0.05737,-1.434227 -0.844272,-1.942502 -2.328723,-1.56543 z"
       id="path16381-4" />
    <path
       style="fill:#648489;fill-opacity:0.996078;stroke:#000000;stroke-width:0.75;stroke-opacity:1"
       d="m 31.584885,34.509043 -4.397531,7.290777 c 0.17389,1.304091 0.764649,2.12718 2.359899,1.79124 l 4.366355,-7.516587 c -0.05737,-1.434227 -0.844272,-1.942502 -2.328723,-1.56543 z"
       id="path16381-2" />
    <path
       style="fill:#648489;fill-opacity:0.996078;stroke:#000000;stroke-width:0.75;stroke-opacity:1"
       d="m 38.089173,34.509043 -4.397531,7.290778 c 0.17389,1.304091 0.764649,2.127179 2.359899,1.79124 l 4.366355,-7.516587 c -0.05737,-1.434228 -0.844272,-1.942503 -2.328723,-1.565431 z"
       id="path16381-7" />
  </g>
</svg>
