<svg xmlns="http://www.w3.org/2000/svg" id="Layer_2" viewBox="0 0 80 80" width="32" height="32"><defs><style>.cls-1{fill:#fff}</style></defs><g id="Layer_1-2"><rect width="78" height="78" x="1" y="1" rx="4" ry="4" style="fill:#146eb4"/><path d="M75 2a3 3 0 0 1 3 3v70a3 3 0 0 1-3 3H5a3 3 0 0 1-3-3V5a3 3 0 0 1 3-3h70m0-2H5a5 5 0 0 0-5 5v70a5 5 0 0 0 5 5h70a5 5 0 0 0 5-5V5a5 5 0 0 0-5-5Z" class="cls-1"/><path d="M37.5 60h5v20h-5zM37.5 0h5v20h-5z" class="cls-1"/><path d="M55.5 0v16.2L40 34.6 24.5 16.2V0h-9v80h9V63.8L40 45.4l15.5 18.4V80h9V0h-9Zm-31 53.1V27l11 13.1-11 13.1Zm31 0L44.5 40l11-13.1V53Z" class="cls-1"/></g></svg>