<svg xmlns="http://www.w3.org/2000/svg" viewBox="0 0 80 80" width="32" height="32"><path d="M5.4 77.5c-1 0-2-.5-2.5-1.4-.5-.9-.5-1.9 0-2.8L37.3 4c.5-1 1.5-1.6 2.6-1.6s2.1.6 2.6 1.6l34.6 69.2c.4.9.4 2-.1 2.8-.6.9-1.5 1.4-2.5 1.4H5.4Z" style="fill:#fff"/><path d="M40 5c.3 0 .3.1.4.2l34.5 69.2s.1.2 0 .4c0 .2-.3.2-.3.2H5.4s-.2 0-.3-.2c-.2-.2 0-.3 0-.4L39.5 5.2 40 5m0-5c-2 0-3.9 1-4.8 3L.5 72.2A5.4 5.4 0 0 0 5.4 80h69.2c4 0 6.6-4.2 4.8-7.8L44.8 3c-1-2-2.9-3-4.8-3Z" style="fill:#da251d"/><path d="M44.7 34.3V22.5h-9.5v11.8l-.1.4L28.2 49a3 3 0 0 0-.3 1.3v19.3h8V50.1c0-.4.1-.7.3-1l2.4-4.2c.6-1 2-1 2.6 0l2.5 4.1.2 1v19.5h8V50.2a3 3 0 0 0-.3-1.3l-6.8-14.2a1 1 0 0 1-.1-.4Z"/></svg>