<svg xmlns="http://www.w3.org/2000/svg" id="Layer_2" viewBox="0 0 80 80" width="32" height="32"><defs><style>.cls-1{fill:#fff}</style></defs><g id="Layer_1-2"><rect width="78" height="78" x="1" y="1" rx="4" ry="4" style="fill:#146eb4"/><path d="M75 2a3 3 0 0 1 3 3v70a3 3 0 0 1-3 3H5a3 3 0 0 1-3-3V5a3 3 0 0 1 3-3h70m0-2H5a5 5 0 0 0-5 5v70a5 5 0 0 0 5 5h70a5 5 0 0 0 5-5V5a5 5 0 0 0-5-5Z" class="cls-1"/><path d="M37.5 22.5V10H35l-4.2 12.5h6.7zM27.5 32.5 15 70h22.5V32.5h-10zM49.2 22.5 45 10h-2.5v12.5h6.7zM52.5 32.5h-10V70H65L52.5 32.5z" class="cls-1"/><path d="M10 25v5h5v5h8v-5h34v5h8v-5h5v-5H10z" class="cls-1"/><path d="M78 5a3 3 0 0 0-3-3h-.5L2 74.5v.5a3 3 0 0 0 3 3h.5L78 5.5V5Z" style="fill:#da251d"/></g></svg>