<svg xmlns="http://www.w3.org/2000/svg" id="Layer_2" viewBox="0 0 80 80" width="32" height="32"><defs><style>.cls-1{fill:#fff}</style></defs><g id="Layer_1-2"><rect width="78" height="78" x="1" y="1" rx="4" ry="4" style="fill:#365341"/><path d="M75 2a3 3 0 0 1 3 3v70a3 3 0 0 1-3 3H5a3 3 0 0 1-3-3V5a3 3 0 0 1 3-3h70m0-2H5a5 5 0 0 0-5 5v70a5 5 0 0 0 5 5h70a5 5 0 0 0 5-5V5a5 5 0 0 0-5-5Z" class="cls-1"/><path d="M66.2 44c-14.3 24.5-7 21-34.5 16.9-5.3-1.5-8.8-19.6-12.1-25.2-1.2-5.1 10.6-14.3 13.6-19.4 1-1.2 2.2-1.6 3.8-1.1 26.3 7 19.2 3.4 29.2 28.9Zm-25-17.7c-1.6-.1-2.4.3-3 1.2-1.5 3.5-6 6.6-5.7 10.5 2.2 3.7 2.2 10.1 6.4 12 3.7.1 8.9 3.8 11.8.7 7-9.5 5.8-9.8 1.3-20.2-1.6-3.4-7.7-2.9-10.8-4.2Z" class="cls-1"/><path d="M51.8 64.5c-9.2 1.5-17.7-1.3-26.7-2.2-3.9.7-9.4-20.6-11-22.7-1.8-4.7 14.8-20.5 18.7-24l.3.1-13 15.6c-1.3 1.6-1.6 3.2-.8 5.2 11.7 26.4 2.4 23.9 32.5 28Z" class="cls-1"/><path d="M43.5 50.7c5.6-6.2 3-8.8.4-15.4-1.3-3.1-5.3-2.4-8.2-3.5 4-7.8 7.4-4.4 14.2-2.8 3.3 2.5 3.7 7.8 5.5 11.4.4 3.8-3.5 6.8-5 10.1-1.8 2.2-4.5.3-6.9.2Z" class="cls-1"/></g></svg>