<svg xmlns="http://www.w3.org/2000/svg" id="Layer_2" viewBox="0 0 80 80" width="32" height="32"><defs><style>.cls-1{fill:#fff}</style></defs><g id="Layer_1-2"><rect width="78" height="78" x="1" y="1" rx="4" ry="4" style="fill:#146eb4"/><path d="M75 2a3 3 0 0 1 3 3v70a3 3 0 0 1-3 3H5a3 3 0 0 1-3-3V5a3 3 0 0 1 3-3h70m0-2H5a5 5 0 0 0-5 5v70a5 5 0 0 0 5 5h70a5 5 0 0 0 5-5V5a5 5 0 0 0-5-5Z" class="cls-1"/><path d="M7 20.6v8.6l8.7-7.3V70h8.6V21.9l8.7 7.3v-8.6l-13-11-13 11zM73 59v-8.6l-8.7 7.2v-48h-8.6v48L47 50.4V59l13 11 13-11zM37.5 0h5v80h-5z" class="cls-1"/><path d="M78 5a3 3 0 0 0-3-3h-.5L2 74.5v.5a3 3 0 0 0 3 3h.5L78 5.5V5Z" style="fill:#da251d"/></g></svg>