<svg xmlns="http://www.w3.org/2000/svg" version="1.1" xmlns:xlink="http://www.w3.org/1999/xlink" xmlns:svgjs="http://svgjs.com/svgjs" width="160" height="160"><svg xmlns="http://www.w3.org/2000/svg" viewBox="0 0 160 160"><path d="M80 160A80 80 0 0 1 80 0" style="fill:#577a9a"></path><path d="M80 0a80 80 0 0 1 0 160" style="fill:#245582"></path><path d="M100.4 87.5h28.1l4-15h-28l4-15h30l4-15h-45L85 89.2 72.5 42.5h-15L45 89.2 32.5 42.5h-15l20 74.6-.1.4h15.2l-.1-.4L65 70.5l12.5 46.6-.1.4H122.5l4-15h-30" style="fill:#dbdad6"></path><path d="M80 5a75 75 0 1 1-.2 150.2A75 75 0 0 1 80 5m0-5a80 80 0 1 0 0 160A80 80 0 0 0 80 0Z" style="fill:#243b51"></path></svg><style>@media (prefers-color-scheme: light) { :root { filter: none; } }
</style></svg>