<svg xmlns="http://www.w3.org/2000/svg" id="Layer_2" viewBox="0 0 80 80" width="32" height="32"><defs><style>.cls-1{fill:#fff}.cls-3{fill:none;stroke:#fff;stroke-linecap:round;stroke-linejoin:round;stroke-width:3px}</style></defs><g id="Layer_1-2"><circle cx="40" cy="40" r="39" style="fill:#146eb4"/><path d="M40 2a38 38 0 1 1 0 76 38 38 0 0 1 0-76m0-2a40 40 0 1 0 0 80 40 40 0 0 0 0-80Z" class="cls-1"/><path d="M31.4 70 40 44.3H22.9L48.6 10 40 35.7h17.1L31.4 70z" class="cls-1"/><path d="M27.1 65a28.2 28.2 0 0 1 13-53.1h0M52.9 15a28.2 28.2 0 0 1-13 53.1h0" class="cls-3"/></g></svg>