<svg height="48" viewBox="0 0 24 24" width="48" xmlns="http://www.w3.org/2000/svg">
    <path d="m5 6c-1.1 0-2 .9-2 2s.9 2 2 2 2-.89 2-2-.89-2-2-2m7-2c-1.1 0-2 .89-2 2s.9 2 2 2 2-.89 2-2-.89-2-2-2m7-2c-1.1 0-2 .9-2 2s.9 2 2 2 2-.89 2-2-.89-2-2-2m-15.5 9c-.83 0-1.5.67-1.5 1.5v4.5h1v5h4v-5h1v-4.5c0-.83-.67-1.5-1.5-1.5zm7-2c-.83 0-1.5.67-1.5 1.5v4.5h1v5h4v-5h1v-4.5c0-.83-.67-1.5-1.5-1.5zm7-2c-.83 0-1.5.67-1.5 1.5v4.5h1v5h4v-5h1v-4.5c0-.83-.67-1.5-1.5-1.5z" fill="white" stroke="black" stroke-width="1"/>
</svg>