<svg xmlns="http://www.w3.org/2000/svg" id="Layer_2" viewBox="0 0 80 80" width="32" height="32"><defs><style>.cls-1{fill:#fff}</style></defs><g id="Layer_1-2"><rect width="78" height="78" x="1" y="1" rx="4" ry="4" style="fill:#146eb4"/><path d="M75 2a3 3 0 0 1 3 3v70a3 3 0 0 1-3 3H5a3 3 0 0 1-3-3V5a3 3 0 0 1 3-3h70m0-2H5a5 5 0 0 0-5 5v70a5 5 0 0 0 5 5h70a5 5 0 0 0 5-5V5a5 5 0 0 0-5-5Z" class="cls-1"/><path d="M20 10h10v60H20zM50 10H30v8.8h15a5 5 0 0 1 5 5v7.4a5 5 0 0 1-5 5H30V45h20a10 10 0 0 0 10-10V20a10 10 0 0 0-10-10Z" class="cls-1"/></g></svg>