<svg xmlns="http://www.w3.org/2000/svg" id="Layer_2" viewBox="0 0 80 80" width="32" height="32"><defs><style>.cls-1{fill:#fff}</style></defs><g id="Layer_1-2"><rect width="78" height="78" x="1" y="1" rx="4" ry="4" style="fill:#7a4501"/><path d="M75 2a3 3 0 0 1 3 3v70a3 3 0 0 1-3 3H5a3 3 0 0 1-3-3V5a3 3 0 0 1 3-3h70m0-2H5a5 5 0 0 0-5 5v70a5 5 0 0 0 5 5h70a5 5 0 0 0 5-5V5a5 5 0 0 0-5-5Z" class="cls-1"/><path d="M58 16.6c-1.4-1.5-3.4-2-4.3-1.2L12.4 42.8c1-.5 2.7 0 4 1.4 1.4 1.6 1.8 3.5.8 4.4l41.3-27.2.4-.3c1-.9.6-2.9-.9-4.4Z" class="cls-1"/><ellipse cx="14.3" cy="46.1" class="cls-1" rx="2.2" ry="3.5" transform="rotate(-42.9 14.3 46)"/><path d="M72 25c-1.5-1.6-3.4-2.2-4.4-1.2L26.4 51c1-.5 2.6 0 3.9 1.4C31.7 54 32 56 31 57l41.3-27.3.4-.3c1-.9.6-2.9-.9-4.4Z" class="cls-1"/><ellipse cx="28.2" cy="54.4" class="cls-1" rx="2.2" ry="3.5" transform="rotate(-42.9 28.2 54.4)"/><path d="m25.5 55.9-.1-.2c-1.4-1.5-1.8-3.5-.8-4.4l.4-.3 28.3-18.7c-1.4-1.4-3.3-2-4.2-1L7.9 58.5c1-.5 2.6.1 3.9 1.4 1.4 1.6 1.8 3.6.8 4.5l13-8.5Z" class="cls-1"/><ellipse cx="9.6" cy="62" class="cls-1" rx="2.2" ry="3.5" transform="rotate(-42.9 9.6 62)"/></g></svg>