<svg xmlns="http://www.w3.org/2000/svg" id="Layer_2" viewBox="0 0 80 80" width="32" height="32"><defs><style>.cls-1{fill:#fff}.cls-2{fill:#7a4501}</style></defs><g id="Layer_1-2"><path d="M5 79a4 4 0 0 1-4-4V5a4 4 0 0 1 4-4h70a4 4 0 0 1 4 4v70a4 4 0 0 1-4 4H5Z" class="cls-2"/><path d="M75 2a3 3 0 0 1 3 3v70a3 3 0 0 1-3 3H5a3 3 0 0 1-3-3V5a3 3 0 0 1 3-3h70m0-2H5a5 5 0 0 0-5 5v70a5 5 0 0 0 5 5h70a5 5 0 0 0 5-5V5a5 5 0 0 0-5-5Z" class="cls-1"/><path d="M54.7 38.6 40 53.3s-6.4-3.6-10-5c-5-3-1.4-4.1-8.4-6.6L15 48.1s7.5 4 10 5 1.4 3.6 5 5c3.6 1.5 10 5 10 5l25-25s-5.7.4-10.3.4Z" class="cls-1"/><path d="M40 51.8s-6.4-3.6-10-5-2.5-4-5-5-10-5-10-5l20-20c20.5 7.6 3 11.7 30 10l-25 25Z" class="cls-1"/><path d="M14.5 16.3h4.1v18.9h-4.1z" class="cls-1"/><path d="M18 16.8v17.9h-3v-18h3m1-1h-5v20h5v-20Z" class="cls-2"/></g></svg>