<svg xmlns="http://www.w3.org/2000/svg" id="Layer_2" viewBox="0 0 80 80" width="32" height="32"><defs><style>.cls-1{fill:#fff}</style></defs><g id="Layer_1-2"><rect width="78" height="78" x="1" y="1" rx="4" ry="4" style="fill:#7a4501"/><path d="M75 2a3 3 0 0 1 3 3v70a3 3 0 0 1-3 3H5a3 3 0 0 1-3-3V5a3 3 0 0 1 3-3h70m0-2H5a5 5 0 0 0-5 5v70a5 5 0 0 0 5 5h70a5 5 0 0 0 5-5V5a5 5 0 0 0-5-5Z" class="cls-1"/><path d="M63.5 10H36.8c-3.4 0-2.8 4.2-2.8 6.5-2.2 0-6.7-.7-6.6 2.7v8.3h.8c-4.2 17.2-25.5 37.3-6.7 41 4.4 0 7.9-3.4 7.9-7.8V27.5H34v35.1c0 1.5 1.2 2.8 2.8 2.8h-.5V70H64v-4.6h-.5c1.6 0 2.8-1.3 2.8-2.8V12.8c0-1.6-1.2-2.8-2.8-2.8ZM26 60.9a4.6 4.6 0 0 1-9.3 0c0-2.6 9.7-20.9 9.7-20.9L26 60.9Zm31.7-13c-.4 8-7.7 8-13.5 7.7V39c2.7.2 7.9-.7 10.1 1.2 2.6 1.8 3.5 5 3.4 7.8Zm2.3-18.2c.3 6-12.3 3-15.7 3.7-5.7.2-3.2-9.7-3.7-13-.3-6 12.3-3 15.7-3.6 5.7-.2 3.1 9.7 3.7 12.9Z" class="cls-1"/><path d="M52.1 42H52c-1-.7-4-.4-5-.4V53c1.4 0 4.1.2 5.3-.5l.3-.2h.1V52h.2c2.8-2.8 2.4-8.2-.8-10.1Z" class="cls-1"/></g></svg>