<svg xmlns="http://www.w3.org/2000/svg" id="Layer_2" viewBox="0 0 80 80" width="32" height="32"><defs><style>.cls-1{fill:#fff}</style></defs><g id="Layer_1-2"><rect width="78" height="78" x="1" y="1" rx="4" ry="4" style="fill:#146eb4"/><path d="M75 2a3 3 0 0 1 3 3v70a3 3 0 0 1-3 3H5a3 3 0 0 1-3-3V5a3 3 0 0 1 3-3h70m0-2H5a5 5 0 0 0-5 5v70a5 5 0 0 0 5 5h70a5 5 0 0 0 5-5V5a5 5 0 0 0-5-5Z" class="cls-1"/><path d="M10 10.4h60v60H10z" class="cls-1"/><path d="M55.8 65h5.9a1 1 0 0 0 1-1.3l-2-6.2h.7a1 1 0 0 0 1-1.3l-.3-1a1 1 0 0 0-1-.7H60l-2.7-9h.6a1 1 0 0 0 1-1.3l-.3-1a1 1 0 0 0-1-.7h-1.2l-2.7-9h.6a1 1 0 0 0 1-1.3l-.3-1a1 1 0 0 0-1-.7h-1.2l-2.7-9h.6a1 1 0 0 0 1-1.3l-.3-1a1 1 0 0 0-1-.7h-1.2l-.9-2.8a1 1 0 0 0-1-.7h-1a1 1 0 0 0-1 1.2l.5 2.3H34.3l.5-2.3a1 1 0 0 0-1-1.2h-1a1 1 0 0 0-1 .7l-.9 2.8h-1.2a1 1 0 0 0-1 .7l-.3 1a1 1 0 0 0 1 1.3h.6l-2.7 9h-1.2a1 1 0 0 0-1 .7l-.3 1a1 1 0 0 0 1 1.3h.6l-2.7 9h-1.2a1 1 0 0 0-1 .7l-.3 1a1 1 0 0 0 1 1.3h.6l-2.7 9H19a1 1 0 0 0-1 .7l-.3 1a1 1 0 0 0 1 1.3h.6l-1.8 6.2a1 1 0 0 0 1 1.3h5.8a1 1 0 0 0 1-.8l1.3-6.7h27l1.3 6.7c.1.5.5.8 1 .8Zm-5.3-22.5h-21l1.8-9h17.4l1.8 9Zm-4.2-21 1.8 9H31.9l1.8-9h12.6Zm-19.2 33 1.8-9h22.2l1.8 9H27.1Z"/></g></svg>