<svg xmlns="http://www.w3.org/2000/svg" id="Layer_2" viewBox="0 0 80 80" width="32" height="32"><defs><style>.cls-1{fill:#fff}</style></defs><g id="Layer_1-2"><rect width="78" height="78" x="1" y="1" rx="4" ry="4" style="fill:#365341"/><path d="M75 2a3 3 0 0 1 3 3v70a3 3 0 0 1-3 3H5a3 3 0 0 1-3-3V5a3 3 0 0 1 3-3h70m0-2H5a5 5 0 0 0-5 5v70a5 5 0 0 0 5 5h70a5 5 0 0 0 5-5V5a5 5 0 0 0-5-5Z" class="cls-1"/><path d="M59.9 31.1h1c-1.6 14-13 11.6-20.7 4-.8-2.6.7-7.2 2.5-9 1.6 1 3.6 3.8 5.8 3.4 3.3 1.9 8.2 3.2 11.4 1.6ZM54.3 50c-2 5.8-2 11.1-10 9.9l-10.5-8.4 1.9-6h1.2A20 20 0 0 0 54.3 50Z" class="cls-1"/><path d="M42.7 38.9c4.6 1.9 9.2 3.4 14.4 2.8 0 2.6-1.6 4.4-2.2 7-6 2.8-14.7-.1-18.5-5.7.3-2.4 1.8-4.3 2-6.7l.4-.2 3.5 3.5.4-.7ZM23.3 27.7c2.6.4 4.4-.8 6.4-1.6 1.2 8.4 6.5 14.2 2.6 23-2.4-3.2-6-5.5-6-9.8-.8-4-2.2-7.4-3-11.6ZM46 27.3c-.4-.6-.8-1.4-1.3-1.6-1.9-.7-2-2.1-2-3.6 1-2 3.1-1.8 4.8-2.5l.2.6-3.8 1.4v2.8h.3l.2-2c5-3.5 14.3.3 16.4 5.7l-.4 1.1.4.3.3-1.2.5.3-.6-3c1.8 1.7 1.9 2 1.1 4-4.1 3.8-9.7-.6-14.4-1.2v-1.1H46Zm5.6-2.3-1.2 1.5c2 1.6 3.7 3.5 6.2 1.6-.5-.6.6-1.5-.6-2-1.3-.7-3-2.6-4.4-1ZM21.7 53.3l-1.5 1h-2.8v-4.1l4-5.2c2 0 6.2-.3 5.8 2.7-1 .6-.1 1.3-1.6 1.1-.5.1-1-.2-1.2.6-.4 1.5-2 2.4-2.7 3.9Z" class="cls-1"/><path d="M25.6 48.8c1.5.2.6-.5 1.6-1h1.5l1.2 2.2-.5 1.6c0 .4.3 1-.5 1.1-.7 0-.5.6-.6 1-.3 2-2.3 1-3.3 0l-2.5.4 4 .8c.2 2.4-2.5 2.7-4.2 4L20 56.6c1.2-.1.2-1.2.8-1.6.5-.4 1.1-.9.9-1.7.6-1 1.3-2 2.2-2.8 1.2.3 1-.9 1.7-1.7ZM31.5 18.9l1.8.9c-3.2.6-7 .8-6.6 5.1l1.6.3v.7l-2.3.8-.8-.5-.4 1.2-1.1-1.6 1.8-.3V22c1.5-2 3.6-2.3 6-3.1ZM36.8 56l1.5 1.8c0 2.3-2 3.3-4.2 4.2l-.5-1-1.6.7-.5-1c2.5-.8 4.1-2.5 5.3-4.7ZM40.5 59.4l1.9.6c-1 1.8-1 3.8-3 5l-2.8-.8c.6-.8 1.5-2 2.3-2.8.6-.6.5-1.8 1.6-2ZM29.4 57.1l-2.6.6-.2-.3c1.7-1.4 4.2-2.7 4-5.2l1.9.5.7-.7v2.4l-1.5.5-2.2 2.2Z" class="cls-1"/><path d="M40.5 59.4c-1.4.6-1.5 2.4-2.7 3.3-1-.3-1.3.5-1.9 1h-2v-.9c2.8-.4 4.5-2.4 5.7-5 .7.3 1 .8 1 1.5ZM33.3 56c1 0 .3-1 .8-1.5a4 4 0 0 0 2.2.5L32.2 60h-1.6v-1c1.3.3 2.1-2.1 2.7-2.9ZM49.8 60.6c-2 .9-4 1.6-6 0 2-.3 4 0 6 0ZM42.7 38.9l-.3.7-3.5-3.5v-1.5l3.8 4.3z" class="cls-1"/><path d="M33.3 56c-.6.8-1.4 3.2-2.7 2.8v-1.6l1.6-1.2h1.1ZM20 57l-2.2-2H20v2zM36.6 23.3c-1.6.3-1.4-1.3-2-2.2 1.2.3 1.4 1.2 2 2.2ZM28.9 52.7c.8 0 .5-.7.5-1l1-.6.1 1-1.4 1.9-.2-1.3ZM32.8 17.8c-.5-1-1-2 .7-2.8-.6 1.1-.9 1.6-.7 2.8ZM35.6 19.6H39c-1.5.6-2.4.4-3.3 0ZM61 25.4 59.7 24c.9.1 1.4.6 1.3 1.6ZM54.4 25l1.6 1.1v1.2h-3.3c-.6-.7-1-1.4-1.1-2.3h2.8Z" class="cls-1"/></g></svg>