<svg xmlns="http://www.w3.org/2000/svg" id="Layer_2" viewBox="0 0 80 80" width="32" height="32"><defs><style>.cls-1{fill:#fff}</style></defs><g id="Layer_1-2"><rect width="78" height="78" x="1" y="1" rx="4" ry="4" style="fill:#7a4501"/><path d="M75 2a3 3 0 0 1 3 3v70a3 3 0 0 1-3 3H5a3 3 0 0 1-3-3V5a3 3 0 0 1 3-3h70m0-2H5a5 5 0 0 0-5 5v70a5 5 0 0 0 5 5h70a5 5 0 0 0 5-5V5a5 5 0 0 0-5-5Z" class="cls-1"/><path d="M68.5 37c-2-3.1-4.3-2.3-7-1.5-15.1 4.7-12.2-1.2-19.6-12.1C43 17 55.2 17.4 60 15c3.3-.9 8.2 21.7 8.8 21.4l-.4.5Z" class="cls-1"/><path d="M48.4 48.9c1.1-2.6 0-9.3 3.7-10.8 5.4-.3 13.6-5.7 17 .7 2.6 6.4-11.2 11.2-15.5 14-2.4 1.3-5.4-.7-5.2-4ZM40.5 23.6c2.8 5.1 6.9 9.7 8.9 15-1 2.6-.6 10.2-3.1 11-4.7-3.4-6.4-9.5-9.8-14.1-2-4 3-8 4-11.9ZM16.5 58.2c.7-1.6 1.6-2.8 1.8-4 .8-4.7.8-5 5.2-4.2 3.4.6 6.7 1.8 9.8 3.2 1.8.8.5 2.9-.1 3.3-8.2 6.8-8.4 12.6-16.7 1.7ZM27 43c-9.4-.3-8-9.5-1.9-12.7 3.4-1.2 9.4 3.3 9.4 5.7 0 3.2-3.8 6.8-7.5 7Z" class="cls-1"/><path d="M18.4 49.3c-.8 6.9-1.9 10.6-7 3-1-1-1.5-2.1-.7-3.5.7-1.3 1.8-3.6 2-3.5 1.9 1 5.2 1.7 5.7 4ZM23.2 29.5c-3.3 6.6-6 5-2.2 11.7-1.8 7.4-11.6-9.2 2.2-11.7ZM40.8 58.6c-2 2.3-2.6 8.4-6.4 5.3-2.2-1.3 0-5.7.9-7 1.7.1 4.4 0 5.5 1.7ZM14.1 44.5c7.3 1.2 14.1 3.6 20.1 8.1-3.2-1-6.5-3-9.9-3.2-4.4.3-6.8-3.2-10.2-4.9ZM33.7 57.7l-2 6.5q-2.1-4.3 2-6.5Z" class="cls-1"/></g></svg>