<svg xmlns="http://www.w3.org/2000/svg" id="Layer_2" viewBox="0 0 80 80" width="32" height="32">
  <defs>
    <style>
      .cls-1{fill:#fff}
    </style>
  </defs>
  <g id="Layer_1-2">
    <g id="background">
      <rect width="78" height="78" x="1" y="1" rx="4" ry="4" style="fill:#ff7d00"/>
      <path d="M75 2a3 3 0 0 1 3 3v70a3 3 0 0 1-3 3H5a3 3 0 0 1-3-3V5a3 3 0 0 1 3-3h70m0-2H5a5 5 0 0 0-5 5v70a5 5 0 0 0 5 5h70a5 5 0 0 0 5-5V5a5 5 0 0 0-5-5Z" class="cls-1"/>
    </g>
    <g id="helmet">
      <path d="M30.9 37h20.4v-2.4H9.5c0 .8-.2 1.8.2 2.6h3.9l17.3-.1ZM51 33.6c-1.5-1.2-3.9-.9-5.4-2.3-3.7-2.7-4.4-7.7-7-11.3-2-3-5.2-5.8-9-6-3.4-.6-7 .6-9.6 3-1 1-2.3 1.8-3 3a49 49 0 0 0-2.3 7c.6 1.6-.2 3.3-1.4 4.6-.7 1.4-3.3.8-3.5 2.2 7.4.3 14.9.2 22.3.3 6 0 12 0 18-.2.3 0 .8 0 .9-.3Z" class="cls-1"/>
      <path d="M49 31.7c-.7-.9-2-1.2-2.5-2.2-1.6-1.6-2-3.8-2.7-5.9a26.3 26.3 0 0 0-5.3-9c-2.2-2-5.2-3-8-3.8-2.6-.9-5.3-.6-8-.7 0 1.4-.4 2.8-.3 4.1 1.5-.1 2.8-.9 4.2-1 3.7-.5 7.5.8 10.4 3a26 26 0 0 1 5.3 8.9c1.1 2.6 2.7 5.5 5.6 6.6.3 0 1.3.7 1.3 0Z" class="cls-1"/>
    </g>
    <g id="flames">
      <path d="m70.4 66-.1-3.8c-.6-.2-1.4.2-2 .2-3 .7-6.1.6-9-.4a15 15 0 0 1-5.9-3.1c-.3-.3-1-.6-.7 0 .4 1.8 1 3.5 1.9 5.1 1 1.7 2.3 3.2 4 4.2a20 20 0 0 0 4.8 1.6c2.4.2 4.7.1 7 .1V66Z" class="cls-1"/>
      <path d="M66.7 60.3c1.3-.4 2.5-1 3.6-1.9 0-.6-1.4-.7-2-1-2.3-.6-4.5-1.6-6.3-3.2-2-1.7-3.8-4-6.3-5.3-1.7-.8-3.7-.6-5.6-.6-1.2.1-2.2.7-3 1.4-.4.8 1.2.8 1.7 1.2 2.7 1.2 4.5 3.5 6.4 5.6a10 10 0 0 0 5.7 3.8c2 .3 4 .4 5.8 0Zm3.7-10.1v-4.3c-1.3 0-2.5-.1-3.7-.6A30 30 0 0 1 53.4 35c-.3-.5-1-.9-1 0 0 2.1.5 4.2 1.1 6.2a20.5 20.5 0 0 0 11.9 11.6l4.8 1.7c.3-1.4.2-2.9.2-4.3Z" class="cls-1"/>
      <path d="M70 42.1c.8-.4-1-.8-1.2-1.2a25.1 25.1 0 0 1-8-11c-.9-2-1.8-4.1-3.6-5.6a6.8 6.8 0 0 0-5.4-2.2c-.5 0-1.6 0-.7.6 1.3 1 2.1 2.6 2.6 4.2.9 3.1 1.7 6.3 3.5 9a13 13 0 0 0 7.9 6.4c1.6.2 3.3.3 4.9-.2Zm.4-8.1v-4c-1.1-.8-2.2-1.5-3.1-2.4-1.3-1.3-2-3-2.9-4.6l-1.6-4c0-.7-.6-.3-.6.2-.5 2-.6 4.3-.5 6.4.2 2.7 1.2 5.3 2.9 7.4a25 25 0 0 0 5 4.7c.5.6.8.1.7-.5l.1-3.2Z" class="cls-1"/>
    </g>
  </g>
</svg>
