<svg xmlns="http://www.w3.org/2000/svg" id="Layer_2" viewBox="0 0 80 80" width="32" height="32"><defs><style>.cls-1{fill:#fff}</style></defs><g id="Layer_1-2"><circle cx="40" cy="40" r="39" style="fill:#146eb4"/><path d="M40 2a38 38 0 1 1 0 76 38 38 0 0 1 0-76m0-2a40 40 0 1 0 0 80 40 40 0 0 0 0-80Z" class="cls-1"/><path d="M24.8 62.3c-3 2.9-10.3-3-6.7-6.7l20.2-20.2c5.5-5.4 1.9-8.2 3.2-12.5s4.8-7.7 11.3-7.3l-3.5 9.2c2.7 2.5 4.5 3.5 8.5 3.3l3.4-9.2c6.2 5.2 5.8 11.2 2 15.3s-6.7 2-12 3c-3.2.5-3.4 1.7-26.5 25Z" class="cls-1"/></g></svg>