<svg xmlns="http://www.w3.org/2000/svg" id="Layer_2" viewBox="0 0 80 80" width="32" height="32"><defs><style>.cls-1{fill:#fff}</style></defs><g id="Layer_1-2"><rect width="78" height="78" x="1" y="1" rx="4" ry="4" style="fill:#146eb4"/><path d="M75 2a3 3 0 0 1 3 3v70a3 3 0 0 1-3 3H5a3 3 0 0 1-3-3V5a3 3 0 0 1 3-3h70m0-2H5a5 5 0 0 0-5 5v70a5 5 0 0 0 5 5h70a5 5 0 0 0 5-5V5a5 5 0 0 0-5-5Z" class="cls-1"/><path d="M10 10.4h60v60H10z" class="cls-1"/><path d="M58.6 58c-1.6 0-2.5.4-3.3.8C60 45.4 65 40.4 65 40.4l-22.5-10-22.5 10s5 5 9.7 18.4l-.3.2c-.8.5-1.5 1-3 1s-2.2-.5-3-1c-.3-.3-.8-.6-1.4-.8v-9.8H12v20h10v-3c.3 0 .6.2 1 .4.8.5 1.7 1.1 3.4 1.1s2.7-.6 3.5-1c.8-.5 1.5-1 3-1s2.2.5 3 1c.7.4 1.6 1 3.4 1s2.7-.6 3.5-1c.7-.5 1.4-1 3-1s2.1.5 2.9 1c.8.4 1.7 1 3.4 1s2.7-.6 3.5-1c.8-.5 1.5-1 3-1s2.2.5 3 1c.7.4 1.7 1 3.4 1v-1c-1.5 0-2.2-.4-3-.9-.7-.5-1.7-1-3.4-1s-2.7.5-3.5 1c-.8.5-1.5 1-3 1s-2.1-.5-2.9-1c-.8-.5-1.7-1-3.5-1s-2.6.5-3.5 1c-.7.5-1.4 1-3 1s-2.1-.5-2.9-1c-.8-.5-1.7-1-3.4-1s-2.7.5-3.5 1c-.8.5-1.5 1-3 1s-2.2-.5-3-1c-.3-.3-.8-.6-1.4-.8v-1.9l1 .5c.8.5 1.7 1.1 3.4 1.1s2.7-.5 3.5-1c.8-.5 1.5-1 3-1s2.2.5 3 1c.7.4 1.6 1 3.4 1s2.7-.5 3.5-1c.7-.5 1.5-1 3-1s2.1.5 2.9 1c.8.4 1.7 1 3.5 1s2.6-.5 3.4-1c.8-.5 1.5-1 3-1s2.2.5 3 1c.7.4 1.7 1 3.4 1v-1c-1.5 0-2.2-.4-3-.9-.7-.5-1.7-1-3.4-1s-2.7.5-3.5 1c-.8.5-1.5 1-3 1s-2.1-.5-2.9-1c-.8-.5-1.7-1-3.5-1s-2.6.5-3.5 1c-.7.5-1.4 1-3 1s-2.1-.5-2.9-1c-.8-.5-1.7-1-3.4-1s-2.7.5-3.5 1c-.8.5-1.5 1-3 1s-2.2-.5-3-1c-.3-.3-.8-.5-1.4-.8v-1.9l1 .6c.8.5 1.7 1 3.4 1s2.7-.5 3.5-1c.8-.5 1.5-1 3-1s2.2.5 3 1c.7.5 1.6 1 3.4 1s2.7-.5 3.5-1c.7-.5 1.5-1 3-1s2.1.5 2.9 1c.8.5 1.7 1 3.5 1s2.6-.5 3.4-1c.8-.5 1.5-1 3-1s2.2.5 3 1c.7.5 1.7 1 3.4 1v-1c-1.5 0-2.2-.4-3-.9-.7-.5-1.7-1-3.4-1Z"/><path d="M59.5 26.4h-8l-3.5-11H37l-3.5 11h-8v3h7.1l-1 3.1 7-3.1 3.9-1.7 3.9 1.7 7 3.1-1-3.1h7.1v-3z"/></g></svg>