<svg xmlns="http://www.w3.org/2000/svg" id="Layer_2" viewBox="0 0 100 80" width="40" height="32"><defs><style>.cls-1{fill:#fff}</style></defs><g id="Layer_1-2"><rect width="78" height="78" x="21" y="1" rx="4" ry="4" style="fill:#7a4501"/><path d="M95 2a3 3 0 0 1 3 3v70a3 3 0 0 1-3 3H25a3 3 0 0 1-3-3V5a3 3 0 0 1 3-3h70m0-2H25a5 5 0 0 0-5 5v70a5 5 0 0 0 5 5h70a5 5 0 0 0 5-5V5a5 5 0 0 0-5-5Z" class="cls-1"/><path d="M62.1 47.8c-6.7 3.7-13.3 7.4-19.7 11.6-3.1 1.9-4.7 1.4-6.5-2.1-1.3-2.6-1.3-4 2-5.7a963.6 963.6 0 0 0 49-30.1h-.2l5.5 6.9c-10.5 6-19.8 13.3-30 19.4ZM87.5 17.8C72 27.3 56.3 36.3 41 46c-4.5 2.8-8.9 2.9-14.4 2.4C42.1 38.2 58.4 29.8 74 19.8c4.2-2.6 8.6-2.5 13.5-2Z" class="cls-1"/><path d="M62.1 47.8C65 47 85.5 32 94.4 29.7L42.2 62.2l-.7-.8c6.8-4.7 13.6-9.2 20.5-13.6ZM25.6 50.2h10c-3 4.9-1.3 9.4 5 12.3H30.1c1-5.2-.5-9-4.6-12.3ZM86.8 21.5c-12.5 6.3-45.4 27.1-49 29l-.6-1 52.9-32 .4.6-3.8 3.5.1-.1Z" class="cls-1"/><circle cx="20" cy="40" r="19" style="fill:#365341"/><path d="M20 22a18 18 0 1 1 0 36 18 18 0 0 1 0-36m0-2a20 20 0 1 0 0 40 20 20 0 0 0 0-40Z" class="cls-1"/><path d="M27.8 40.6v-5.3a7.8 7.8 0 0 0-15.6 0v1.5h3.7v-1.6a4 4 0 0 1 8.2 0v5.4H12.5c-1.2 0-2.2 1-2.2 2.2v7.5c0 1.2 1 2.2 2.2 2.2h15c1.2 0 2.2-1 2.2-2.2v-7.5c0-1.1-.8-2-1.9-2.2ZM21 46.1v1.5c0 .4-.2.7-.6.7h-.6a.6.6 0 0 1-.6-.7v-1.5a1.6 1.6 0 1 1 1.9 0Z" class="cls-1"/></g></svg>