<svg xmlns="http://www.w3.org/2000/svg" id="Layer_2" viewBox="0 0 80 80" width="32" height="32"><defs><style>.cls-1{fill:#fff}</style></defs><g id="Layer_1-2"><rect width="78" height="78" x="1" y="1" rx="4" ry="4" style="fill:#7a4501"/><path d="M75 2a3 3 0 0 1 3 3v70a3 3 0 0 1-3 3H5a3 3 0 0 1-3-3V5a3 3 0 0 1 3-3h70m0-2H5a5 5 0 0 0-5 5v70a5 5 0 0 0 5 5h70a5 5 0 0 0 5-5V5a5 5 0 0 0-5-5Z" class="cls-1"/><path d="M54.9 48.9H25.3c0 8-13.3 8-13.3 0-2.8 0-5.3-1-5.3-3.2 0-3.2-.8-7.2 3.4-8.6 1.7-.9 14.8-2.5 14.8-2.5 4-2 8.3-8.7 15.1-9.6h26.1c3.2 0 7.2 7.4 7.2 9.3v10.5c-.2 3.3-1.5 4.1-5.3 4 0 8.2-13.1 8.3-13.1 0Z" class="cls-1"/></g></svg>