<svg xmlns="http://www.w3.org/2000/svg" id="Layer_2" viewBox="0 0 100 80" width="40" height="32">
  <defs>
    <style>
      .cls-1{fill:#fff}
    </style>
  </defs>
  <g id="Layer_1-2">
    <rect width="78" height="78" x="21" y="1" fill="#7a4501" rx="4" ry="4"/>
    <path d="M95 2a3 3 0 0 1 3 3v70a3 3 0 0 1-3 3H25a3 3 0 0 1-3-3V5a3 3 0 0 1 3-3h70m0-2H25a5 5 0 0 0-5 5v70a5 5 0 0 0 5 5h70a5 5 0 0 0 5-5V5a5 5 0 0 0-5-5Z" class="cls-1"/>
    <path d="M71 69.4c-1 0-18.8-8.2-19.7-9-1.5-1.5-.8-1.4-1.3-6.4-.6-6.2-1.1-3.5 0-4.6.4-.5 0-.9 2-2.7 1 .2 1.2 0 3.3-1.7.9 1.1 1.7 1.8 3 2 2.8.5.2 2.5 2 5 1.1 1.5 8.6 5.2 9 5.4 2.4.6 2.6 0 6.4-3.4 4-3.8 4.3-3.3 3.3-10.3 1.2 0 1.2-.5 1.7-2.7 1.5 2 2.5 2.1 5.6 1.3 0 0 1.6 11.6 1.4 12.4-.2.4-14 14.5-16.7 14.7Z" class="cls-1"/>
    <path d="M86 41.7c-2.5.4-3.9.3-5.3-1.7-2.1 3.4.4 2.7-2.4 3.4-4.9-5-5 2.2-7.3-2 11.7-4.1 9.3-3.5 12.7-1.7.8.4 1.3.2 2.3 2Z" class="cls-1"/>
    <path d="M78.7 50c-.4 1-7.2 6.6-7.4 6.7-.8.5-1.3.4-2.3 0-6.9-2.7.2-2.4 1.7-6 .4-1-.2-3 0-6 .4-5.3-.3.9 4.7-2.7 0 0 2.3 1.1 3 2.4.3.6.5 5 .3 5.6Zm-29 8.7c.8 1.7.3 1 2.3 2.7 22.4 10.3 19.4 8.3 11.3 7C43 59.2 44.6 60 44 57.7c-1.6-18.9-2.6-7 3.3-10 2.3 2.2 1.6.1 2.4 11Z" class="cls-1"/>
    <path d="M42.3 45.7c5-1.9 14.4-6 16.7.7-1.4-.1-1.9-.3-3.7-2-1.3 1.2-1.6 1.4-2.6 1.6-1-2-3.2 2.1-3 3-3-4-3.4 1.1-7.4-3.3Zm6.7-5 1-.7c-.3-.6-1.3-.3-1 .7Zm-4 1.7c1-1.5 1.7-1.7 3.3-1.4L45 42.4Zm-9 2h3.7c-1.7.9-1.5 1-3.7 0Zm4-.4c.5-2 1.5-2 3.3-1-1.3.6-1.9.8-3.3 1Zm26-13c5.6-1.8 5-3.8 8-2.3-8.7 4-15 4.6-8 2.3Z" class="cls-1"/>
    <path d="M67 30c-1.8 1.3-2 .4-3 .7-1.6.4 0 1.4-5 1-1.4-4-1.8-3.8-8.3-5 3-4.2 3-4.3 4-4.7.6 0 8.9 2 9 2 2 .9 2.7 4 3.3 6Zm-32-2c-1 2 5.1 13.5 5 14.7-.2 1.8-2.6.8-4.3 1-2 .2-.6 2.3-4.7-8.4-1.8-4.3-1.2-3.5 9.7-17 3.5-3.8 4.9-5 8.3-7.3 0 .1-13 15.2-14 17Z" class="cls-1"/>
    <path d="M74.3 28.4c-1.5-2.6-4.2-.3-7 1.3 0 0-1.4-4.5-2.3-5.4a38 38 0 0 0-9.3-3c-1 0-1.8 0-3 1.7-6.2 8.7-6.6 8-2.7 15.7-3.5 3-2 .8-4 1.7-.7.3-2 2-2 2-5.6-2.7-2.2 3-5.7-5-2.3-5.8-3.1-7.5-3-8.4.4-2.6 13.7-17.4 14-17.7 1.7-1 20.6 5.3 20.7 5.4.9.7 3.8 6.2 4.3 11.7Z" class="cls-1"/>
    <circle cx="20" cy="40" r="19" fill="#365341"/>
    <path d="M20 22a18 18 0 1 1 0 36 18 18 0 0 1 0-36m0-2a20 20 0 1 0 0 40 20 20 0 0 0 0-40Z" class="cls-1"/>
    <path d="M27.8 40.6v-5.3a7.8 7.8 0 0 0-15.6 0v1.5h3.7v-1.6a4 4 0 0 1 8.2 0v5.4H12.5c-1.2 0-2.2 1-2.2 2.2v7.5c0 1.2 1 2.2 2.2 2.2h15c1.2 0 2.2-1 2.2-2.2v-7.5c0-1.1-.8-2-1.9-2.2ZM21 46.1v1.5c0 .4-.2.7-.6.7h-.6a.6.6 0 0 1-.6-.7v-1.5a1.6 1.6 0 1 1 1.9 0Z" class="cls-1"/>
  </g>
</svg>
