<svg xmlns="http://www.w3.org/2000/svg" id="Layer_2" viewBox="0 0 100 80" width="40" height="32"><defs><style>.cls-1{fill:#fff}.cls-3{fill:#7a4501}</style></defs><g id="Layer_1-2"><rect width="78" height="78" x="21" y="1" class="cls-3" rx="4" ry="4"/><path d="M95 2a3 3 0 0 1 3 3v70a3 3 0 0 1-3 3H25a3 3 0 0 1-3-3V5a3 3 0 0 1 3-3h70m0-2H25a5 5 0 0 0-5 5v70a5 5 0 0 0 5 5h70a5 5 0 0 0 5-5V5a5 5 0 0 0-5-5Z" class="cls-1"/><path d="M59.5 68.8s-7.6-4.2-11.9-6a7.2 7.2 0 0 1-4.1-4c-.5-.9-.8-1.5-1.9-2-3-1.2-11.7-5.8-12-6l-1.3-.6 9.4-9.4.6.2c4.7 1.7 5.7 3 6.7 4.7.6 1 1.1 2 3.5 3.3a156 156 0 0 1 11.3 5.7l17.4-17.4h1.5C84 37.3 90 37 90 37l2.7-.2-32.4 32.4-.7-.3Z" class="cls-1"/><path d="m90 37.9-30 30s-7.7-4.2-12-6c-4.3-1.8-3-4.7-6-6-3-1.3-12-6-12-6l8-8c8.3 3 4 4.5 10 8 4.3 1.8 12 6 12 6l17.6-17.6h1.1C84 38.3 90 38 90 38m5.2-2.4-5.3.4c-.1 0-6 .4-11.2.4h-2l-.5.6-16.6 16.5c-2.3-1.3-7.4-4-10.7-5.3-2-1.2-2.5-2-3-2.9-1.1-1.9-2.3-3.3-7.3-5.1l-1.2-.4-.9.9-8 7.9-1.8 1.9 2.4 1.3c.3.2 9 4.8 12.1 6 .7.3 1 .6 1.4 1.6.7 1.4 1.6 3.2 4.6 4.4 4.2 1.8 11.8 5.9 11.8 6l1.4.7 1-1 30-30 3.8-3.9Z" class="cls-3"/><path d="M59.5 55s-7.6-4.2-11.9-6a7.2 7.2 0 0 1-4.1-4c-.5-.9-.8-1.5-1.9-2-3-1.2-11.7-5.8-12-6l-1.3-.6 25.4-25.5.6.3c10.7 4 13.2 7.2 14.8 9.4 1.4 2 2.1 3 9.4 3 2.7 0 6.4-.2 11.4-.5l2.7-.2-32.4 32.4-.7-.3Z" class="cls-1"/><path d="M54 12.1c20.8 7.7 9 12.5 24.4 12.5 2.9 0 6.6-.2 11.6-.5l-30 30s-7.7-4.2-12-6c-4.3-1.8-3-4.7-6-6-3-1.3-12-6-12-6l24-24m-.5-2.3-1 .9-24 24-1.8 1.9 2.4 1.3c.3.2 9 4.8 12.1 6 .7.3.9.6 1.4 1.6.7 1.4 1.6 3.2 4.6 4.4 4.2 1.8 11.8 6 11.8 6l1.4.7 1-1 30-30 3.8-3.8-5.3.3c-5 .3-8.7.5-11.5.5-6.7 0-7.3-.8-8.6-2.6-1.6-2.3-4.2-5.7-15.1-9.8l-1.2-.4Z" class="cls-3"/><circle cx="20" cy="40" r="19" style="fill:#365341"/><path d="M20 22a18 18 0 1 1 0 36 18 18 0 0 1 0-36m0-2a20 20 0 1 0 0 40 20 20 0 0 0 0-40Z" class="cls-1"/><path d="M27.8 40.6v-5.3a7.8 7.8 0 0 0-15.6 0v1.5h3.7v-1.6a4 4 0 0 1 8.2 0v5.4H12.5c-1.2 0-2.2 1-2.2 2.2v7.5c0 1.2 1 2.2 2.2 2.2h15c1.2 0 2.2-1 2.2-2.2v-7.5c0-1.1-.8-2-1.9-2.2ZM21 46.1v1.5c0 .4-.2.7-.6.7h-.6a.6.6 0 0 1-.6-.7v-1.5a1.6 1.6 0 1 1 1.9 0ZM58.9 63.4V31.7h-7.5v-8H53l.5-.2h2.9l1.5-.3.8-.5a8 8 0 0 0 1.3-4.2v-.8l-.2-1h8.7v46.7H59Z" class="cls-1"/><path d="M67.6 17.6v44.8H60V30.7h-7.5v-6h.8l.5-.2h2.9c.8-.3 1.4-.3 1.8-.3.3-.3.7-.5 1-.6a9 9 0 0 0 1.7-5.1v-.9h6.5m2-2H58.8l.3 2.3v.6c0 1.1-.3 2.3-1 3.5l-.5.2-1.2.2h-1.2l-.4.1H53.2l-.2.1h-2.6v10.1h7.5v31.7h11.7V15.6Z" class="cls-3"/></g></svg>