<svg xmlns="http://www.w3.org/2000/svg" id="Layer_2" viewBox="0 0 80 80" width="32" height="32"><defs><style>.cls-1{fill:#fff}</style></defs><g id="Layer_1-2"><rect width="78" height="78" x="1" y="1" rx="4" ry="4" style="fill:#7a4501"/><path d="M75 2a3 3 0 0 1 3 3v70a3 3 0 0 1-3 3H5a3 3 0 0 1-3-3V5a3 3 0 0 1 3-3h70m0-2H5a5 5 0 0 0-5 5v70a5 5 0 0 0 5 5h70a5 5 0 0 0 5-5V5a5 5 0 0 0-5-5Z" class="cls-1"/><path d="m20.5 43-2.5.7-1.3-.6h.1l-1.3-.7v.1l-.6-.7-1.3-.6h.1l-1.3-.6-1-1.1C27 31.2 42.8 23.2 58.6 15l7.8 3.6-2.4 2.2v-.1l-1.3.7h.1l-1.3.6-1.3.6h.1l-1.3.7.1-.1-1.4.7.2-.1-1.4.7h.1l-1.4.6h.2l-1.4.7.1-.1-1.3.7v-.1l-1.3.7h.1l-1.3.6-1.9 1.3.1-.1-1.3.7-1.3.6h.2l-1.4.7.1-.1-1.4.7.2-.1-1.4.7.1-.1-1.4.7h.2l-1.4.6h.1l-1.4.7.2-.1-1.4.7.1-.1-1.3.7V35L33 37v-.1l-1.3.7.1-.1-1.3.7h.1l-1.4.6h.1l-1.3.6h.1l-1.4.7.1-.1-1.3.7.1-.1-1.4.7h.1l-1.3.6h.1l-1.4.6h.2l-1.4.7.1-.1ZM19.9 64.3l-.9-5.4 48.3-26.3 1.4 6.3L21 65l-1.1-.8v.1z" class="cls-1"/><path d="m64 20.8 3.2-1.4.7 5.7-47.7 25a8.4 8.4 0 0 1-1-5.4l1.3-1.6 1.3-.7-.1.1 1.3-.7H23l1.4-.6h-.1l1.3-.6h-.1l1.4-.7-.1.1 1.3-.7-.1.1 1.4-.7-.1.1 1.3-.7h-.1l1.4-.6h-.2L33 37h-.1l3.2-2-.1.1 1.3-.6 1.3-.7-.1.1 1.3-.7v.1l1.3-.7H41l1.3-.6 1.3-.6h-.1l1.3-.7v.1L46 30l-.1.1 1.3-.7h-.1l1.4-.6h-.1l1.9-1.3h-.1l1.4-.6h-.2l1.4-.6h-.1l1.4-.7-.2.1 1.4-.7-.1.1 1.3-.7 1.3-.6h-.1l1.3-.6H59l1.4-.7-.1.1 1.3-.7-.1.1 1.4-.7h-.2l1.4-.6ZM15.6 61c-2-.7-1.1-2.8-2.2-4.4l47-25.7c.5 1.6.6 2 .8 3.7l-43 23.5-1.4 2.5v-.1l-1.3.7V61ZM15.5 43.7c-.4 1.4-1.5 1.7-3 1.9l-.4-3.3 2.2.8 1.3.7-.1-.1Z" class="cls-1"/><path d="m16.8 60.6 1-.2.9 2.6h-1.3.1l-1.4-.7.1.1-.6-1.3-.1.1 1.3-.7v.1zM14.3 43.2l-.6-1.4-.1.1H15l-.1-.1.7.7-.1-.1v.7h.1-1.4l.1.1zM18 43.7l.3 1.4-1.5-1.4-.1.1h1.4l-.1-.1zM12.4 41.2l-1 .1-.1-.5 1.2-.1-.1-.1v.7-.1z" class="cls-1"/><path d="m13.7 41.8-1.3-.6v.1h1.3l-.1-.1v.7l.1-.1zM16.8 43.7h-1.3l.1.1v-.7h-.1 1.3-.1v.7l.1-.1zM14.9 62.4h1.3l-.1-.1v.7h.1l-1.2-.6h-.1zM17.4 63.6l-1.2-.6h-.1 1.4-.1v.6zM17.4 63.6l1.2.7.1-.1-1.3-.6zM18.6 64.3H20v-.1c-.4.6-.8 1.1-1.2 0h-.1Z" class="cls-1"/><path d="m15 62.4-.3-.1.2.1h.1z" class="cls-1"/></g></svg>