<svg xmlns="http://www.w3.org/2000/svg" id="Layer_2" viewBox="0 0 80 80" width="32" height="32"><defs><style>.cls-1{fill:#fff}</style></defs><g id="Layer_1-2"><path d="M5 79a4 4 0 0 1-4-4V5a4 4 0 0 1 4-4h70a4 4 0 0 1 4 4v70a4 4 0 0 1-4 4H5Z" style="fill:#7a4501"/><path d="M75 2a3 3 0 0 1 3 3v70a3 3 0 0 1-3 3H5a3 3 0 0 1-3-3V5a3 3 0 0 1 3-3h70m0-2H5a5 5 0 0 0-5 5v70a5 5 0 0 0 5 5h70a5 5 0 0 0 5-5V5a5 5 0 0 0-5-5Z" class="cls-1"/><path d="M52.6 41.8c-.3 0-.5 0-.7-.2h-3.6V47H52l.2-.1c1.3-.6 1.9-1.5 1.9-2.5l-.3-1.2c-.3-.6-.7-1-1.2-1.4Z" class="cls-1"/><path d="M63.5 10H36.8a2.8 2.8 0 0 0-2.8 2.8v3.6h-3.8a2.8 2.8 0 0 0-2.8 2.8v8.3h.8C24.2 40 13.7 57 13.7 60.8a7.9 7.9 0 0 0 15.7 0V27.4H34v35.1c0 1.5 1.2 2.8 2.8 2.8h-.5V70H64v-4.6h-.5c1.6 0 2.8-1.3 2.8-2.8V12.8c0-1.6-1.2-2.8-2.8-2.8ZM26 60.9a4.6 4.6 0 0 1-9.3 0c0-2.6 9.7-20.9 9.7-20.9L26 60.9Zm30.9-16.2v.4c-.8 3-2.6 4.5-5.4 4.5h-3v6h-3V39H52.3l.5.1.4.2h.3c2.2 1.2 3.3 2.8 3.3 5v.4Zm3-15c0 2-1.6 3.7-3.6 3.7h-12c-2 0-3.7-1.7-3.7-3.7v-9.2c0-2 1.6-3.7 3.7-3.7h12c2 0 3.7 1.6 3.7 3.7v9.2Z" class="cls-1"/></g></svg>