<svg xmlns="http://www.w3.org/2000/svg" id="Layer_2" viewBox="0 0 100 80" width="40" height="32"><defs><style>.cls-1{fill:#fff}</style></defs><g id="Layer_1-2"><path d="M25 1h70a4 4 0 0 1 4 4v70a4 4 0 0 1-4 4H25a4 4 0 0 1-4-4V5a4 4 0 0 1 4-4Z" style="fill:#7a4501"/><path d="M95 2a3 3 0 0 1 3 3v70a3 3 0 0 1-3 3H25a3 3 0 0 1-3-3V5a3 3 0 0 1 3-3h70m0-2H25a5 5 0 0 0-5 5v70a5 5 0 0 0 5 5h70a5 5 0 0 0 5-5V5a5 5 0 0 0-5-5Z" class="cls-1"/><path d="M75.7 35C92.3 14.5 85.5 7.7 65 24.3L75.7 35ZM64.3 25c-.5.2-19 18.9-19.4 19.2l10.9 10.9c.4-.5 19-18.9 19.2-19.4L64.3 25ZM40 49.2l4.3-4.3L55 55.7 50.8 60zM35 54.2l4.2-4.2L50 60.8 45.8 65z" class="cls-1"/><circle cx="20" cy="40" r="19" style="fill:#365341"/><path d="M20 22a18 18 0 1 1 0 36 18 18 0 0 1 0-36m0-2a20 20 0 1 0 0 40 20 20 0 0 0 0-40Z" class="cls-1"/><path d="M27.8 40.6v-5.3a7.8 7.8 0 0 0-15.6 0v1.5h3.7v-1.6a4 4 0 0 1 8.2 0v5.4H12.5c-1.2 0-2.2 1-2.2 2.2v7.5c0 1.2 1 2.2 2.2 2.2h15c1.2 0 2.2-1 2.2-2.2v-7.5c0-1.1-.8-2-1.9-2.2ZM21 46.1v1.5c0 .4-.2.7-.6.7h-.6a.6.6 0 0 1-.6-.7v-1.5a1.6 1.6 0 1 1 1.9 0Z" class="cls-1"/></g></svg>