<svg xmlns="http://www.w3.org/2000/svg" id="Layer_2" viewBox="0 0 80 80" width="32" height="32"><defs><style>.cls-1{fill:#fff}</style></defs><g id="Layer_1-2"><rect width="78" height="78" x="1" y="1" rx="4" ry="4" style="fill:#7a4501"/><path d="M75 2a3 3 0 0 1 3 3v70a3 3 0 0 1-3 3H5a3 3 0 0 1-3-3V5a3 3 0 0 1 3-3h70m0-2H5a5 5 0 0 0-5 5v70a5 5 0 0 0 5 5h70a5 5 0 0 0 5-5V5a5 5 0 0 0-5-5Z" class="cls-1"/><path d="M70.3 36.9H40v-1.3h3a2 2 0 0 0 2-2v-.3l20-2.4v-2l-20 1.6V30a2 2 0 0 0-2-2H22a2 2 0 0 0-2 2v3.5c0 1.1.9 2 2 2h3V37h-6.7c-2.2 0-5 1.8-6.3 4l-4 7c-1.3 2.2-.5 4 1.7 4h52c2.2 0 5-1.8 6.3-4l4-7c1.3-2.2.5-4-1.7-4Z" class="cls-1"/></g></svg>