<svg xmlns="http://www.w3.org/2000/svg" id="Layer_2" viewBox="0 0 80 80" width="32" height="32"><defs><style>.cls-1{fill:#fff}</style></defs><g id="Layer_1-2"><rect width="78" height="78" x="1" y="1" rx="4" ry="4" style="fill:#7a4501"/><path d="M75 2a3 3 0 0 1 3 3v70a3 3 0 0 1-3 3H5a3 3 0 0 1-3-3V5a3 3 0 0 1 3-3h70m0-2H5a5 5 0 0 0-5 5v70a5 5 0 0 0 5 5h70a5 5 0 0 0 5-5V5a5 5 0 0 0-5-5Z" class="cls-1"/><path d="M55.7 35C72.3 14.5 65.5 7.7 45 24.3L55.8 35ZM44.3 25c-.5.2-19 18.9-19.4 19.2l10.9 10.9c.4-.5 19-18.9 19.2-19.4L44.3 25ZM20 49.2l4.3-4.3L35 55.7 30.8 60zM15 54.1l4.3-4.2L30 60.7l-4.2 4.2z" class="cls-1"/></g></svg>