<svg xmlns="http://www.w3.org/2000/svg" id="Layer_2" viewBox="0 0 100 80" width="40" height="32"><defs><style>.cls-1{fill:#fff}</style></defs><g id="Layer_1-2"><path d="M25 79a4 4 0 0 1-4-4V5a4 4 0 0 1 4-4h70a4 4 0 0 1 4 4v70a4 4 0 0 1-4 4H25Z" style="fill:#7a4501"/><path d="M95 2a3 3 0 0 1 3 3v70a3 3 0 0 1-3 3H25a3 3 0 0 1-3-3V5a3 3 0 0 1 3-3h70m0-2H25a5 5 0 0 0-5 5v70a5 5 0 0 0 5 5h70a5 5 0 0 0 5-5V5a5 5 0 0 0-5-5Z" class="cls-1"/><path d="M72.6 41.8c-.3 0-.5 0-.7-.2h-3.6V47H72l.2-.1c1.3-.6 1.9-1.5 1.9-2.5l-.3-1.2c-.3-.6-.7-1-1.2-1.4Z" class="cls-1"/><path d="M83.5 10H56.8a2.8 2.8 0 0 0-2.8 2.8v3.6h-3.8a2.8 2.8 0 0 0-2.8 2.8v8.3h.8C44.2 40 33.7 57 33.7 60.8a7.9 7.9 0 0 0 15.7 0V27.4H54v35.1c0 1.5 1.3 2.8 2.8 2.8h-.5V70H84v-4.6h-.4c1.5 0 2.7-1.3 2.7-2.8V12.8c0-1.6-1.2-2.8-2.7-2.8ZM46 60.9a4.6 4.6 0 0 1-9.2 0c0-2.6 9.6-20.9 9.6-20.9L46 60.9Zm30.9-16.2v.4c-.8 3-2.6 4.5-5.4 4.5h-3v6h-3V39h6.9l.5.1.4.2h.3c2.2 1.2 3.3 2.8 3.3 5v.4Zm3-15c0 2-1.6 3.7-3.6 3.7h-12c-2 0-3.7-1.7-3.7-3.7v-9.2c0-2 1.6-3.7 3.7-3.7h12c2 0 3.7 1.6 3.7 3.7v9.2Z" class="cls-1"/><circle cx="20" cy="40" r="19" style="fill:#365341"/><path d="M20 22a18 18 0 1 1 0 36 18 18 0 0 1 0-36m0-2a20 20 0 1 0 0 40 20 20 0 0 0 0-40Z" class="cls-1"/><path d="M27.8 40.6v-5.3a7.8 7.8 0 0 0-15.6 0v1.5h3.7v-1.6a4 4 0 0 1 8.2 0v5.4H12.5c-1.2 0-2.2 1-2.2 2.2v7.5c0 1.2 1 2.2 2.2 2.2h15c1.2 0 2.2-1 2.2-2.2v-7.5c0-1.1-.8-2-1.9-2.2ZM21 46.1v1.5c0 .4-.2.7-.6.7h-.6a.6.6 0 0 1-.6-.7v-1.5a1.6 1.6 0 1 1 1.9 0Z" class="cls-1"/></g></svg>