<svg xmlns="http://www.w3.org/2000/svg" id="Layer_2" viewBox="0 0 100 80" width="40" height="32"><defs><style>.cls-1{fill:#fff}</style></defs><g id="Layer_1-2"><path d="M25 79a4 4 0 0 1-4-4V5a4 4 0 0 1 4-4h70a4 4 0 0 1 4 4v70a4 4 0 0 1-4 4H25Z" style="fill:#7a4501"/><path d="M95 2a3 3 0 0 1 3 3v70a3 3 0 0 1-3 3H25a3 3 0 0 1-3-3V5a3 3 0 0 1 3-3h70m0-2H25a5 5 0 0 0-5 5v70a5 5 0 0 0 5 5h70a5 5 0 0 0 5-5V5a5 5 0 0 0-5-5Z" class="cls-1"/><path d="M74.9 48.9H45.3c0 8-13.3 8-13.3 0-2.8 0-5.3-1-5.3-3.2 0-3.2-.8-7.2 3.4-8.6 1.7-.9 14.8-2.5 14.8-2.5 4-2 8.3-8.7 15.1-9.6h26.1c3.2 0 7.2 7.4 7.2 9.3v10.5c-.2 3.3-1.5 4.1-5.3 4 0 8.2-13.1 8.3-13.1 0Z" class="cls-1"/><circle cx="20" cy="40" r="19" style="fill:#365341"/><path d="M20 22a18 18 0 1 1 0 36 18 18 0 0 1 0-36m0-2a20 20 0 1 0 0 40 20 20 0 0 0 0-40Z" class="cls-1"/><path d="M27.8 40.6v-5.3a7.8 7.8 0 0 0-15.6 0v1.5h3.7v-1.6a4 4 0 0 1 8.2 0v5.4H12.5c-1.2 0-2.2 1-2.2 2.2v7.5c0 1.2 1 2.2 2.2 2.2h15c1.2 0 2.2-1 2.2-2.2v-7.5c0-1.1-.8-2-1.9-2.2ZM21 46.1v1.5c0 .4-.2.7-.6.7h-.6a.6.6 0 0 1-.6-.7v-1.5a1.6 1.6 0 1 1 1.9 0Z" class="cls-1"/></g></svg>