<svg xmlns="http://www.w3.org/2000/svg" id="Layer_2" viewBox="0 0 80 80" width="32" height="32"><defs><style>.cls-1{fill:#fff}</style></defs><g id="Layer_1-2"><rect width="78" height="78" x="1" y="1" rx="4" ry="4" style="fill:#146eb4"/><path d="M75 2a3 3 0 0 1 3 3v70a3 3 0 0 1-3 3H5a3 3 0 0 1-3-3V5a3 3 0 0 1 3-3h70m0-2H5a5 5 0 0 0-5 5v70a5 5 0 0 0 5 5h70a5 5 0 0 0 5-5V5a5 5 0 0 0-5-5Z" class="cls-1"/><path d="M10 10.4h60v60H10z" class="cls-1"/><path d="M62.6 64.5 60.7 62h.7c.7 0 1.2-.3 1-.5L62 61c-.2-.2-.6-.3-1-.3h-1.3l-2.6-3.6h.6c.7 0 1.2-.3 1-.5l-.3-.4c-.2-.2-.6-.3-1-.3h-1.3l-1.6-2.1L50 55l.5.9h-4l-4.7 1.2H51l1.8 3.6H27l1.8-3.6h9.5l-5-1.2h-4l.5-.9-4.6-1.2-1.6 2h-1.2c-.5 0-.9.2-1 .4l-.3.4c-.2.2.3.5 1 .5h.6l-2.7 3.6H19c-.5 0-.9.1-1 .3l-.3.4c-.2.2.3.5 1 .5h.6l-1.8 2.5c-.2.2.3.5 1 .5h5.8c.5 0 .9-.1 1-.3l1.3-2.7h27l1.3 2.7c.1.2.5.3 1 .3h5.9c.6 0 1.1-.3 1-.5ZM30 40H10v25h1l19-25z"/><g id="path849"><path d="M40.4 58c-.9 0-3.5-.6-7.7-1.7l-.7-.1q-8.6-2.3-8.8-3.1c-.3-.7.5-3.6.6-4 1.5-5 1.8-6 2.5-6 .1-.2.4-1 .8-3.7.3-2 .7-2.8 1.5-2.8h.2l.2.2c.1 0 .4.4.2 1.3-.2 1.1.5 4.6 1.3 6l1.7 2.1 1.2 1.3-.4 2.4-.4 2.3H32.9c.2-.2.3-1 .5-2s.4-2 1.3-2c.4 0 1 .3 1.8.8 1.1.5 1 1 .9 2.7l-.1 1.2c.3 0 .6 0 .6-1.8v-1.5H42v1.8c0 1 .2 1.5.3 1.5h.2v-1.4l-.1-2.2 1.6-.7 1.6-.4h.2l.2.1c0 .1.2.3.7 2.3l.3 1.7H47.3l-.3-2-.4-2.6L48 46a15 15 0 0 0 1.8-2.7c.6-1.5 1-4 .9-5.1-.1-.6-.2-1 0-1.2l.5-.2h.4c.9.4 1 1 1.4 3.7.4 2.6.4 2.7.7 2.7.6.2 1 .9 2 4.8.3.8 1.3 4.5 1 5.2-.1.6-.9 1-1.5 1.1A617.9 617.9 0 0 1 40.4 58Zm10-11.4c0 .4.3 1.3.7 2.5.7 2.4.8 2.4 1 2.4h.2l-.8-2.5c-.7-2.4-.8-2.4-1-2.4h-.2Zm-22.6 5c.3 0 .4 0 1.1-2.5l.8-2.5h-.1c-.3 0-.4 0-1.1 2.4l-.8 2.5h.1Zm12.2-3c-1.4 0-2.7-.3-3.6-.6-3.6-1.4-6.1-5-6.1-8.9 0-3 .7-4.9 2.8-7 1.4-1.4 2.3-2 3.5-2.4a9.8 9.8 0 0 1 12.2 5c.8 1.5.9 2.2.9 4.2 0 2.1-.1 2.7-1 4.3-1 2-2.5 3.5-4.4 4.5-1 .5-2.6.9-4.3.9Zm0-11.3c-.8 0-1.6.6-1.6 1.5 0 .8.9 1.7 1.6 1.7a2 2 0 0 0 1-.5c.7-.7.8-1.4.1-2.2-.2-.3-.6-.5-1-.5Zm6.2-7.4c-2-1.3-4-2-6.1-2s-4.2.7-6.1 2l-2.5 1.6V29c0-1.8.4-2.5 2-3.2.4-.1.5-.2.5-1 .1-1 .4-1.4 1.3-1.8l.7-.3v-3c0-2 0-3-.3-3.3-.5-.4-.6-1-.5-2 .2-1.5.7-1.8 2.7-2.2L40 12c.9 0 1.6.1 2.7.4.2 0 1 .3 1.4.7.4.4.4 1.4.4 1.6 0 .7 0 1.5-.4 2 0 .2-.2 1.3-.2 3v3l.7.3c.9.5 1.2.9 1.3 2 .1.6.2.8 1 1.3 1.3.7 1.4 1 1.5 2.6l.1 2.7-2.4-1.7Z"/><path d="M40.1 12.5c.8 0 1.6.1 2.5.4 0 0 1 .2 1.2.5.3.4.3 1.3.3 1.3 0 .8-.1 1.5-.3 1.6-.1.1-.3 1.6-.2 3.5V23l.9.4c.7.3 1 .6 1 1.5.1.9.3 1.2 1.3 1.7 1 .6 1.1.7 1.2 2.3l.1 1.6-1.6-1.1c-2-1.4-4.2-2-6.4-2s-4.3.6-6.4 2l-1.7 1v-1.4c0-1.6.2-2 1.7-2.7.6-.2.8-.5.9-1.4 0-.9.2-1.1 1-1.5l.9-.4v-3.3c0-2.7 0-3.4-.5-3.7-.3-.2-.4-.6-.3-1.5.2-1.2.4-1.4 2.3-1.8l2.2-.3M40 29.6c3.5 0 6.8 2 8.4 5.3.7 1.5.8 2.1.8 4 0 2 0 2.5-.8 4a9.8 9.8 0 0 1-4.3 4.4c-1 .5-2.6.7-4.1.7-1.3 0-2.5-.1-3.4-.5a9.4 9.4 0 0 1-5.8-8.4c0-3 .6-4.7 2.7-6.7a8 8 0 0 1 3.3-2.3c1-.3 2.1-.5 3.2-.5M40 41c.4 0 1-.3 1.5-.7.8-.8.8-1.8 0-2.8-.3-.5-.9-.7-1.4-.7-1.1 0-2.2.8-2.2 2 0 1 1.2 2.2 2.1 2.2m-11.4-4c.2 0 .2.5.1 1-.2 1.3.6 4.8 1.4 6.3a15 15 0 0 0 1.8 2.3l1 1-.3 2.2-.5 2.4c0 .2.2.4.6.5h.4c.4 0 .5-.4.9-2.4.2-1 .3-1.5.7-1.5.3 0 .8.2 1.6.6.8.4.8.5.6 2.3-.1 1.7-.1 1.8.5 1.8.8 0 1-.6 1-2.4v-1h3.2v1.3c0 1.4.2 2 .8 2h.2c.5 0 .5-.3.5-2l-.1-1.7 1.3-.6 1.3-.4c.2 0 .4 1 .6 2l.5 2 .2.1h.5c.6-.2.6-.3.2-2.6l-.4-2.3 1.3-1.7 1.9-2.8c.7-1.6 1.1-4.3 1-5.4-.2-.6-.2-.8 0-.8h.2c.5.2.6.5 1 3.3s.5 3 1 3.1c.5.1.9 1.3 1.8 4.5.7 2.3 1.1 4.5 1 4.8 0 .3-.6.7-1.2.8l-14.6 3.8h-.2c-.8 0-3.4-.6-7.6-1.6-9.1-2.4-9-2.4-9.1-3-.1-.3.2-2 .7-3.6 1.4-4.9 1.7-5.7 2-5.7.5 0 .8-1.4 1.2-4.1.2-1.6.6-2.4 1-2.4m23.6 15c.4 0 .7-.2.7-.3l-.9-3c-.7-2.5-.9-2.7-1.5-2.7-.4 0-.7.1-.7.2l.9 3c.7 2.5.9 2.7 1.5 2.7m-24.3 0c.6 0 .8-.2 1.5-2.8l.9-3-.7-.1c-.6 0-.8.2-1.6 2.7l-.8 3c0 .1.3.2.7.2M40 11.5c-.7 0-1.4 0-2.4.3-1.9.4-2.7.8-3 2.7-.1.8-.1 1.7.6 2.4.2.4.2 2.1.2 2.9v2.6l-.4.2c-1 .5-1.5 1-1.6 2.3v.5h-.2c-1.8.9-2.4 1.7-2.4 3.7v3.3l1.6-1 1.7-1.1c1.9-1.2 3.9-1.9 5.9-1.9 2 0 4 .7 5.8 1.9l1.6 1.1 1.7 1.1-.1-2L49 29c-.1-1.8-.3-2.3-1.7-3-.7-.5-.7-.5-.8-1-.2-1.3-.6-1.8-1.6-2.3l-.4-.2v-2.6c0-1.7.1-2.6.2-3 .2-.3.4-.9.4-2 0-.6 0-1.5-.5-2-.5-.6-1.3-.8-1.7-.9-1.1-.3-2-.4-2.8-.4Zm-.2 17c-1.1 0-2.3.3-3.5.7a9 9 0 0 0-3.6 2.5 9.2 9.2 0 0 0-3 8.3 6 6 0 0 1-.1-1.8c.1-.8 0-1.4-.3-1.7-.2-.3-.5-.4-.8-.4-1.6 0-1.9 2.2-2 3.2-.3 2.1-.6 3-.7 3.3-.8.3-1.2 1.7-2.5 6.4a12 12 0 0 0-.7 4.2q.3 1.1 9.3 3.5l.5.1c6.5 1.7 7.6 1.7 7.9 1.7h.3l14.7-3.8c1-.3 1.7-.8 2-1.5.1-.6-.2-2.4-1.1-5.4-1.1-4-1.5-4.8-2.3-5.1-.2-.4-.3-1.5-.5-2.4-.4-2.8-.5-3.6-1.6-4l-.6-.1c-.3 0-.6.1-.8.4-.4.4-.3 1-.2 1.6 0 .4 0 1.3-.2 2.2V39c0-2 0-2.8-.8-4.4-1.7-3.7-5.3-6-9.4-6ZM40 40c-.3 0-1-.7-1-1.2 0-.6.6-1 1.1-1 .2 0 .5 0 .7.3.6.7.4 1.1 0 1.5l-.7.4Zm-8.7 4.2Zm18.1-1 .1-.2v.2Zm-4 4.5c.7-.4 1.3-1 1.9-1.5l-.9 1-.2.4v.2a1 1 0 0 0-.5-.1h-.3Zm-11.5.4v-.3l.1-.5-.3-.3-.4-.4 1.6 1.2h-.1c-.4 0-.7 0-.9.3Zm3.7 1c0-.2-.2-.3-.4-.4a12 12 0 0 0 5 .2H42v.2h-4.4Z" class="cls-1"/></g></g></svg>