<svg xmlns="http://www.w3.org/2000/svg" id="Layer_2" viewBox="0 0 80 80" width="32" height="32"><defs><style>.cls-1{fill:#fff}</style></defs><g id="Layer_1-2"><path d="M5 1h70a4 4 0 0 1 4 4v70a4 4 0 0 1-4 4H5a4 4 0 0 1-4-4V5a4 4 0 0 1 4-4Z" style="fill:#da251d"/><path d="M75 2a3 3 0 0 1 3 3v70a3 3 0 0 1-3 3H5a3 3 0 0 1-3-3V5a3 3 0 0 1 3-3h70m0-2H5a5 5 0 0 0-5 5v70a5 5 0 0 0 5 5h70a5 5 0 0 0 5-5V5a5 5 0 0 0-5-5Z" class="cls-1"/><path d="M69.6 30.1v17.1h-8.8V21.4h8.8V17H56.4v12.7h-8.8a6.6 6.6 0 0 0-13 0H21.3v-9.6c0-1 .9-1.8.9-1.8H11.7s1 .9 1 1.8v9.6c-8.8 0-8.8 17.5 0 17.5H8.1v4.4h6.5a6.6 6.6 0 1 0 9 0h8.6a6.6 6.6 0 1 0 9 0h8.5a6.6 6.6 0 1 0 9 0h6.4V56h1a4.4 4.4 0 1 0 6.9 0h.9V30h-4.4Z" class="cls-1"/></g></svg>