<svg xmlns="http://www.w3.org/2000/svg" id="Layer_2" viewBox="0 0 100 80" width="40" height="32"><defs><style>.cls-1{fill:#fff}</style></defs><g id="Layer_1-2"><rect width="78" height="78" x="21" y="1" rx="4" ry="4" style="fill:#da251d"/><path d="M95 2a3 3 0 0 1 3 3v70a3 3 0 0 1-3 3H25a3 3 0 0 1-3-3V5a3 3 0 0 1 3-3h70m0-2H25a5 5 0 0 0-5 5v70a5 5 0 0 0 5 5h70a5 5 0 0 0 5-5V5a5 5 0 0 0-5-5Z" class="cls-1"/><rect width="60" height="10" x="30" y="58.8" class="cls-1" rx="3" ry="3"/><path d="M87.5 56.3a3 3 0 0 0-3-3h-49a3 3 0 0 0-3 3v1.5h55v-1.5ZM35 52.3h19.5v-9.5c0-2.5 2-4.5 4.5-4.5h2c2.5 0 4.5 2 4.5 4.5v9.5H85v-21H35v21ZM82 26.8H61v-9.6s1.4-1 2.5-1 2.5 1 2.5 1 1.4 1 2.5 1 2.5-1 2.5-1v-5s-1.4 1-2.5 1-2.5-1-2.5-1-1.4-1-2.5-1-2.5 1-2.5 1h-2v14.6H38a3 3 0 0 0-3 3v.4h50v-.4a3 3 0 0 0-3-3Z" class="cls-1"/><circle cx="20" cy="40" r="19" style="fill:#146eb4"/><path d="M20 22a18 18 0 1 1 0 36 18 18 0 0 1 0-36m0-2a20 20 0 1 0 0 40 20 20 0 0 0 0-40Z" class="cls-1"/><path d="m30 51.1 1.1-1c.2-.2.2-.5 0-.7L28 46.2 26.2 48l3.2 3.1c.2.2.5.2.7 0ZM27 44.3 24.3 47l-1 1v.7l.4.3c.2.2.5.2.7 0l1-1 2.6-2.6 1-1c.2-.2.2-.5 0-.7l-.3-.3a.5.5 0 0 0-.7 0l-1 1ZM8.9 50l1 1.1c.2.2.5.2.7 0l3.2-3.1-1.8-1.8L9 49.4c-.2.2-.2.5 0 .7ZM12.9 43.9l13.5-13.5L31 29l-1.4 4.6-13.5 13.5-3.2-3.2zM15.7 47 13 44.3l-1-1a.5.5 0 0 0-.7 0l-.3.4c-.2.2-.2.5 0 .7l1 1 2.6 2.6 1 1c.2.2.5.2.7 0l.3-.3c.2-.2.2-.6 0-.8l-1-1ZM19.7 36.8l-.9-.9-2.7-2.6-2.6-2.7-4.1-1.2 1.2 4.1 2.7 2.6 2.6 2.7.9.9 1.4-1.5 1.5-1.4zM20.4 43.2l.8.9 2.7 2.6 2.8-2.8-2.6-2.7-.9-.8-1.4 1.4-1.4 1.4z" class="cls-1"/></g></svg>