<svg xmlns="http://www.w3.org/2000/svg" id="Layer_2" viewBox="0 0 80 80" width="32" height="32"><defs><style>.cls-1{fill:#fff}</style></defs><g id="Layer_1-2"><rect width="78" height="78" x="1" y="1" rx="4" ry="4" style="fill:#da251d"/><path d="M75 2a3 3 0 0 1 3 3v70a3 3 0 0 1-3 3H5a3 3 0 0 1-3-3V5a3 3 0 0 1 3-3h70m0-2H5a5 5 0 0 0-5 5v70a5 5 0 0 0 5 5h70a5 5 0 0 0 5-5V5a5 5 0 0 0-5-5Z" class="cls-1"/><path d="M54.7 38.6 40 53.3s-6.4-3.6-10-5c-3.6-1.5-2.5-4-5-5l-3.4-1.6-6.6 6.5s7.5 4 10 5 1.4 3.6 5 5c3.6 1.5 10 5 10 5l25-25s-5.7.4-10.3.4Z" class="cls-1"/><path d="M40 51.8s-6.4-3.6-10-5-2.5-4-5-5-10-5-10-5l20-20s7.8 3.3 10 5 1.2 4.2 5 5 15 0 15 0l-25 25Z" class="cls-1"/><path d="M15 16.8h3l.2.3v.4l.1.1v.2l.2.3v.2l.7 2.2.2.8.2.6v.4l.2.2V22.8l.1.1v.2l.3.6v.3l.2.8.1.2v.3h.1l.2.6.2.6v.4l.3.6v.5l.2.1.1.7V29l.2.2.2.7.1.5.1-.2.2-.7V29.3h.1l.2-.7.2-.5V27.8l.1-.3.1-.2v-.1l.2-.7.1-.4.1-.2v-.1l.1-.2.2-.7.2-.5V24l.2-.7.1-.2V22.9l.2-.2c0-.3 0-.5.2-.7v-.4l.1-.2.1-.3V21l.4-1 .2-.7v-.4l.5-1.1.1-.5v-.4h3.2v.3l-.2.4-.2.7v.4l-.2.3-.1.3-.2.8-.1.4-.2.7-.1.3-.1.4v.1l-.1.1-.1.4-.1.3v.1l-.2.4v.2l-.3.9-.1.3c0 .4-.2.7-.3 1v.4l-.1.2-.3.8v.2l-.3.8-.1.6-.1.2v.1l-.1.3-.3.8v.3l-.1.2v.3l-.2.1c0 .3 0 .6-.2.8l-.5 1.8-.1.4v.2l-.3.6h-3.8l-.1-.6a1 1 0 0 1-.2-.4v-.2l-.2-.6-.1-.4-.1-.3V32l-.1-.3-.1-.3-.1-.3-.2-.8-.2-.3v-.5c-.2-.3-.3-.7-.3-1l-.3-.8v-.2l-.3-.5v-.2l-.2-.8V26l-.2-.4v-.4l-.4-.8v-.4l-.2-.3v-.1l-.1-.4v-.3l-.1-.3-.1-.2-.2-.6-.2-.4V21l-.1-.3-.1-.2V20l-.1-.2-.1-.3-.3-.7V18.6l-.2-.5v-.5l-.3-.8Z" style="stroke:#da251d;stroke-miterlimit:10;fill:#fff"/></g></svg>