<svg xmlns="http://www.w3.org/2000/svg" id="Layer_2" viewBox="0 0 80 80" width="32" height="32"><defs><style>.cls-1,.cls-2{fill:#fff}.cls-2{stroke:#da251d;stroke-miterlimit:10}</style></defs><g id="Layer_1-2"><path d="M5 1h70a4 4 0 0 1 4 4v70a4 4 0 0 1-4 4H5a4 4 0 0 1-4-4V5a4 4 0 0 1 4-4Z" style="fill:#da251d"/><path d="M75 2a3 3 0 0 1 3 3v70a3 3 0 0 1-3 3H5a3 3 0 0 1-3-3V5a3 3 0 0 1 3-3h70m0-2H5a5 5 0 0 0-5 5v70a5 5 0 0 0 5 5h70a5 5 0 0 0 5-5V5a5 5 0 0 0-5-5Z" class="cls-1"/><path d="M54.7 38.6 40 53.3s-6.4-3.6-10-5c-3.6-1.5-2.5-4-5-5l-3.4-1.6-6.6 6.5s7.5 4 10 5 1.4 3.6 5 5c3.6 1.5 10 5 10 5l25-25s-5.7.4-10.3.4Z" class="cls-1"/><path d="M40 51.8s-6.4-3.6-10-5-2.5-4-5-5-10-5-10-5l20-20s7.8 3.3 10 5 1.2 4.2 5 5 15 0 15 0l-25 25Z" class="cls-1"/><path d="M15 16.8h3.1v17.9H15zM24.2 16.8h3.1v17.9h-3.1zM33.5 16.8h3.1v17.9h-3.1z" class="cls-2"/></g></svg>