<svg xmlns="http://www.w3.org/2000/svg" id="Layer_2" viewBox="0 0 80 80" width="32" height="32"><defs><style>.cls-1{fill:#fff}.cls-2{fill:#da251d}</style></defs><g id="Layer_1-2"><rect width="78" height="78" x="1" y="1" class="cls-2" rx="4" ry="4"/><path d="M75 2a3 3 0 0 1 3 3v70a3 3 0 0 1-3 3H5a3 3 0 0 1-3-3V5a3 3 0 0 1 3-3h70m0-2H5a5 5 0 0 0-5 5v70a5 5 0 0 0 5 5h70a5 5 0 0 0 5-5V5a5 5 0 0 0-5-5Z" class="cls-1"/><path d="M39.5 68.8s-7.6-4.2-11.9-6a7.2 7.2 0 0 1-4.1-4c-.5-.9-.8-1.5-1.9-2-3-1.2-11.7-5.8-12-6l-1.3-.6 9.4-9.4.7.3c1.8 1 3.2 1.5 4 1.9 1.7.7 2.3 2 2.9 3 .5 1 1 2.1 3 3 3.7 1.5 9.6 4.6 11.5 5.7l17.4-17.4h1.5C64 37.3 70 37 70 37l2.7-.2-32.4 32.4-.7-.3Z" class="cls-1"/><path d="m70 37.9-30 30s-7.7-4.2-12-6c-4.3-1.8-3-4.7-6-6-3-1.3-12-6-12-6l8-8 4 2c3 1.3 1.7 4.2 6 6 4.3 1.8 12 6 12 6l17.6-17.6h1.1C64 38.3 70 38 70 38m5.2-2.4-5.3.4c-.1 0-6 .4-11.2.4h-2l-.5.6-16.6 16.5c-2.4-1.3-7.5-4-10.8-5.4-1.7-.7-2.1-1.4-2.6-2.5a6.3 6.3 0 0 0-3.4-3.5l-4-1.8-1.3-.7-1 1-8 8-1.8 1.9L9 51.7c.3.2 9 4.7 12.1 6 .7.3.9.6 1.4 1.6.7 1.3 1.6 3.2 4.6 4.4 4.2 1.8 11.8 5.9 11.8 6l1.3.7 1.1-1.1 30-30 3.8-3.8Z" class="cls-2"/><path d="M39.5 55s-7.6-4.2-11.9-6a7.2 7.2 0 0 1-4.1-4c-.5-.9-.8-1.5-1.9-2-3-1.2-11.7-5.8-12-6l-1.3-.6 25.5-25.5.6.3c.4.2 9.4 4.1 12.2 6 1.3 1 1.8 2.1 2.2 3.1.7 1.4 1.1 2.3 3.4 2.8 1.3.3 3.5.4 6.5.4 5.2 0 11.2-.4 11.2-.4l2.7-.2-32.4 32.4-.7-.3Z" class="cls-1"/><path d="M34 12.1s9.3 4 12 6 1.4 5 6 6c1.5.3 4 .4 6.7.4 5.3 0 11.3-.4 11.3-.4l-30 30s-7.7-4.2-12-6-3-4.7-6-6c-3-1.3-12-6-12-6l24-24m-.5-2.4-1 1-24 24-1.8 1.9L9 37.9c.3.2 9 4.8 12.1 6 .7.3 1 .6 1.4 1.6.7 1.4 1.6 3.2 4.6 4.4 4.2 1.8 11.8 6 11.8 6l1.4.7 1-1 30-30 3.8-3.9-5.3.4c-.1 0-6 .4-11.2.4-3.7 0-5.5-.2-6.3-.4-1.8-.3-2-1-2.6-2.2-.5-1-1.1-2.4-2.6-3.4-2.8-2-11.4-5.8-12.4-6.2l-1.2-.6Z" class="cls-2"/><path d="M24.1 63.7v-8.4l1-.7 2.4-1.3.3-.4.5-.2 1.2-.7.3-.3.7-.5.2-.3.3-.1.5-.3.4-.3.1-.1.3-.1.3-.2.1-.3.8-.4.1-.3.5-.2 1.4-1.1.4-.4.6-.4.4-.4h.1l.1-.3h.2l1.2-1.2.1-.1h.1C43.6 41 46 36.8 46 32c0-1.4-.1-2.7-.5-4.2l-.6-.9a7.7 7.7 0 0 0-4.8-1.8c-1 0-2 .2-3 .7-2.4 1.2-3.6 3-3.6 5.9l.2 2 .2 1.1h-9.6V34l-.1-.7v-.7c0-9.7 4.9-15.2 14.5-16.3h.9c9.4 0 14.8 4.4 16.1 13.2a21.5 21.5 0 0 1 .3 3.1c0 2.2-.4 4.3-1.1 6.4l-.3.4v.2l-.5 1.2-.3.3-1 2-.4.2v.2l-.4.5-.2.3-.3.3-1 1-.2.2v.1l-.1.1c-.9 1-1.6 1.8-2.3 2.3l-.3.4-.3.2-.3.4-1.4 1.4-.3.1c-.4.5-.8.8-1.1 1l-.9.7a4 4 0 0 1-1 .8l-.3.4-.4.2-.2.2-.2.3-.7.3H56v9H24Z" class="cls-1"/><path d="M39.5 17.3c9 0 14 4.1 15.2 12.3a20.3 20.3 0 0 1 .2 3c0 2.1-.3 4.1-1 6l-.3.4v.3l-.4 1-.3.2-1 2-.4.2v.4l-.3.3-.2.3-.3.3-1 1-.3.2v.2a13 13 0 0 1-2.3 2.2l-.2.4-.4.2c0 .2-.1.2-.2.2L45 50h-.4a4 4 0 0 1-1.1 1.1c-.3.4-.6.6-.8.7-.4.4-.7.7-1.1.8l-.2.4-.4.1c0 .2-.2.2-.3.2l-.3.4-1 .6a41 41 0 0 1-2 1.5H55v7H25v-7l.5-.3 2.5-1.3.3-.4.5-.2a4 4 0 0 1 1.2-.7l.3-.4.7-.4.2-.3h.3l.5-.5.4-.3.3-.1.4-.2.2-.4.8-.5.2-.2.2-.1 1.5-1.2.4-.3.7-.5.2-.2.2-.1.3-.4c.6-.4 1-.9 1.4-1.3 5-3.7 7.6-8.2 7.6-13.3 0-1.5-.2-3-.6-4.6l-.8-1.2a8.7 8.7 0 0 0-5.5-2.2c-1.1 0-2.3.3-3.5 1-2.7 1.2-4 3.5-4 6.7l.1 2.1h-7.5V32.6c0-9.1 4.5-14.2 13.6-15.3h.8m0-2h-1C28.4 16.5 23 22.5 23 32.6V34l.2 1.8h11.6l-.3-2.3-.2-1.8c0-2.5 1-4 3-5 .9-.4 1.8-.6 2.6-.6 1.3 0 2.7.5 4 1.5l.5.7c.3 1.2.4 2.5.4 3.7 0 4.5-2.2 8.4-6.8 11.7l-.2.2-.1.1-1.1 1-.3.2-.1.3c-.2 0-.3.2-.5.4l-.4.2-.2.1-.1.2-.3.3-1.3 1-.6.3-.2.2-.2.2-.5.2-.2.4h-.3l-.3.3-.3.3-.4.2-.3.2-.3.3-.6.4-.2.1-.1.2-1.2.7-.3.2-.3.1-.2.3-.1.1-2.2 1.1-.2.1v.1l-.6.4-.8.6v9.9H57v-11H43.4c.2 0 .3-.2.5-.3l.8-.8c.4-.2.7-.5 1-.9h.4l.3-.4 1.1-1.3.4-.3.4-.2.2-.4c.7-.6 1.5-1.4 2.3-2.4l.1-.2.2-.2.9-.8.2-.1.1-.2.2-.2v-.1l.2-.2v-.1l.3-.4.1-.1.3-.2.2-.4 1-1.8.2-.3.2-.4.3-1v-.1l.2-.1.1-.2v-.3a19.4 19.4 0 0 0 1-10c-1.3-9.1-7.3-14-17.1-14Z" class="cls-2"/></g></svg>