<svg xmlns="http://www.w3.org/2000/svg" id="Layer_2" viewBox="0 0 80 80" width="32" height="32"><defs><style>.cls-1{fill:#fff}.cls-2{fill:#da251d}</style></defs><g id="Layer_1-2"><rect width="78" height="78" x="1" y="1" class="cls-2" rx="4" ry="4"/><path d="M75 2a3 3 0 0 1 3 3v70a3 3 0 0 1-3 3H5a3 3 0 0 1-3-3V5a3 3 0 0 1 3-3h70m0-2H5a5 5 0 0 0-5 5v70a5 5 0 0 0 5 5h70a5 5 0 0 0 5-5V5a5 5 0 0 0-5-5Z" class="cls-1"/><path d="M39.5 68.8s-7.6-4.2-11.9-6a7.2 7.2 0 0 1-4.1-4c-.5-.9-.8-1.5-1.9-2-3-1.2-11.7-5.8-12-6l-1.3-.6 9.4-9.4.7.3c1.8 1 3.2 1.5 4 1.9 1.7.7 2.3 2 2.9 3 .5 1 1 2.1 3 3 3.7 1.5 9.6 4.6 11.5 5.7l17.4-17.4h1.5C64 37.3 70 37 70 37l2.7-.2-32.4 32.4-.7-.3Z" class="cls-1"/><path d="m70 37.9-30 30s-7.7-4.2-12-6c-4.3-1.8-3-4.7-6-6-3-1.3-12-6-12-6l8-8 4 2c3 1.3 1.7 4.2 6 6 4.3 1.8 12 6 12 6l17.6-17.6h1.1C64 38.3 70 38 70 38m5.2-2.4-5.3.4c-.1 0-6 .4-11.2.4h-2l-.5.6-16.6 16.5c-2.4-1.3-7.5-4-10.8-5.4-1.7-.7-2.1-1.4-2.6-2.5a6.3 6.3 0 0 0-3.4-3.5l-4-1.8-1.3-.7-1 1-8 8-1.8 1.9L9 51.7c.3.2 9 4.7 12.1 6 .7.3.9.6 1.4 1.6.7 1.3 1.6 3.2 4.6 4.4 4.2 1.8 11.8 5.9 11.8 6l1.3.7 1.1-1.1 30-30 3.8-3.8Z" class="cls-2"/><path d="M39.5 55s-7.6-4.2-11.9-6a7.2 7.2 0 0 1-4.1-4c-.5-.9-.8-1.5-1.9-2-3-1.2-11.7-5.8-12-6l-1.3-.6 25.5-25.5.6.3c.4.2 9.4 4.1 12.2 6 1.3 1 1.8 2.1 2.2 3.1.7 1.4 1.1 2.3 3.4 2.8 1.3.3 3.5.4 6.5.4 5.2 0 11.2-.4 11.2-.4l2.7-.2-32.4 32.4-.7-.3Z" class="cls-1"/><path d="M34 12.1s9.3 4 12 6 1.4 5 6 6c1.5.3 4 .4 6.7.4 5.3 0 11.3-.4 11.3-.4l-30 30s-7.7-4.2-12-6-3-4.7-6-6-12-6-12-6l24-24m-.5-2.4-1 1-24 24-1.8 1.9L9 37.9c.3.2 9 4.8 12.1 6 .7.3 1 .6 1.4 1.6.7 1.4 1.6 3.2 4.6 4.4 4.2 1.8 11.8 6 11.8 6l1.4.7 1-1 30-30 3.8-3.9-5.3.4c-.1 0-6 .4-11.2.4-3.7 0-5.5-.2-6.3-.4-1.8-.3-2-1-2.6-2.2-.5-1-1.1-2.4-2.6-3.4-2.8-2-11.4-5.8-12.4-6.2l-1.2-.6Z" class="cls-2"/><path d="M39.6 64c-1.5 0-3-.3-4.4-.6A15.6 15.6 0 0 1 24 53.8l-.2-.6-.4-1.5-.5-1.6 1.4-.4 2-.6.4-.2h.3l.4-.3h.8l.5-.2 1.8-.7 1.8-.2.2.9c1 4.4 3.5 6.5 7.5 6.5a9.4 9.4 0 0 0 1.8-.1c3.6-1.2 5.4-3.5 5.4-7l.1-1.6c0-1.9-.5-3.6-1.4-5a8 8 0 0 0-6-2.8h-1.4c-2.6.5-4.3 1.7-5.3 3.7l-.4.7-2.8-.5-.5-.1-.6-.1h-.1l-.4-.1-1.3-.3-.6-.2H26l-.8-.2-1.5-.1v-2l.1-.2v-.7a9 9 0 0 0 .4-1.8v-1l.2-.5v-.8l.2-.5v-.5l.1-.6v-.3l.2-1v-.4l.9-5.8.1-.4v-.6l.2-.3.2-1.7v-.5l.2-1.5c.3-1.2.5-2.2.5-3v-1h27.6V25H35.7v1l-.1.2v.8l-.1.1-.1.5-.1.6-.1.6-.3 1.9c2-.8 4-1.2 5.8-1.2s3.8.4 5.7 1.2c2 .8 3.7 1.9 5.1 3.2 1.4 1.2 2.5 2.8 3.4 4.7 1.3 3 2 5.7 2 8.3 0 1.6-.2 3.2-.7 4.8a15.9 15.9 0 0 1-6.7 9.6 20.7 20.7 0 0 1-9.9 2.6Z" class="cls-1"/><path d="M53.6 17v7H35.2l-.5.3V26c-.2.2-.2.4-.2.7v.2l-.1.7-.1.6-.1.5-.3 2v.9l-.2.8c2.4-1.2 4.8-1.8 7-1.8 1.8 0 3.5.3 5.3 1 1.9.9 3.5 1.9 4.8 3a18.8 18.8 0 0 1 5 12.3c0 1.6-.1 3.1-.6 4.6-1.1 4-3.2 7-6.3 9a19.5 19.5 0 0 1-13.5 2 14.6 14.6 0 0 1-10.6-9l-.1-.5c-.2-.5-.4-1-.4-1.4l-.2-.7.4-.1a7 7 0 0 1 2-.6l.4-.2h.3l.4-.3h.8c.1-.2.2-.2.4-.2l1.8-.7.9-.1c1.1 4.8 3.9 7.3 8.3 7.3h1l1-.2c4.2-1.3 6.2-4 6.3-8v-1.5c0-2.2-.5-4-1.5-5.7a9.1 9.1 0 0 0-8.4-3c-2.9.4-5 1.8-6 4.2l-2-.4-.7-.1-.6-.1-.4-.1-1.3-.3-.7-.2h-.3l-.9-.1-.6-.1v-1.8c.3-.8.4-1.4.4-2l.2-.9v-1.1c.2-.2.2-.4.2-.6l.1-.6.1-.6v-.4l.1-.8.2-.4.8-5.8.1-.5v-.5l.1-.2.3-1.9v-.4l.2-1.6c.3-1.2.5-2.2.5-3.1h25.6m2-2H26v2c0 .7-.2 1.6-.4 2.7V20l-.2 1.4v.3h-.1v.2l-.2 1.5-.2.4V24.8l-.1.1v.1l-.8 5.7v.2l-.1.1v.2l-.2.8v.9h-.1v.7l-.1.3-.1.3v.7l-.1.2v.2l-.2 1v.2c0 .2 0 .7-.3 1.5v.8l-.2.2v3.1l1.8.2h.7l.6.2h.5l.4.2H26.9l1.1.2.2.1h.2l.3.1a31.3 31.3 0 0 0 .8.1h.2l.1.1 2 .4 1.5.2.7-1.3c.8-1.8 2.3-2.8 4.5-3.1l.7-.1h.6c1.9 0 3.6.8 5.2 2.4a8.2 8.2 0 0 1 1.2 4.4l-.1 1.4v.2c0 3-1.6 5-4.7 6h-.8l-.8.1c-3.5 0-5.5-1.8-6.4-5.7l-.4-1.8-1.8.2-.9.2H30l-1.6.7-.6.1H27l-.4.3h-.3l-.5.3-2 .6-.2.1-2.1.5.7 2 .1.6c0 .5.2 1 .4 1.5l.1.4V54.2c2.2 5.3 6.3 8.7 12.1 10.2 1.5.4 3 .6 4.7.6 3.4 0 6.9-1 10.2-2.8h.2C53.4 60 55.9 56.6 57 52a18.5 18.5 0 0 0-1.4-13.8c-1-2-2-3.7-3.6-5a18.6 18.6 0 0 0-11.4-4.7c-1.5 0-3 .3-4.6.7V28.6l.1-.1v-.2l.1-.5v-.3l.2-.3V26h19V15Z" class="cls-2"/></g></svg>