<svg xmlns="http://www.w3.org/2000/svg" id="Layer_2" viewBox="0 0 80 80" width="32" height="32"><defs><style>.cls-1{fill:#fff}</style></defs><g id="Layer_1-2"><rect width="78" height="78" x="1" y="1" rx="4" ry="4" style="fill:#da251d"/><path d="M75 2a3 3 0 0 1 3 3v70a3 3 0 0 1-3 3H5a3 3 0 0 1-3-3V5a3 3 0 0 1 3-3h70m0-2H5a5 5 0 0 0-5 5v70a5 5 0 0 0 5 5h70a5 5 0 0 0 5-5V5a5 5 0 0 0-5-5Z" class="cls-1"/><path d="M63.5 10H36.8a2.8 2.8 0 0 0-2.8 2.8v3.6h-3.8a2.8 2.8 0 0 0-2.8 2.8v8.3h.8C24.2 40 13.7 57 13.7 60.8a7.9 7.9 0 0 0 15.7 0V27.4H34v35.1c0 1.5 1.2 2.8 2.8 2.8h-.5V70H64v-4.6h-.5c1.6 0 2.8-1.3 2.8-2.8V12.8c0-1.6-1.2-2.8-2.8-2.8ZM26 60.9a4.6 4.6 0 0 1-9.3 0c0-2.6 9.7-20.9 9.7-20.9L26 60.9Zm30.8-5.3h-2.9v-7.5h-7.3v7.5h-2.9V39.1h2.9v6.4h7.3v-6.4h2.9v16.5Zm3.2-25.9c0 2-1.7 3.7-3.7 3.7h-12c-2 0-3.7-1.7-3.7-3.7v-9.2c0-2 1.6-3.7 3.7-3.7h12c2 0 3.7 1.6 3.7 3.7v9.2Z" class="cls-1"/></g></svg>