<svg xmlns="http://www.w3.org/2000/svg" id="Layer_2" viewBox="0 0 80 80" width="32" height="32"><defs><style>.cls-1{fill:#fff}.cls-2{fill:#da251d}</style></defs><g id="Layer_1-2"><rect width="78" height="78" x="1" y="1" class="cls-2" rx="4" ry="4"/><path d="M75 2a3 3 0 0 1 3 3v70a3 3 0 0 1-3 3H5a3 3 0 0 1-3-3V5a3 3 0 0 1 3-3h70m0-2H5a5 5 0 0 0-5 5v70a5 5 0 0 0 5 5h70a5 5 0 0 0 5-5V5a5 5 0 0 0-5-5Z" class="cls-1"/><path d="M39.5 64.1s-6.4-3.5-9.9-5c-2.3-.9-3-2.2-3.5-3.3-.4-.8-.7-1.3-1.5-1.6-2.5-1-9.8-4.9-10-5l-1.3-.7 8.1-8 .7.3 3.3 1.5c1.5.6 2 1.7 2.5 2.6.5 1 .9 1.8 2.5 2.4 3 1.3 7.7 3.8 9.4 4.7l14.5-14.4h1.3c4.4 0 9.3-.3 9.3-.4l2.7-.1-27.4 27.4-.7-.4Z" class="cls-1"/><path d="m65 38.3-25 25s-6.4-3.6-10-5c-3.6-1.5-2.5-4-5-5s-10-5-10-5l6.6-6.6 3.4 1.5c2.5 1.1 1.4 3.6 5 5 3.6 1.5 10 5 10 5l14.7-14.6h.9c4.4 0 9.4-.4 9.4-.4m5.2-2.3-5.3.3s-5 .4-9.3.4h-1.8l-.6.6-13.6 13.6c-2-1.1-6.1-3.3-8.8-4.4-1.3-.5-1.6-1-2-2-.5-1-1.2-2.2-3-3l-3.3-1.6-1.3-.6-1 1-6.6 6.6-2 2 2.5 1.2c.3.2 7.5 4 10.1 5 .5.3.6.5 1 1.2a7.2 7.2 0 0 0 4 3.9A136 136 0 0 1 39 65l1.4.7 1-1 25-25 3.8-3.8Z" class="cls-2"/><path d="M39.5 52.6s-6.4-3.5-9.9-5c-2.3-.9-3-2.2-3.5-3.3-.4-.8-.7-1.3-1.5-1.6-2.5-1-9.8-4.9-10-5l-1.3-.7 21.5-21.4.6.2c.3.2 7.9 3.5 10.2 5.1 1 .8 1.5 1.8 2 2.6.4 1.2.8 1.9 2.6 2.3a149.7 149.7 0 0 0 14.7 0l2.7-.2L40.2 53l-.7-.4Z" class="cls-1"/><path d="M35 16.8s7.8 3.3 10 5 1.2 4.2 5 5a156.8 156.8 0 0 0 15 0l-25 25s-6.4-3.6-10-5-2.5-4-5-5-10-5-10-5l20-20m-.5-2.4-1 1-20 20-1.8 1.9 2.4 1.2c.3.2 7.5 4 10.1 5.1.5.2.6.4 1 1.1a7.2 7.2 0 0 0 4 3.9c3.5 1.4 9.8 4.9 9.8 5l1.4.6 1-1 25-25 3.8-3.8-5.3.4s-5 .3-9.3.3c-3 0-4.5-.2-5.2-.3-1.3-.3-1.5-.6-2-1.7-.4-.8-1-2-2.2-3A87.4 87.4 0 0 0 35.8 15l-1.2-.5Z" class="cls-2"/><path d="M43.6 63.4v-8.5H20.2v-9.5l.4-.8.3-.1 1.1-1.4.2-.5.4-.2a4.1 4.1 0 0 1 .8-1.2l.2-.3.2-.2.1-.3h.1l.6-.7v-.2l.3-.3.8-1 .3-.4.2-.2.1-.2.2-.3.5-.5a11 11 0 0 1 1.5-2l.5-.7.5-.6.3-.6h.2l.1-.4.3-.2 1.3-1.6.5-.7.4-.5.9-1v-.4l.3-.2c.3-.3.6-.6.7-1l.4-.6.3-.1c.2-.4.5-.8.8-1l.3-.6.6-.7.3-.2c.2-.5.5-.9.8-1.2l.2-.2.2-.5 1-1.1.2-.5.4-.2v-.3l.6-.5v-.2l.4-.3a12.5 12.5 0 0 1 1.2-1.5l.3-.4h10.9V46h6.3v9h-6.3v8.4h-9.9Zm0-17.4V29.7l-.3.7-.1.1c-.4.3-.4.5-.4.5l-.1.1-.6.6-.3.7-.7.6-1.5 2.1-.2.1c-.3.6-.7 1.1-1.2 1.5v.2l-1 1.4-.3.2-1.4 1.9-1.3 1.6-.4.7-.4.4-.2.3-.3.5-.3.4-.3.3-1 1.2-.1.2h12.5Z" class="cls-1"/><path d="M52.4 17.6V47h6.4v7h-6.4v8.4h-7.8v-8.5H21.2v-8.3l.2-.2.2-.1c.4-.7.8-1.3 1.3-1.7l.1-.3.4-.2c0-.3.2-.5.3-.7l.5-.5.2-.4.2-.2.2-.2.7-1 .2-.2.8-1 .2-.4.3-.2.2-.4.1-.2.5-.5a10 10 0 0 1 1.5-1.8l.5-.9.6-.6.2-.4.2-.1.2-.4.2-.1.1-.2 1.2-1.6.4-.7.5-.4c.3-.5.6-.9 1-1.2v-.4a5 5 0 0 0 1-1.1l.2-.4.3-.1c.3-.5.6-1 1-1.2l.3-.6.4-.5.4-.4c.2-.4.5-.8.8-1l.2-.4.3-.5 1-1.1.1-.4.4-.2.1-.4.5-.4v-.3l.3-.2.6-.9.6-.6h9.5M29 47h15.5V26.9l-.5.6c-.4.6-.7 1.1-1.2 1.5l-.5.8a4 4 0 0 0-.6.7l-.6.6-.3.7-.6.6-1.4 2h-.2l-1.3 1.7-.2.3-.9 1.3-.2.2-1.4 1.9-1.3 1.6-.5.7-.3.3-.3.4-.3.5-.3.3-.2.3-1.2 1.4v.2L29 47m25.3-31.4H42l-.6.7-.6.7-.6.9-.3.3-.1.2-.3.3-.3.3v.1l-.4.3-.2.6-.8.8-.2.2v.3l-.3.3a5 5 0 0 0-.9 1.2l-.1.2h-.1l-.1.2-.5.5v.2h-.1l-.2.4-.8 1h-.2l-.3.5-.2.3-.1.2-.6.6-.3.4-.2.4-.7 1-.3.3-.2.1v.2l-.5.6-1 1.4-.5.2-.2.4-.3.6-.1.2-.4.4-.2.2-.1.2-.3.5a9.6 9.6 0 0 0-1.5 2l-.4.2-.2.3-.1.2-.1.2-.1.1-.2.2-.1.1-.2.3-.7 1h-.1l-.3.3-.1.3-.3.4-.3.2v.3l-.2.1-.1.2-.2.2a9.4 9.4 0 0 0-.8 1l-.5.3-.1.6c-.4.3-.7.7-1 1.2l-.3.1-.3.6-.1.3-.2.4v10.8h23.3v8.4h11.8V56h6.4v-11h-6.4V15.7ZM42 33.6l.4-.4.3-.2v-.2V45h-9.4.1l.1-.2.2-.3.4-.5.2-.3.2-.2.1-.1.1-.2.4-.6 1.3-1.6 1.3-1.8.2-.1V39l.2-.1.9-1.3.1-.2c.4-.4.8-.8 1-1.4h.3l.3-.5 1.3-1.8Z" class="cls-2"/></g></svg>