<svg xmlns="http://www.w3.org/2000/svg" id="Layer_2" viewBox="0 0 80 80" width="32" height="32"><defs><style>.cls-1{fill:#fff}.cls-2{fill:#da251d}</style></defs><g id="Layer_1-2"><rect width="78" height="78" x="1" y="1" class="cls-2" rx="4" ry="4"/><path d="M75 2a3 3 0 0 1 3 3v70a3 3 0 0 1-3 3H5a3 3 0 0 1-3-3V5a3 3 0 0 1 3-3h70m0-2H5a5 5 0 0 0-5 5v70a5 5 0 0 0 5 5h70a5 5 0 0 0 5-5V5a5 5 0 0 0-5-5Z" class="cls-1"/><path d="M39.5 68.8s-7.6-4.2-11.9-6a7.2 7.2 0 0 1-4.1-4c-.5-.9-.8-1.5-1.9-2-3-1.2-11.7-5.8-12-6l-1.3-.6 9.4-9.4.6.2c4.7 1.7 5.7 3 6.7 4.7.6 1 1.1 2 3.5 3.3a156 156 0 0 1 11.3 5.7l17.4-17.4h1.5C64 37.3 70 37 70 37l2.7-.2-32.4 32.4-.7-.3Z" class="cls-1"/><path d="m70 37.9-30 30s-7.7-4.2-12-6c-4.3-1.8-3-4.7-6-6-3-1.3-12-6-12-6l8-8c8.3 3 4 4.5 10 8 4.3 1.8 12 6 12 6l17.6-17.6h1.1C64 38.3 70 38 70 38m5.2-2.4-5.3.4c-.1 0-6 .4-11.2.4h-2l-.5.6-16.6 16.5c-2.3-1.3-7.4-4-10.7-5.3-2-1.2-2.5-2-3-2.9-1.1-1.9-2.3-3.3-7.3-5.1l-1.2-.4-.9.9-8 7.9-1.8 1.9L9 51.7c.3.2 9 4.8 12.1 6 .7.3 1 .6 1.4 1.6.7 1.4 1.6 3.2 4.6 4.4 4.2 1.8 11.8 5.9 11.8 6l1.4.7 1-1 30-30 3.8-3.9Z" class="cls-2"/><path d="M39.5 55s-7.6-4.2-11.9-6a7.2 7.2 0 0 1-4.1-4c-.5-.9-.8-1.5-1.9-2-3-1.2-11.7-5.8-12-6l-1.3-.6 25.5-25.5.6.3c10.6 4 13 7.2 14.7 9.4 1.4 2 2.1 3 9.4 3 2.7 0 6.4-.2 11.4-.5l2.7-.2-32.4 32.4-.7-.3Z" class="cls-1"/><path d="M34 12.1c20.8 7.7 9 12.5 24.4 12.5 2.9 0 6.6-.2 11.6-.5l-30 30s-7.7-4.2-12-6c-4.3-1.8-3-4.7-6-6-3-1.3-12-6-12-6l24-24m-.5-2.3-1 .9-24 24-1.8 1.9L9 37.9c.3.2 9 4.8 12.1 6 .7.3 1 .6 1.4 1.6.7 1.4 1.6 3.2 4.6 4.4 4.2 1.8 11.8 6 11.8 6l1.4.7 1-1 30-30 3.8-3.8-5.3.3c-5 .3-8.7.5-11.4.5-6.8 0-7.3-.8-8.6-2.6-1.7-2.3-4.3-5.7-15.2-9.8l-1.2-.4Z" class="cls-2"/><path d="M38.9 63.4V31.7h-7.5v-8H33l.5-.2h2.9l1.5-.3.8-.5a8 8 0 0 0 1.3-4.2v-.8l-.2-1h8.7v46.7H39Z" class="cls-1"/><path d="M47.6 17.6v44.8H40V30.7h-7.5v-6h.8l.5-.2h2.9c.8-.3 1.4-.3 1.8-.3.3-.3.7-.5 1-.6a9 9 0 0 0 1.7-5.1v-.9h6.5m2-2H38.8l.3 2.3v.6c0 1.1-.3 2.3-1 3.5l-.4.2-1.3.2h-1.2l-.4.1H33.2l-.2.1h-2.6v10.1h7.5v31.7h11.7V15.6Z" class="cls-2"/></g></svg>