<svg xmlns="http://www.w3.org/2000/svg" id="Layer_2" viewBox="0 0 80 80" width="32" height="32">
  <defs>
    <style>
      .cls-1{fill:#fff}
    </style>
  </defs>
  <g id="Layer_1-2">
    <rect width="78" height="78" x="1" y="1" rx="4" ry="4" style="fill:#da251d"/>
    <path d="M75 2a3 3 0 0 1 3 3v70a3 3 0 0 1-3 3H5a3 3 0 0 1-3-3V5a3 3 0 0 1 3-3h70m0-2H5a5 5 0 0 0-5 5v70a5 5 0 0 0 5 5h70a5 5 0 0 0 5-5V5a5 5 0 0 0-5-5Z" class="cls-1"/>
    <path d="M72.5 63.6v-2.9h-8.9L50.3 50.3v-1.4h-5.9V37.1h23.7V7.5H11.9v29.6h23.7v11.8h-5.9v1.4L16.4 60.7H7.5v2.9H9v1.5H7.5v7.4h65v-7.4H71v-1.5h1.5z" class="cls-1"/>
  </g>
</svg>
