<svg xmlns="http://www.w3.org/2000/svg" id="Layer_2" viewBox="0 0 80 80" width="32" height="32">
  <defs>
    <style>
      .cls-1{fill:#fff}
    </style>
  </defs>
  <g id="Layer_1-2">
    <rect width="78" height="78" x="1" y="1" fill="#da251d" rx="4" ry="4"/>
    <path d="M75 2a3 3 0 0 1 3 3v70a3 3 0 0 1-3 3H5a3 3 0 0 1-3-3V5a3 3 0 0 1 3-3h70m0-2H5a5 5 0 0 0-5 5v70a5 5 0 0 0 5 5h70a5 5 0 0 0 5-5V5a5 5 0 0 0-5-5Z" class="cls-1"/>
    <path d="M24.2 50.7c12.4-.5 24.7-1.5 36.7-5l-1.2 7L57.5 65c-.3 2.1-.4 2.3-2.4 2.9-4.5 1.1-8.8 2.4-13.3 3.4-3.2.7-6.5 1-9.7 1.6l-5.4.7-2.5-22.8ZM26 48c-2 .3-1.8.3-1.7-1.6.3-3.2.9-6.3 2.1-9.2 1.5-3.5 3.7-6.5 7.7-7.6l4.4-.7 8.9-1.1c5.6-.8 8.8.7 11.8 6.2 1.4 2.5 2 5.3 2 8.2 0 .3-.5 1-.9 1-4 1-7.9 2.2-12 2.9-4.3.7-8.7 1.1-13 1.6a26 26 0 0 1-4 .3H26Z" class="cls-1"/>
    <path d="M31.5 23.4c-.3 1.6.7 2 1.5 2.1h12c.7 0 1.3-.4 2-.7l4 2.3-4.5.4-11.1 1.2c-4.9.8-8 4-9.5 8.4-1.2 3.4-1.8 7-2.7 10.4-1.8-1.3-3.8-2.7-5.7-4.3-.2-.1-.3-.6-.2-1 .5-7.7 3.7-13.8 11-17.3l3.2-1.5ZM32 12c4.9 1 9.7 1 14.7.3v8.1c0 .3-.7.8-1.1.9-3.5.6-7 1-10.4.3l-3.2-.8V12Zm-6.1 60.6c-1.5-1.4-3.1-2.8-4.3-4.4-.7-.8-.8-2.1-1-3.3l-2.4-14.5-.8-4.3c1.7 1.3 3 2.6 4.6 3.4 2 1.1 1.8 3 2 4.8l2.2 18.2-.3.1Z" class="cls-1"/>
    <path d="M32.1 11.4c2.8-5.2 11.5-5.3 14.7.4-5 .7-9.7.7-14.7-.4Zm1.3 11.2h12L44 23.8c-3.3.7-6.7.7-10-.2-.8-.2-1-.5-.7-1Z" class="cls-1"/>
  </g>
</svg>
