<svg xmlns="http://www.w3.org/2000/svg" id="Layer_2" viewBox="0 0 80 80" width="32" height="32"><defs><style>.cls-1{fill:#fff}</style></defs><g id="Layer_1-2"><rect width="78" height="78" x="1" y="1" rx="4" ry="4" style="fill:#da251d"/><path d="M75 2a3 3 0 0 1 3 3v70a3 3 0 0 1-3 3H5a3 3 0 0 1-3-3V5a3 3 0 0 1 3-3h70m0-2H5a5 5 0 0 0-5 5v70a5 5 0 0 0 5 5h70a5 5 0 0 0 5-5V5a5 5 0 0 0-5-5Z" class="cls-1"/><path d="M42.1 47.8c-6.7 3.7-13.3 7.4-19.7 11.6-3.1 1.9-4.7 1.4-6.5-2.1-1.3-2.6-1.3-4 2-5.7a963.6 963.6 0 0 0 49-30.1h-.2l5.5 6.9c-10.5 6-19.8 13.3-30 19.4ZM67.5 17.8C52 27.3 36.3 36.3 21 46c-4.5 2.8-8.9 2.9-14.4 2.4C22.1 38.2 38.4 29.8 54 19.8c4.2-2.6 8.6-2.5 13.5-2Z" class="cls-1"/><path d="M42.1 47.8C45 47 65.5 32 74.4 29.7L22.2 62.2l-.7-.8c6.7-4.7 13.6-9.2 20.5-13.6ZM5.6 50.2h10c-3 4.9-1.3 9.4 5 12.3H10.1c1-5.2-.5-9-4.6-12.3ZM66.8 21.5c-12.5 6.3-45.4 27.1-49 29l-.6-1 52.9-32 .4.6-3.8 3.5.1-.1Z" class="cls-1"/></g></svg>