<svg xmlns="http://www.w3.org/2000/svg" id="Layer_2" viewBox="0 0 100 80" width="40" height="32"><defs><style>.cls-1{fill:#fff}</style></defs><g id="Layer_1-2"><rect width="78" height="78" x="21" y="1" rx="4" ry="4" style="fill:#7a4501"/><path d="M95 2a3 3 0 0 1 3 3v70a3 3 0 0 1-3 3H25a3 3 0 0 1-3-3V5a3 3 0 0 1 3-3h70m0-2H25a5 5 0 0 0-5 5v70a5 5 0 0 0 5 5h70a5 5 0 0 0 5-5V5a5 5 0 0 0-5-5Z" class="cls-1"/><path d="m40.5 43-2.5.7-1.3-.6h.1l-1.3-.7v.1l-.6-.7-1.3-.6h.1l-1.3-.6-1-1.1C47 31.2 62.8 23.2 78.6 15l7.8 3.6-2.4 2.2v-.1l-1.3.7h.1l-1.3.6-1.3.6h.2l-1.4.7.1-.1-1.4.7.2-.1-1.4.7h.1l-1.3.6-1.3.7.1-.1-1.3.7v-.1l-1.3.7h.1l-1.3.6-1.9 1.3.1-.1-1.3.7-1.3.6h.2l-1.4.7.1-.1-1.4.7.2-.1-1.4.7.1-.1-1.4.7h.2l-1.4.6h.1l-1.3.7v-.1l-1.3.7.1-.1-1.3.7V35L53 37v-.1l-1.3.7.1-.1-1.3.7h.1l-1.4.6h.2l-1.4.6h.1l-1.4.7.2-.1-1.4.7.1-.1-1.4.7h.2l-1.4.6h.1l-1.3.6-1.3.7.1-.1ZM39.9 64.3l-.9-5.4 48.3-26.3 1.4 6.3L41 65l-1.1-.8v.1z" class="cls-1"/><path d="m84 20.8 3.2-1.4.7 5.7-47.7 25a8.4 8.4 0 0 1-1-5.4l1.3-1.6 1.3-.7-.1.1 1.3-.7 1.3-.6h-.1l1.3-.6 1.3-.7-.1.1 1.3-.7v.1l1.3-.7-.1.1 1.3-.7h-.1l1.4-.6h-.2L53 37H53l3.2-2-.1.1 1.3-.6 1.3-.7-.1.1 1.3-.7v.1l1.3-.7H61l1.3-.6 1.3-.6h-.1l1.3-.7v.1L66 30l-.1.1 1.3-.7 1.3-.6h-.1l2-1.3h-.2l1.4-.6h-.2l1.4-.6h-.1l1.4-.7-.2.1 1.4-.7-.1.1 1.3-.7 1.3-.6h-.1l1.3-.6 1.3-.7-.1.1 1.3-.7-.1.1 1.4-.7h-.2l1.4-.6ZM35.6 61c-2-.7-1.1-2.8-2.2-4.4l47-25.7c.5 1.6.6 2 .8 3.7l-43 23.5-1.5 2.5.1-.1-1.3.7V61ZM35.5 43.7c-.4 1.4-1.5 1.7-3 1.9l-.4-3.3 2.2.8 1.3.7-.1-.1Z" class="cls-1"/><path d="m36.8 60.6 1-.2.9 2.6h-1.3.1l-1.4-.7.1.1-.6-1.3-.1.1 1.3-.7v.1zM34.3 43.2l-.6-1.4-.1.1H35l-.1-.1.7.7-.1-.1v.7h.1-1.4l.1.1zM38 43.7l.3 1.4-1.5-1.4-.1.1h1.4l-.1-.1zM32.4 41.2l-1 .1-.1-.5 1.2-.1-.1-.1v.7-.1z" class="cls-1"/><path d="m33.7 41.8-1.3-.6v.1h1.3l-.1-.1v.7l.1-.1zM36.8 43.7h-1.3l.1.1v-.7h-.1 1.3-.1v.7l.1-.1zM34.9 62.4h1.3l-.1-.1v.7h.1l-1.2-.6h-.1zM37.4 63.6l-1.2-.6h-.1 1.4-.1v.6zM37.4 63.6l1.2.7.1-.1-1.3-.6z" class="cls-1"/><path d="M38.6 64.3H40v-.1c-.4.6-.8 1.1-1.2 0h-.1ZM35 62.4l-.3-.1.2.1h.1z" class="cls-1"/><circle cx="20" cy="40" r="19" style="fill:#da251d"/><path d="M20 22a18 18 0 1 1 0 36 18 18 0 0 1 0-36m0-2a20 20 0 1 0 0 40 20 20 0 0 0 0-40Z" class="cls-1"/><path d="M27.3 40.7v-5.5c0-3.9-3.3-7-7.3-7s-7.3 3.1-7.3 7v5.5c-1 .3-1.7 1.1-1.7 2.1v6.8c0 1.2 1 2.2 2.4 2.2h13.2c1.3 0 2.4-1 2.4-2.2v-6.8c0-1-.7-1.8-1.7-2.1ZM16 35.3c0-2.3 1.8-4.2 4.1-4.2s4 1.9 4 4.2v5.3h-8v-5.3ZM21 46v1.8c0 .3-.2.6-.6.6h-.6c-.4 0-.6-.3-.6-.6V46c-.4-.2-.7-.7-.7-1.2 0-.8.7-1.4 1.6-1.4s1.6.6 1.6 1.4c0 .5-.3 1-.6 1.2Z" class="cls-1"/></g></svg>