<svg xmlns="http://www.w3.org/2000/svg" id="Layer_2" viewBox="0 0 100 80" width="40" height="32"><defs><style>.cls-1{fill:#fff}</style></defs><g id="Layer_1-2"><rect width="78" height="78" x="21" y="1" rx="4" ry="4" style="fill:#7a4501"/><path d="M95 2a3 3 0 0 1 3 3v70a3 3 0 0 1-3 3H25a3 3 0 0 1-3-3V5a3 3 0 0 1 3-3h70m0-2H25a5 5 0 0 0-5 5v70a5 5 0 0 0 5 5h70a5 5 0 0 0 5-5V5a5 5 0 0 0-5-5Z" class="cls-1"/><path d="M78 16.6c-1.4-1.5-3.4-2-4.3-1.2L32.4 42.8c1-.5 2.7 0 4 1.4 1.4 1.6 1.8 3.6.8 4.5l41.2-27.3c.2 0 .3-.1.5-.3 1-.9.6-2.9-.9-4.4Z" class="cls-1"/><ellipse cx="34.3" cy="46.1" class="cls-1" rx="2.2" ry="3.5" transform="rotate(-42.9 34.3 46)"/><path d="M92 25c-1.5-1.6-3.4-2.2-4.4-1.2L46.4 51c1-.5 2.7 0 3.9 1.4 1.4 1.6 1.8 3.6.9 4.5l41.2-27.3.4-.3c1-.9.6-2.9-.8-4.4Z" class="cls-1"/><ellipse cx="48.2" cy="54.4" class="cls-1" rx="2.2" ry="3.5" transform="rotate(-42.9 48.2 54.4)"/><path d="m45.5 55.9-.1-.2c-1.4-1.5-1.8-3.5-.8-4.4l.4-.3 28.3-18.7c-1.4-1.4-3.3-2-4.2-1L27.9 58.5c1-.5 2.7.1 3.9 1.4 1.4 1.6 1.8 3.6.8 4.5l13-8.5Z" class="cls-1"/><ellipse cx="29.6" cy="62" class="cls-1" rx="2.2" ry="3.5" transform="rotate(-42.9 29.5 62)"/><circle cx="20" cy="40" r="19" style="fill:#da251d"/><path d="M20 22a18 18 0 1 1 0 36 18 18 0 0 1 0-36m0-2a20 20 0 1 0 0 40 20 20 0 0 0 0-40Z" class="cls-1"/><path d="M27.3 40.7v-5.5c0-3.9-3.3-7-7.3-7s-7.3 3.1-7.3 7v5.5c-1 .3-1.7 1.1-1.7 2.1v6.8c0 1.2 1 2.2 2.4 2.2h13.2c1.3 0 2.4-1 2.4-2.2v-6.8c0-1-.7-1.8-1.7-2.1ZM16 35.3c0-2.3 1.8-4.2 4.1-4.2s4 1.9 4 4.2v5.3h-8v-5.3ZM21 46v1.8c0 .3-.2.6-.6.6h-.6c-.4 0-.6-.3-.6-.6V46c-.4-.2-.7-.7-.7-1.2 0-.8.7-1.4 1.6-1.4s1.6.6 1.6 1.4c0 .5-.3 1-.6 1.2Z" class="cls-1"/></g></svg>