<svg xmlns="http://www.w3.org/2000/svg" id="Layer_2" viewBox="0 0 100 80" width="40" height="32"><defs><style>.cls-1{fill:#fff}.cls-2{fill:#7a4501}</style></defs><g id="Layer_1-2"><path d="M25 79a4 4 0 0 1-4-4V5a4 4 0 0 1 4-4h70a4 4 0 0 1 4 4v70a4 4 0 0 1-4 4H25Z" class="cls-2"/><path d="M95 2a3 3 0 0 1 3 3v70a3 3 0 0 1-3 3H25a3 3 0 0 1-3-3V5a3 3 0 0 1 3-3h70m0-2H25a5 5 0 0 0-5 5v70a5 5 0 0 0 5 5h70a5 5 0 0 0 5-5V5a5 5 0 0 0-5-5Z" class="cls-1"/><path d="M74.7 38.6 60 53.3s-6.4-3.6-10-5c-5-3-1.4-4.1-8.4-6.6L35 48.1s7.5 4 10 5 1.4 3.6 5 5c3.6 1.5 10 5 10 5l25-25s-5.7.4-10.3.4Z" class="cls-1"/><path d="M60 51.8s-6.4-3.6-10-5-2.5-4-5-5-10-5-10-5l20-20c20.5 7.6 3 11.7 30 10l-25 25Z" class="cls-1"/><path d="M34.5 16.3h4.1v18.9h-4.1z" class="cls-1"/><path d="M38.1 16.8v17.9h-3v-18h3m1-1h-5v20h5v-20Z" class="cls-2"/><circle cx="20" cy="40" r="19" style="fill:#da251d"/><path d="M20 22a18 18 0 1 1 0 36 18 18 0 0 1 0-36m0-2a20 20 0 1 0 0 40 20 20 0 0 0 0-40Z" class="cls-1"/><path d="M27.3 40.7v-5.5c0-3.9-3.3-7-7.3-7s-7.3 3.1-7.3 7v5.5c-1 .3-1.7 1.1-1.7 2.1v6.8c0 1.2 1 2.2 2.4 2.2h13.2c1.3 0 2.4-1 2.4-2.2v-6.8c0-1-.7-1.8-1.7-2.1ZM16 35.3c0-2.3 1.8-4.2 4.1-4.2s4 1.9 4 4.2v5.3h-8v-5.3ZM21 46v1.8c0 .3-.2.6-.6.6h-.6c-.4 0-.6-.3-.6-.6V46c-.4-.2-.7-.7-.7-1.2 0-.8.7-1.4 1.6-1.4s1.6.6 1.6 1.4c0 .5-.3 1-.6 1.2Z" class="cls-1"/></g></svg>