<svg xmlns="http://www.w3.org/2000/svg" id="Layer_2" viewBox="0 0 100 80" width="40" height="32"><defs><style>.cls-1{fill:#fff}</style></defs><g id="Layer_1-2"><rect width="78" height="78" x="21" y="1" rx="4" ry="4" style="fill:#7a4501"/><path d="M95 2a3 3 0 0 1 3 3v70a3 3 0 0 1-3 3H25a3 3 0 0 1-3-3V5a3 3 0 0 1 3-3h70m0-2H25a5 5 0 0 0-5 5v70a5 5 0 0 0 5 5h70a5 5 0 0 0 5-5V5a5 5 0 0 0-5-5Z" class="cls-1"/><path d="M83.5 10H56.8c-3.4 0-2.8 4.2-2.8 6.5-9.5-1.2-6 4.8-6.6 11h.8c-4.2 17.2-25.5 37.3-6.7 41 4.4 0 7.9-3.4 7.9-7.8V27.5H54v35.1c0 1.5 1.2 2.8 2.8 2.8h-.5V70H84v-4.6h-.5c1.6 0 2.8-1.3 2.8-2.8V12.8c0-1.6-1.2-2.8-2.8-2.8ZM46 60.9a4.6 4.6 0 0 1-9.2 0c0-2.6 9.6-20.9 9.6-20.9L46 60.9Zm30.3-5.3H65.3V39h10.4v2.6H68c.1.1-.1 4.5.2 4.4H75v2.5h-6.9c.2.1-.2 4.7.2 4.5h7.8v2.6Zm3.7-25.9c.3 6-12.3 3-15.7 3.7-5.8.2-3.2-9.7-3.7-13-.3-6 12.3-3 15.7-3.6 5.7-.2 3.1 9.7 3.7 12.9Z" class="cls-1"/><circle cx="20" cy="40" r="19" style="fill:#da251d"/><path d="M20 22a18 18 0 1 1 0 36 18 18 0 0 1 0-36m0-2a20 20 0 1 0 0 40 20 20 0 0 0 0-40Z" class="cls-1"/><path d="M27.3 40.7v-5.5c0-3.9-3.3-7-7.3-7s-7.3 3.1-7.3 7v5.5c-1 .3-1.7 1.1-1.7 2.1v6.8c0 1.2 1 2.2 2.4 2.2h13.2c1.3 0 2.4-1 2.4-2.2v-6.8c0-1-.7-1.8-1.7-2.1ZM16 35.3c0-2.3 1.8-4.2 4.1-4.2s4 1.9 4 4.2v5.3h-8v-5.3ZM21 46v1.8c0 .3-.2.6-.6.6h-.6c-.4 0-.6-.3-.6-.6V46c-.4-.2-.7-.7-.7-1.2 0-.8.7-1.4 1.6-1.4s1.6.6 1.6 1.4c0 .5-.3 1-.6 1.2Z" class="cls-1"/></g></svg>