<svg xmlns="http://www.w3.org/2000/svg" id="Layer_2" viewBox="0 0 100 80" width="40" height="32"><defs><style>.cls-1{fill:#fff}.cls-2{fill:#7a4501}</style></defs><g id="Layer_1-2"><rect width="78" height="78" x="21" y="1" class="cls-2" rx="4" ry="4"/><path d="M95 2a3 3 0 0 1 3 3v70a3 3 0 0 1-3 3H25a3 3 0 0 1-3-3V5a3 3 0 0 1 3-3h70m0-2H25a5 5 0 0 0-5 5v70a5 5 0 0 0 5 5h70a5 5 0 0 0 5-5V5a5 5 0 0 0-5-5Z" class="cls-1"/><path d="M59.5 68.8s-7.6-4.2-11.9-6a7.2 7.2 0 0 1-4.1-4c-.5-.9-.8-1.5-1.9-2-3-1.2-11.7-5.8-12-6l-1.3-.6 9.4-9.4.7.3c1.8 1 3.2 1.5 4 1.9 1.7.7 2.3 2 2.9 3 .5 1 1 2.1 3 3 3.7 1.5 9.6 4.6 11.5 5.7l17.4-17.4h1.5C84 37.3 90 37 90 37l2.7-.2-32.4 32.4-.7-.3Z" class="cls-1"/><path d="m90 37.9-30 30s-7.7-4.2-12-6c-4.3-1.8-3-4.7-6-6-3-1.3-12-6-12-6l8-8 4 2c3 1.3 1.7 4.2 6 6 4.3 1.8 12 6 12 6l17.6-17.6h1.1C84 38.3 90 38 90 38m5.2-2.4-5.3.4c-.1 0-6 .4-11.2.4h-2l-.5.6-16.6 16.5c-2.4-1.3-7.5-4-10.8-5.4-1.7-.7-2.1-1.4-2.6-2.5a6.3 6.3 0 0 0-3.4-3.5l-4-1.8-1.3-.7-1 1-8 8-1.8 1.9 2.4 1.3c.3.2 9 4.7 12.1 6 .7.3.9.6 1.4 1.6.7 1.3 1.6 3.2 4.6 4.4 4.2 1.8 11.8 5.9 11.8 6l1.3.7 1.1-1.1 30-30 3.8-3.8Z" class="cls-2"/><path d="M59.5 55s-7.6-4.2-11.9-6a7.2 7.2 0 0 1-4.1-4c-.5-.9-.8-1.5-1.9-2-3-1.2-11.7-5.8-12-6l-1.3-.6 25.5-25.5.6.3c.4.2 9.4 4.1 12.2 6 1.3 1 1.8 2.1 2.2 3.1.7 1.4 1.1 2.3 3.4 2.8 1.3.3 3.5.4 6.5.4 5.3 0 11.2-.4 11.2-.4l2.7-.2-32.4 32.4-.7-.3Z" class="cls-1"/><path d="M54 12.1s9.3 4 12 6 1.4 5 6 6c1.5.3 4 .4 6.7.4 5.3 0 11.3-.4 11.3-.4l-30 30s-7.7-4.2-12-6-3-4.7-6-6-12-6-12-6l24-24m-.5-2.4-1 1-24 24-1.8 1.9 2.4 1.3c.3.2 9 4.8 12.1 6 .7.3 1 .6 1.4 1.6.7 1.4 1.6 3.2 4.6 4.4 4.2 1.8 11.8 5.9 11.8 6l1.4.7 1-1 30-30 3.8-3.9-5.3.4c-.1 0-6 .4-11.2.4-3.7 0-5.5-.2-6.3-.4-1.8-.3-2-1-2.7-2.2-.4-1-1-2.4-2.5-3.4-2.8-2-11.4-5.8-12.4-6.2l-1.3-.6Z" class="cls-2"/><path d="M60.7 64.3a19.9 19.9 0 0 1-4.6-.5c-7.7-1.5-12-6-12.8-13.6V50l.3-1.5h1.7l.5-.2H47l.5-.2 1-.1h.3l.4-.1h.4l2.7-.4.2.9c1.3 4.6 3.8 6.8 7.4 6.8 1.1 0 2.4-.2 3.7-.6 2.3-1.2 3.4-3 3.4-5.1a7.6 7.6 0 0 0-.2-1.7v-.1c-.2-1.8-1-4.1-6.8-4.1a25.5 25.5 0 0 0-3.1.2l-1.2.1v-8.8l1.1.1a16.9 16.9 0 0 0 2.3.1c6.5 0 7.2-2.7 7.2-4.8 0-1-.2-2.2-.6-3.6l-.3-.4a12.7 12.7 0 0 1-1.1-.9c-1.8-.6-3.5-1-4.9-1-3.9 0-6 2.5-6.8 7.4l-.2 1.1-1-.3h-.8l-.9-.2h-1.1l-.6-.2h-.4l-.6-.1h-.4l-.3-.1H46l-2.8-.4.1-1c1.3-9.6 6.8-14.7 16.2-15.2h.6c7.8 0 13 3.3 15.4 9.7a12 12 0 0 1 .2 7.6c-.4 2.8-1.6 5-3.6 6.3a11 11 0 0 1 4.6 9l-.2 2.2c-.5 4.3-2.2 7.8-5.2 10.4a17.4 17.4 0 0 1-10.6 3.5Z" class="cls-1"/><path d="M60 16.7c7.5 0 12.3 3 14.6 9a11.2 11.2 0 0 1 .1 7c-.4 3.2-2 5.3-4.6 6.3 3.7 2.3 5.6 5.4 5.6 9.2 0 .7 0 1.4-.2 2.1-.4 4-2 7.3-4.8 9.7a16.3 16.3 0 0 1-12.1 3.2c-.8 0-1.5-.2-2.3-.4-7.2-1.4-11.2-5.6-12-12.7l.2-.6h.9l.7-.2h1.1l.5-.2H49l.4-.2h.3l2-.2c1.4 5 4.1 7.6 8.3 7.6 1.2 0 2.5-.3 4-.7 2.7-1.5 4-3.5 4-6.1a9.5 9.5 0 0 0-.2-1.9c-.2-3.3-2.8-5-7.8-5a27 27 0 0 0-3.2.2v-6.6a28.3 28.3 0 0 0 2.4.2c5.5 0 8.2-2 8.2-5.8 0-1.2-.3-2.5-.8-4l-.4-.8a9.9 9.9 0 0 1-1.3-1c-2-.7-3.8-1-5.4-1-4.4 0-7 2.6-7.9 8.1a7 7 0 0 0-.9-.1l-.7-.1-.4-.1h-.9l-.6-.2H46.8l-.3-.2H46l-1.7-.2c1.2-9 6.3-13.9 15.2-14.3h.5m0-2h-.6c-9.8.5-15.8 6-17.1 16l-.3 2 2 .3 1.8.2H46.2l.3.1h.5l.4.1h.5l.4.1h1l.3.2H50.5l.7.2 2 .5.4-2.2c.9-5.7 3.6-6.5 5.8-6.5 1.3 0 2.8.3 4.4.8l.3.3.6.4v.2c.5 1.2.7 2.3.7 3.2 0 1.2 0 3.8-6.2 3.8h-1l-1.3-.1-2.1-.2v11l2.2-.3a23.6 23.6 0 0 1 3-.2c5.6 0 5.7 2.2 5.8 3.2V48l.2.7v.7c0 1.1-.3 2.8-2.7 4.2-1.3.4-2.4.6-3.3.6-2 0-5-.7-6.5-6.2l-.4-1.6-1.7.2-1.8.2h-.5l-.3.1h-.4l-.9.2h-.8c-.4 0-.7 0-1 .2h-2.9l-.3 1.7-.1.6v.6c.8 8 5.5 13 13.5 14.5a31 31 0 0 0 4.8.6c4.1 0 7.9-1.3 11.2-3.7l.1-.1c3.2-2.8 5-6.5 5.5-11l.2-2.3c0-3.6-1.4-6.6-4-9a9.5 9.5 0 0 0 3-6.1 13.3 13.3 0 0 0-.2-8.1V25c-2.7-6.8-8.2-10.3-16.4-10.3Z" class="cls-2"/><circle cx="20" cy="40" r="19" style="fill:#da251d"/><path d="M20 22a18 18 0 1 1 0 36 18 18 0 0 1 0-36m0-2a20 20 0 1 0 0 40 20 20 0 0 0 0-40Z" class="cls-1"/><path d="M27.3 40.7v-5.5c0-3.9-3.3-7-7.3-7s-7.3 3.1-7.3 7v5.5c-1 .3-1.7 1.1-1.7 2.1v6.8c0 1.2 1 2.2 2.4 2.2h13.2c1.3 0 2.4-1 2.4-2.2v-6.8c0-1-.7-1.8-1.7-2.1ZM16 35.3c0-2.3 1.8-4.2 4.1-4.2s4 1.9 4 4.2v5.3h-8v-5.3ZM21 46v1.8c0 .3-.2.6-.6.6h-.6c-.4 0-.6-.3-.6-.6V46c-.4-.2-.7-.7-.7-1.2 0-.8.7-1.4 1.6-1.4s1.6.6 1.6 1.4c0 .5-.3 1-.6 1.2Z" class="cls-1"/></g></svg>