<svg xmlns="http://www.w3.org/2000/svg" id="Layer_2" viewBox="0 0 100 80" width="40" height="32"><defs><style>.cls-1{fill:#fff}</style></defs><g id="Layer_1-2"><rect width="78" height="78" x="21" y="1" rx="4" ry="4" style="fill:#7a4501"/><path d="M95 2a3 3 0 0 1 3 3v70a3 3 0 0 1-3 3H25a3 3 0 0 1-3-3V5a3 3 0 0 1 3-3h70m0-2H25a5 5 0 0 0-5 5v70a5 5 0 0 0 5 5h70a5 5 0 0 0 5-5V5a5 5 0 0 0-5-5Z" class="cls-1"/><path d="M74.7 38.6 60 53.3s-6.4-3.6-10-5c-3.6-1.5-2.5-4-5-5l-3.4-1.6-6.6 6.5s7.5 4 10 5 1.4 3.6 5 5c3.6 1.5 10 5 10 5l25-25s-5.7.4-10.3.4Z" class="cls-1"/><path d="M60 51.8s-6.4-3.6-10-5-2.5-4-5-5-10-5-10-5l20-20s7.8 3.3 10 5 1.2 4.2 5 5 15 0 15 0l-25 25Z" class="cls-1"/><path d="M35 16.8h3l.2.3v.4l.1.1v.2l.2.3v.2l.7 2.2.2.8.2.6v.4l.2.2V22.8l.1.1v.2l.3.6v.3l.2.8.1.2v.3h.1l.2.6.1.6.1.4.3.6v.5l.2.1.1.7V29l.2.2.2.7.1.5.1-.2.2-.7V29.3h.1l.2-.7.2-.5V27.8l.1-.3.1-.2v-.1l.2-.7.1-.4.1-.2v-.1l.1-.2.2-.7.2-.5V24l.2-.7.1-.2V22.9l.2-.2c0-.3 0-.5.2-.7v-.4l.1-.2.1-.3V21l.3-1h.1l.2-.7v-.4l.5-1.1.1-.5v-.4h3.2v.3l-.2.4-.2.7v.4l-.2.3-.1.3-.2.8-.1.4-.2.7-.1.3-.1.4v.1l-.1.1-.1.4-.1.3v.1l-.2.4v.2l-.3.9-.1.3c0 .4-.2.7-.3 1v.4l-.1.2-.3.8v.2l-.3.8-.1.6-.1.2v.1l-.1.3-.3.8v.3l-.1.2v.3l-.2.1c0 .3 0 .6-.2.8l-.5 1.8-.1.4v.2l-.3.6h-3.8l-.1-.6a1 1 0 0 1-.1-.4l-.1-.2-.2-.6-.1-.4-.1-.3V32l-.1-.3-.1-.3-.1-.3-.2-.8-.2-.3v-.5c-.2-.3-.3-.7-.3-1l-.3-.8v-.2l-.3-.5v-.2l-.2-.8V26l-.2-.4v-.4l-.4-.8v-.4l-.1-.3v-.1l-.2-.4v-.3l-.1-.3-.1-.2-.2-.6-.2-.4V21l-.1-.3-.1-.2V20l-.1-.2-.1-.3-.3-.7V18.6l-.1-.5-.2-.5-.2-.8Z" style="stroke:#7a4501;stroke-miterlimit:10;fill:#fff"/><circle cx="20" cy="40" r="19" style="fill:#da251d"/><path d="M20 22a18 18 0 1 1 0 36 18 18 0 0 1 0-36m0-2a20 20 0 1 0 0 40 20 20 0 0 0 0-40Z" class="cls-1"/><path d="M27.3 40.7v-5.5c0-3.9-3.3-7-7.3-7s-7.3 3.1-7.3 7v5.5c-1 .3-1.7 1.1-1.7 2.1v6.8c0 1.2 1 2.2 2.4 2.2h13.2c1.3 0 2.4-1 2.4-2.2v-6.8c0-1-.7-1.8-1.7-2.1ZM16 35.3c0-2.3 1.8-4.2 4.1-4.2s4 1.9 4 4.2v5.3h-8v-5.3ZM21 46v1.8c0 .3-.2.6-.6.6h-.6c-.4 0-.6-.3-.6-.6V46c-.4-.2-.7-.7-.7-1.2 0-.8.7-1.4 1.6-1.4s1.6.6 1.6 1.4c0 .5-.3 1-.6 1.2Z" class="cls-1"/></g></svg>