<svg xmlns="http://www.w3.org/2000/svg" id="Layer_2" viewBox="0 0 100 80" width="40" height="32">
    <defs>
        <style>
            .cls-1{fill:#fff}
        </style>
    </defs>
    <g id="Layer_1-2">
        <rect width="78" height="78" x="21" y="1" fill="#7a4501" rx="4" ry="4"/>
        <path d="M95 2a3 3 0 0 1 3 3v70a3 3 0 0 1-3 3H25a3 3 0 0 1-3-3V5a3 3 0 0 1 3-3h70m0-2H25a5 5 0 0 0-5 5v70a5 5 0 0 0 5 5h70a5 5 0 0 0 5-5V5a5 5 0 0 0-5-5Z"
              class="cls-1"/>
        <path transform="translate(21 0)" d="M13.5 58.5h53v.5h-53z" class="cls-1"/>
        <path transform="translate(21 0)" d="M66.8 57.5H13.2c-.4 0-.7.3-.7.8V60h55v-1.8c0-.4-.3-.7-.7-.7Zm-53.3 6h53v.5h-53z" class="cls-1"/>
        <path transform="translate(21 0)" d="M67.5 62.5h-55v1.8c0 .4.3.7.7.7h53.6c.4 0 .7-.3.7-.8v-1.7ZM57.5 30v3.8H43.7V30H41v-9s1.4-1 2.5-1 2.5 1 2.5 1 1.4 1 2.5 1 2.5-1 2.5-1v-5s-1.4 1-2.5 1-2.5-1-2.5-1-1.4-1-2.5-1-2.5 1-2.5 1h-2v14h-2.8v3.8H22.6V30H15v26.3h18.8v-15h12.5v15H65V30h-7.5Z" class="cls-1"/>
        <circle cx="20" cy="40" r="19" style="fill:#146eb4"/>
        <path d="M20 22a18 18 0 1 1 0 36 18 18 0 0 1 0-36m0-2a20 20 0 1 0 0 40 20 20 0 0 0 0-40Z" class="cls-1"/>
        <path d="M15 32.3a4 4 0 0 1 3.4 2h3.2a4 4 0 0 1 6.3-1l-.2-.1-.2-.4-.3-.4a4 4 0 0 0-.3-.5l-.2-.4-.3-.4a3 3 0 0 0-5.2-.1h-2.3a3 3 0 0 0-5.3.1l-.2.4-.3.4a3 3 0 0 0-.3.5l-.2.4-.3.4-.1.2a4 4 0 0 1 2.7-1.1ZM33.3 41.9l-.3-.4c0-.2-.2-.3-.3-.5l-.2-.4-.3-.4-.3-.4-.2-.4-.3-.4-.2-.4-.3-.4a4 4 0 0 0-.3-.4l-.2-.5a4 4 0 0 0-.3-.4l-.2-.4-.3-.4a4.7 4.7 0 0 0-7 .6h-5.1a4.7 4.7 0 0 0-7-.6 4 4 0 0 0-.3.4l-.3.4-.2.4-.3.5-.3.4-.2.4-.3.4-.2.4-.3.4-.3.4-.2.4-.3.4a4 4 0 0 0-.2.4l-.3.5-.2.2v.2l-.2.2-.1.3v.1l-.3.5v.4l-.1.2v.5l-.1.5c0 3 2.5 5.5 5.5 5.5h.8l.2-.1a4.2 4.2 0 0 0 .9-.3c.2 0 .3 0 .5-.2l.4-.2c.8-.5 1.4-1 1.9-1.9l.1-.2.1-.2.1-.2.1-.3.1-.2v-.2h1a2.5 2.5 0 0 0 5 0h1a5.5 5.5 0 1 0 9.8-4.6Zm-22 7.6a4.5 4.5 0 1 1 0-9 4.5 4.5 0 0 1 0 9Zm8.7-1.3c-1 0-1.8-.7-1.8-1.7s.8-1.8 1.8-1.8 1.8.8 1.8 1.8-.8 1.8-1.8 1.8Zm8.8 1.3a4.5 4.5 0 1 1 0-9 4.5 4.5 0 0 1 0 9Z"
              class="cls-1"/>
    </g>
</svg>