<svg xmlns="http://www.w3.org/2000/svg" id="Layer_2" viewBox="0 0 80 80" width="32" height="32"><defs><style>.cls-1{fill:#fff}</style></defs><g id="Layer_1-2"><rect width="78" height="78" x="1" y="1" rx="4" ry="4" style="fill:#7a4501"/><path d="M75 2a3 3 0 0 1 3 3v70a3 3 0 0 1-3 3H5a3 3 0 0 1-3-3V5a3 3 0 0 1 3-3h70m0-2H5a5 5 0 0 0-5 5v70a5 5 0 0 0 5 5h70a5 5 0 0 0 5-5V5a5 5 0 0 0-5-5Z" class="cls-1"/><rect width="60" height="10" x="10" y="58.8" class="cls-1" rx="3" ry="3"/><path d="M67.5 56.3a3 3 0 0 0-3-3h-49a3 3 0 0 0-3 3v1.5h55v-1.5ZM15 52.3h19.5v-9.5c0-2.5 2-4.5 4.5-4.5h2c2.5 0 4.5 2 4.5 4.5v9.5H65v-21H15v21ZM62 26.8H41v-9.6s1.4-1 2.5-1 2.5 1 2.5 1 1.4 1 2.5 1 2.5-1 2.5-1v-5s-1.4 1-2.5 1-2.5-1-2.5-1-1.4-1-2.5-1-2.5 1-2.5 1h-2v14.6H18a3 3 0 0 0-3 3v.4h50v-.4a3 3 0 0 0-3-3Z" class="cls-1"/></g></svg>