<?xml version="1.0" encoding="UTF-8"?>
<!-- Created with Inkscape (http://www.inkscape.org/) -->
<svg width="32" height="32" version="1.1" viewBox="0 0 48 48" xml:space="preserve" xmlns="http://www.w3.org/2000/svg"><rect x=".66485" y=".57137" width="46.811" height="46.811" rx="2.4005" ry="2.4005" fill="#7a4501" stroke-width=".60014"/><g transform="matrix(.90753 0 0 .88273 1.0822 6.9098)" fill="#fff"><path class="cls-1" transform="translate(1.2312 -1.5028)" d="m45.822 40.896c0-1.3537-1.0473-2.451-2.3393-2.451h-38.208c-1.292 0-2.3393 1.0974-2.3393 2.451v1.2255h42.887zm-40.937-3.268h4.8941v-7.7616c0-2.0425 1.5595-3.6765 3.5089-3.6765h1.5595c1.9494 0 3.5089 1.634 3.5089 3.6765v7.7616h25.517v-17.157h-38.988zm36.649-20.834c-31.364 0.03211-1.7997 0-34.309 0-1.292 0-2.3393 1.0974-2.3393 2.451v0.3268h38.988v-0.3268c0-1.3537-1.0473-2.451-2.3393-2.451z" stroke-width=".79817"/><g><circle cx="27.302" cy="14.445" r="2.627"/><rect transform="rotate(-49.579)" x="1.3164" y="22.505" width="10.236" height="6.2629"/><rect transform="rotate(-48.509)" x="12.283" y="22.893" width="4.0195" height="2.1032"/><rect transform="rotate(-49.535)" x="11.848" y="25.701" width="12.993" height="2.2434"/></g></g><g transform="translate(-.18695 3.5521)"><path class="cls-1" d="m45.195-2.3599a1.7899 1.7949 0 0 1 1.7899 1.7949v41.88a1.7899 1.7949 0 0 1-1.7899 1.7949h-41.765a1.7899 1.7949 0 0 1-1.7899-1.7949v-41.88a1.7899 1.7949 0 0 1 1.7899-1.7949h41.765m0-1.1966h-41.765a2.9832 2.9915 0 0 0-2.9832 2.9915v41.88a2.9832 2.9915 0 0 0 2.9832 2.9915h41.765a2.9832 2.9915 0 0 0 2.9832-2.9915v-41.88a2.9832 2.9915 0 0 0-2.9832-2.9915z" fill="#fff" stroke-width=".59747"/></g></svg>
