<svg xmlns="http://www.w3.org/2000/svg" id="Layer_2" viewBox="0 0 100 80" width="40" height="32"><defs><style>.cls-1{fill:#fff}</style></defs><g id="Layer_1-2"><rect width="78" height="78" x="20.9" y="1" rx="4" ry="4" style="fill:#da251d"/><path d="M95 2a3 3 0 0 1 3 3v70a3 3 0 0 1-3 3H25a3 3 0 0 1-3-3V5a3 3 0 0 1 3-3h70m0-2H25a5 5 0 0 0-5 5v70a5 5 0 0 0 5 5h70a5 5 0 0 0 5-5V5a5 5 0 0 0-5-5Z" class="cls-1"/><rect width="60" height="10" x="29.9" y="58.8" class="cls-1" rx="3" ry="3"/><path d="M87.5 56.3a3 3 0 0 0-3-3h-49a3 3 0 0 0-3 3v1.5h55v-1.5ZM35 52.3h19.5v-9.5c0-2.5 2-4.5 4.5-4.5h2c2.4 0 4.5 2 4.5 4.5v9.5H85v-21H35v21ZM82 26.8H61v-9.6s1.4-1 2.5-1 2.5 1 2.5 1 1.4 1 2.5 1 2.5-1 2.5-1v-5s-1.5 1-2.5 1-2.5-1-2.5-1-1.5-1-2.5-1-2.5 1-2.5 1h-2v14.6H38a3 3 0 0 0-3 3v.4h50v-.4a3 3 0 0 0-3-3Z" class="cls-1"/><circle cx="20" cy="40.3" r="19" style="fill:#146eb4"/><path d="M20 22.3a18 18 0 1 1 0 36 18 18 0 0 1 0-36m0-2a20 20 0 1 0 0 40 20 20 0 0 0 0-40Z" class="cls-1"/><path d="M28 44.6h5V46c0 .1 0 0 0 0l-.2.2v.1l-.1.1-.2.2v.1h-.1l-.1.2-.2.2-.1.2-.3.4-.1.1-.1.1-.1.1-.1.1v.1h-.1l-.2.3v.1l-.3.3-.3.4v.1h-.1v.1h-.1v.1l-.2.2-.3.4h3.5v1.3h-5.5v-1.3l.1-.1.2-.2v-.1l.2-.2.1-.2.1-.1.3-.3.3-.4v-.2h.2v-.2l.2-.1V48l.1-.1.1-.2.1-.1h.1v-.2l.3-.2.1-.2.1-.1v-.1l.2-.2v-.1l.2-.2.1-.1.1-.2h.1-3v-1.4ZM20 38.2h6.6v1.9h-.1l-.2.3-.1.1c-.1.1 0 0 0 .1l-.3.2-.1.2-.2.3-.2.3-.2.2-.4.5-.1.2-.2.2h-.1l-.1.2v.2H24l-.2.4-.1.1-.3.4-.4.5-.2.1v.2l-.2.2v.2h-.2l-.3.5h4.6v1.8h-7.3v-1.8l.1-.2.2-.2.2-.2.2-.2.1-.2.1-.2h.1l.3-.4.4-.6.1-.1.2-.2.1-.1.1-.2.1-.2.1-.1.1-.2.1-.1h.1v-.1h.1V42c.2 0 .3-.2.3-.3l.2-.2v-.2h.2v-.1l.2-.3.1-.1.2-.3.1-.2.2-.1V40H20v-1.8ZM7.4 29h10v2.6l-.1.2-.1.2-.3.3-.1.2-.1.2-.3.3-.2.3H16l-.2.3h-.1c0 .2-.2.4-.3.5l-.3.3-.6.9-.1.2-.2.2-.2.2-.2.2v.2l-.2.1-.3.5-.1.1-.1.1-.4.5v.1l-.6.7-.2.2-.1.2h-.1v.2h-.2l-.1.4-.1.1-.6.7h7v2.7h-11v-2.7L7 40l.2-.3.2-.4.3-.3.2-.3.1-.1v-.1h.2v-.2l.4-.5h.1l.5-.8.2-.3.2-.2.2-.2.2-.2.2-.3.1-.2.2-.2.1-.2.1-.1V35l.2-.1v-.1l.4-.6.3-.3.2-.2.1-.2.4-.4V33l.1-.1.3-.4.1-.1v-.1l.3-.3.2-.2h-6V29Z" class="cls-1"/></g></svg>