<svg xmlns="http://www.w3.org/2000/svg" viewBox="0 0 54 67" width="32" height="32"><path d="M1 66V4h5.8c1.2-.5 7.1-3 11.5-3a36 36 0 0 1 11.6 3c0 .1 6.6 3 10.9 3s10.7-2.9 10.8-3l1.4-.5v32.1l-.6.3c-.3.1-7 3.1-11.7 3.1s-11.3-3-11.6-3c0-.1-6.6-3-10.9-3-3.5 0-8.5 2-10.2 2.7V66H1Z" style="fill:#fff"/><path d="M18.3 2c4.5 0 11.2 3 11.2 3s6.7 3 11.3 3S52 5 52 5v30s-6.7 3-11.3 3-11.2-3-11.2-3-6.7-3-11.3-3S7 35 7 35v30H2V5h5s6.7-3 11.3-3m0-2C13.8 0 8.2 2.3 6.6 3H0v64h9V36.3c2-.8 6.3-2.3 9.3-2.3 4 0 10.3 2.8 10.4 2.8.3.2 7.1 3.2 12 3.2s11.8-3 12.1-3.2l1.2-.5V1.9l-2.8 1.3S44.8 6 40.7 6 30.4 3.2 30.4 3.2C30 3 23.2 0 18.3 0Z"/></svg>