<svg xmlns="http://www.w3.org/2000/svg" id="Layer_2" viewBox="0 0 80 80" width="32" height="32">
  <defs>
    <style>
      .cls-1{fill:#fff}
    </style>
  </defs>
  <g id="Layer_1-2">
    <rect width="78" height="78" x="1" y="1" rx="4" ry="4" style="fill:#7a4501"/>
    <path d="M75 2a3 3 0 0 1 3 3v70a3 3 0 0 1-3 3H5a3 3 0 0 1-3-3V5a3 3 0 0 1 3-3h70m0-2H5a5 5 0 0 0-5 5v70a5 5 0 0 0 5 5h70a5 5 0 0 0 5-5V5a5 5 0 0 0-5-5Z" class="cls-1"/>
    <path d="M26.7 55.6c-5.9 0-10.7 4.8-10.7 10.8v6.1h56.5l-.5-2.7c-.6-3-3-5.4-6-6l-10.3-2.1v-3l2.5-2.5a3 3 0 0 0 .1-4.3l-14-15.4a3 3 0 0 0-4.3-.2l-1.5 1.4L11.2 8.2c-.8-1-2.2-1-3 0H8c-.7.8-.8 2-.2 2.8l25.6 35.5L32 48a3.2 3.2 0 0 0 0 4.6l2.4 2.3v.7h-7.7Z" class="cls-1"/>
  </g>
</svg>
