<svg xmlns="http://www.w3.org/2000/svg" id="Layer_2" viewBox="0 0 80 80" width="32" height="32"><defs><style>.cls-1{fill:#fff}.cls-2{fill:#323232}</style></defs><g id="Layer_1-2"><rect width="78" height="78" x="1" y="1" class="cls-2" rx="4" ry="4"/><path d="M75 2a3 3 0 0 1 3 3v70a3 3 0 0 1-3 3H5a3 3 0 0 1-3-3V5a3 3 0 0 1 3-3h70m0-2H5a5 5 0 0 0-5 5v70a5 5 0 0 0 5 5h70a5 5 0 0 0 5-5V5a5 5 0 0 0-5-5Z" class="cls-1"/><path d="M64 54.7H16c-1.6 0-.8-3.1-1-4 0-.6.5-1 1-1h48c1.6 0 .8 3.1 1 4 0 .5-.5 1-1 1Z" class="cls-1"/><path d="M55 59c-1.3 0-2.5-.4-3.4-1.3a4.1 4.1 0 0 1-1.1-3c0-1.3.4-2.3 1.1-3 .9-1 2-1.4 3.4-1.4s2.5.5 3.4 1.3c.7.8 1.1 1.8 1.1 3 0 1.3-.4 2.4-1.1 3.1-.9.9-2 1.3-3.4 1.3Z" class="cls-1"/><path d="M55 50.8c1.2 0 2.3.4 3 1.2.7.6 1 1.6 1 2.7 0 1-.3 2-1 2.7-.7.7-1.8 1.1-3 1.1s-2.3-.4-3-1.1c-.7-.7-1-1.6-1-2.7s.3-2 1-2.7c.7-.8 1.8-1.2 3-1.2m0-1c-2.5 0-5 1.6-5 4.9 0 3.2 2.5 4.8 5 4.8s5-1.6 5-4.8c0-3.3-2.5-4.9-5-4.9Z" class="cls-2"/><path d="M25 59c-1.3 0-2.5-.4-3.4-1.3a4.1 4.1 0 0 1-1.1-3c0-1.3.4-2.3 1.1-3 .8-1 2-1.4 3.4-1.4s2.5.5 3.4 1.3c.7.8 1.1 1.8 1.1 3 0 1.3-.4 2.4-1.1 3.1-.8.9-2 1.3-3.4 1.3Z" class="cls-1"/><path d="M25 50.8c1.2 0 2.3.4 3 1.2.7.6 1 1.6 1 2.7 0 1-.3 2-1 2.7-.7.7-1.8 1.1-3 1.1s-2.3-.4-3-1.1c-.7-.7-1-1.6-1-2.7s.3-2 1-2.7c.7-.8 1.8-1.2 3-1.2m0-1c-2.5 0-5 1.6-5 4.9 0 3.2 2.5 4.8 5 4.8s5-1.6 5-4.8c0-3.3-2.5-4.9-5-4.9Z" class="cls-2"/><path d="M55 47.7H25l-5-18h40l-5 18zM60 28.2H20v-2l3.1-2.5 4.4-1 4 2.1 2.3-3.1 4.4-.6 3.5 2.8 3-2.3 4.9-1.3 3.2 4.4 4-1.1 3.2 2.6v2z" class="cls-1"/></g></svg>