<svg xmlns="http://www.w3.org/2000/svg" id="Layer_2" viewBox="0 0 100.5 80" width="40.2" height="32"><defs><style>.cls-2{stroke:#fff}.cls-2,.cls-3{stroke-miterlimit:10}.cls-3,.cls-4{fill:#fff}.cls-2{fill:none;stroke-linecap:square;stroke-width:3px}.cls-3{stroke:#146eb4}</style></defs><g id="Layer_1-2"><rect width="78" height="78" x="21.5" y="1" rx="4" ry="4" style="fill:#365341"/><path d="M95.5 2a3 3 0 0 1 3 3v70a3 3 0 0 1-3 3h-70a3 3 0 0 1-3-3V5a3 3 0 0 1 3-3h70m0-2h-70a5 5 0 0 0-5 5v70a5 5 0 0 0 5 5h70a5 5 0 0 0 5-5V5a5 5 0 0 0-5-5Z" class="cls-4"/><path d="M54.9 72A32.6 32.6 0 0 1 51.2 9" class="cls-2"/><path d="m46.2 15.9 4.1-6.8-6.8-4 4.6-1.2L54.9 8l-4.1 6.8-4.6 1.1z" class="cls-4"/><path d="M66.1 8A32.6 32.6 0 0 1 69.8 71" class="cls-2"/><path d="m74.8 64.1-4 6.8 6.7 4-4.6 1.2-6.8-4.1 4.1-6.8 4.6-1.1zM84 43.7c-12.9 22-6.3 18.9-31 15.1-4.9-1.3-8-17.6-11-22.6-1-4.7 9.6-13 12.2-17.5 1-1.1 2-1.4 3.5-1 23.7 6.4 17.3 3 26.3 26Zm-22.5-16c-1.5-.1-2.2.3-2.7 1-1.4 3.2-5.5 6-5.1 9.5 2 3.4 2 9.1 5.7 11 3.3 0 8 3.2 10.6.5 6.4-8.6 5.3-8.8 1.3-18.2-1.5-3.1-7-2.6-9.8-3.9Z" class="cls-4"/><path d="M71 62.1c-8.2 1.3-15.9-1.2-24-2-3.5.6-8.4-18.5-9.9-20.4-1.6-4.3 13.3-18.5 16.9-21.8l.2.2-11.7 14.1c-1.2 1.5-1.5 2.8-.7 4.6C52.3 60.8 43.9 58.5 71 62.2Z" class="cls-4"/><path d="M63.6 49.6c5-5.5 2.7-7.8.3-13.8-1.1-2.8-4.7-2.1-7.3-3.2 3.5-7 6.7-4 12.8-2.5 2.9 2.3 3.3 7 4.9 10.3.3 3.4-3.2 6.1-4.6 9.1-1.5 2-4 .3-6.1.1Z" class="cls-4"/><circle cx="20.5" cy="40" r="20" style="stroke-miterlimit:10;stroke:#fff;fill:#146eb4"/><path d="M38.9 42.3v-4.6h-4.8c-.4-2-1.2-4-2.4-5.7l3.4-3.4-3.2-3.2-3.4 3.4c-1.7-1.2-3.6-2-5.7-2.4v-4.8h-4.6v4.8c-2 .4-4 1.2-5.7 2.4l-3.4-3.4L6 28.6 9.3 32c-1.2 1.7-2 3.6-2.4 5.7H2.1v4.6h4.8c.4 2 1.2 4 2.4 5.7l-3.4 3.4L9 54.6l3.4-3.4c1.7 1.2 3.6 2 5.7 2.4v4.8h4.6v-4.8c2-.4 4-1.2 5.7-2.4l3.4 3.4 3.2-3.2-3.4-3.4c1.2-1.7 2-3.6 2.4-5.7h4.8Zm-18.4 6.9a9.2 9.2 0 1 1 0-18.4 9.2 9.2 0 0 1 0 18.4Z" class="cls-3"/><path d="m27 40-9.8 7.4V32.6L27 40z" class="cls-3"/></g></svg>