<svg xmlns="http://www.w3.org/2000/svg" id="Layer_2" viewBox="0 0 100.5 80" width="40.2" height="32"><defs><style>.cls-2{stroke:#fff}.cls-2,.cls-3{stroke-miterlimit:10}.cls-3,.cls-4{fill:#fff}.cls-2{fill:none;stroke-linecap:square;stroke-width:3px}.cls-3{stroke:#146eb4}</style></defs><g id="Layer_1-2"><rect width="78" height="78" x="21.5" y="1" rx="4" ry="4" style="fill:#365341"/><path d="M95.5 2a3 3 0 0 1 3 3v70a3 3 0 0 1-3 3h-70a3 3 0 0 1-3-3V5a3 3 0 0 1 3-3h70m0-2h-70a5 5 0 0 0-5 5v70a5 5 0 0 0 5 5h70a5 5 0 0 0 5-5V5a5 5 0 0 0-5-5Z" class="cls-4"/><path d="M78.4 32h.9c-1.4 12.7-11.6 10.4-18.7 3.6-.6-2.3.7-6.5 2.3-8.2 1.5 1 3.2 3.5 5.3 3.1 2.9 1.7 7.3 3 10.2 1.5ZM73.4 49c-1.8 5.2-1.8 10-9 9L55 50.2l1.7-5.3h1.1a18 18 0 0 0 15.7 4Z" class="cls-4"/><path d="M63 39c4 1.7 8.2 3 12.9 2.5 0 2.4-1.5 4-2 6.3-5.5 2.6-13.2-.1-16.6-5.1.3-2.2 1.6-4 1.8-6l.4-.2 3.1 3.1.4-.6ZM45.5 29c2.3.3 4-.8 5.8-1.5 1 7.6 5.8 12.8 2.3 20.7-2.2-2.9-5.4-5-5.5-8.9-.7-3.6-1.9-6.6-2.6-10.3ZM66 28.5c-.5-.5-.8-1.2-1.3-1.4-1.6-.6-1.8-1.9-1.7-3.2.9-1.7 2.8-1.6 4.3-2.3l.2.6-3.4 1.2V26h.2l.2-1.8c4.5-3.1 12.8.2 14.8 5l-.5 1.1.4.3.4-1.1.4.3-.6-2.8c1.7 1.5 1.7 1.8 1 3.6-3.7 3.5-8.7-.5-13-1v-1H66Zm5-2L69.8 28c1.7 1.4 3.3 3.1 5.6 1.4-.5-.5.5-1.4-.6-1.8-1.2-.7-2.6-2.3-4-1ZM44 52l-1.3.9h-2.5v-3.7l3.6-4.7c1.7 0 5.5-.3 5.2 2.5-1 .5-.1 1.2-1.5 1-.4 0-1-.3-1 .5-.4 1.4-2 2.1-2.5 3.5Z" class="cls-4"/><path d="M47.5 48c1.4.1.6-.5 1.5-1h1.3l1 2-.3 1.4c0 .4.2 1-.5 1s-.4.5-.5.9c-.3 1.8-2.1 1-3 0l-2.3.4 3.7.7c.2 2.1-2.4 2.5-3.8 3.6l-2-2c1-.2 0-1.1.6-1.5.5-.4 1-.8.8-1.6a10 10 0 0 1 2-2.5c1.1.3 1-.7 1.5-1.4ZM52.9 21l1.6.8c-3 .5-6.3.7-6 4.6l1.5.2v.7l-2.1.7-.7-.4-.4 1-1-1.4 1.6-.3v-3c1.4-1.8 3.3-2.2 5.5-3ZM57.6 54.4 59 56c0 2.1-1.9 3-3.8 3.8l-.5-1-1.5.7-.3-.8a8.7 8.7 0 0 0 4.7-4.3ZM61 57.4l1.6.6c-.8 1.6-.8 3.4-2.6 4.5l-2.5-.7c.5-.7 1.3-1.8 2-2.5.5-.6.5-1.7 1.5-1.9ZM51 55.4l-2.4.6-.1-.4c1.5-1.2 3.7-2.4 3.5-4.7l1.7.5.7-.6V53l-1.4.4-2 2Z" class="cls-4"/><path d="M61 57.4c-1.3.6-1.4 2.2-2.5 3-.8-.2-1.2.5-1.7 1H55v-.8c2.6-.5 4-2.3 5.1-4.6.6.3 1 .7.9 1.4ZM54.5 54.4c1 0 .2-1 .6-1.4.7.4 1.2.5 2 .5L53.5 58H52v-1c1.2.4 2-1.8 2.5-2.5ZM69.3 58.6c-1.7.7-3.5 1.4-5.5 0 2-.3 3.8 0 5.5 0ZM63 39l-.4.6-3.1-3.1v-1.4L63 39z" class="cls-4"/><path d="M54.5 54.4c-.6.7-1.3 3-2.5 2.5v-1.5l1.5-1h1ZM42.5 55.3l-2-1.8h2v1.8zM57.5 25c-1.5.2-1.3-1.2-1.9-2 1.1.2 1.3 1.1 1.9 2ZM50.5 51.5c.8 0 .4-.7.5-1l.9-.5.1 1-1.3 1.6-.2-1.2ZM54 20c-.5-1-.9-1.9.7-2.5-.6 1-.8 1.4-.7 2.5ZM56.6 21.6h2.9c-1.4.6-2.2.4-3 0ZM79.4 26.9l-1.2-1.4c.8 0 1.2.6 1.2 1.4ZM73.4 26.5l1.5 1v1h-3c-.5-.5-.8-1.2-1-2h2.5Z" class="cls-4"/><path d="M54.9 72A32.6 32.6 0 0 1 51.2 9" class="cls-2"/><path d="m46.2 15.9 4.1-6.8-6.8-4 4.6-1.2L54.9 8l-4.1 6.8-4.6 1.1z" class="cls-4"/><path d="M66.1 8A32.6 32.6 0 0 1 69.8 71" class="cls-2"/><path d="m74.8 64.1-4 6.8 6.7 4-4.6 1.2-6.8-4.1 4.1-6.8 4.6-1.1z" class="cls-4"/><circle cx="20.5" cy="40" r="20" style="stroke-miterlimit:10;stroke:#fff;fill:#146eb4"/><path d="M38.9 42.3v-4.6h-4.8c-.4-2-1.2-4-2.4-5.7l3.4-3.4-3.2-3.2-3.4 3.4c-1.7-1.2-3.6-2-5.7-2.4v-4.8h-4.6v4.8c-2 .4-4 1.2-5.7 2.4l-3.4-3.4L6 28.6 9.3 32c-1.2 1.7-2 3.6-2.4 5.7H2.1v4.6h4.8c.4 2 1.2 4 2.4 5.7l-3.4 3.4L9 54.6l3.4-3.4c1.7 1.2 3.6 2 5.7 2.4v4.8h4.6v-4.8c2-.4 4-1.2 5.7-2.4l3.4 3.4 3.2-3.2-3.4-3.4c1.2-1.7 2-3.6 2.4-5.7h4.8Zm-18.4 6.9a9.2 9.2 0 1 1 0-18.4 9.2 9.2 0 0 1 0 18.4Z" class="cls-3"/><path d="m27 40-9.8 7.4V32.6L27 40z" class="cls-3"/></g></svg>