<svg xmlns="http://www.w3.org/2000/svg" id="Layer_2" viewBox="0 0 80 80" width="32" height="32"><defs><style>.cls-1{fill:#fff}.cls-2{fill:#066}</style></defs><g id="Layer_1-2"><rect width="78" height="78" x="1" y="1" class="cls-2" rx="4" ry="4"/><path d="M75 2a3 3 0 0 1 3 3v70a3 3 0 0 1-3 3H5a3 3 0 0 1-3-3V5a3 3 0 0 1 3-3h70m0-2H5a5 5 0 0 0-5 5v70a5 5 0 0 0 5 5h70a5 5 0 0 0 5-5V5a5 5 0 0 0-5-5Z" class="cls-1"/><path d="m33 22.2 1.3-1.5 25 25-1.4 1.4zM51 26.6l3-3-6.5-6.6a6.7 6.7 0 0 0-9.4 0l-2.9 2.8 25 25L63 42a6.7 6.7 0 0 0 0-9.5L56.4 26l-3 3a1.7 1.7 0 0 1-2.4-2.3ZM26.9 39l-5.5 5.4 24.1 4.3 1.8-1.9 3.8-3.7L27 38.8l-.1.2zM15.9 49.9l-.2 3.5L37 57.2l4-4.1 1.6-1.5-24.1-4.3-2.6 2.6zM15 64.4c0 .3.3.6.6.6l14.5-1 4-4-18.6-3.2-.5 7.6ZM38.3 27.6l-5.1 5.1-3.3 3.3 20.4 3.6-12-12zM50.1 40.8l-.3-.3-17.9-3.2-1.2 1.2 18.4 3.2 1-.9zM41.8 49.1l-18.4-3.3-1.2 1.2 18.4 3.2 1.2-1.1zM33.3 57.5l-15.4-2.7-.1 1.4 14.4 2.5 1.1-1.2z" class="cls-1"/><path d="m45 72.2 4.4-7.4 6-1.5-2.6 4.4A30.5 30.5 0 0 0 45.3 10l-2-.4.7-4 2 .4a34.4 34.4 0 0 1 7 66l5.3 3.1-6 1.5-7.3-4.4Z" class="cls-1"/><path d="m44.4 6.3 1.5.2a34 34 0 0 1 6 65.3L57 75l-4.6 1.2-6.8-4 4.1-6.9 4.6-1.1-2.8 4.7a31 31 0 0 0-6.1-59.3l-1.5-.3.5-3m-.8-1.1-.2 1-.5 3-.1.9 1 .2 1.4.2a30 30 0 0 1 8.9 56l1.1-1.8 1.2-2.1-2.3.6-4.6 1.1-.4.1-.2.4-4 6.8-.6.8.8.5L52 77l.4.2h.4l4.6-1.2 2.3-.6-2-1.3-3.5-2a35 35 0 0 0-8-66.5l-1.5-.3-1-.1Z" class="cls-2"/><path d="M34 74a34.4 34.4 0 0 1-7-66L21.7 5l6-1.5L35 7.8l-4.4 7.4-6 1.5 2.6-4.4A30.5 30.5 0 0 0 34.8 70l2 .4-.7 4-2-.4Z" class="cls-1"/><path d="m27.6 4 6.8 4-4.1 6.8-4.6 1.1 2.8-4.7a31 31 0 0 0 6.1 59.3l1.5.3-.5 3-1.5-.3a34 34 0 0 1-6-65.3L23 5l4.6-1.2m.1-1h-.4l-4.6 1.2-2.3.6 2 1.2L26 8a35 35 0 0 0 8 66.5l1.5.3 1 .2.1-1 .6-3 .1-1h-1l-1.4-.3a30 30 0 0 1-8.9-56l-1.1 1.8-1.2 2 2.3-.5 4.6-1.1.4-.1.2-.4 4-6.8.6-.8-.8-.5L28 3l-.4-.2Z" class="cls-2"/></g></svg>