<svg xmlns="http://www.w3.org/2000/svg" id="Layer_2" viewBox="0 0 100.5 80" width="40.2" height="32"><defs><style>.cls-2{stroke:#fff}.cls-2,.cls-3{stroke-miterlimit:10}.cls-3,.cls-4{fill:#fff}.cls-2{fill:none;stroke-linecap:square;stroke-width:3px}.cls-3{stroke:#146eb4}</style></defs><g id="Layer_1-2"><rect width="78" height="78" x="21.5" y="1" rx="4" ry="4" style="fill:#365341"/><path d="M95.5 2a3 3 0 0 1 3 3v70a3 3 0 0 1-3 3h-70a3 3 0 0 1-3-3V5a3 3 0 0 1 3-3h70m0-2h-70a5 5 0 0 0-5 5v70a5 5 0 0 0 5 5h70a5 5 0 0 0 5-5V5a5 5 0 0 0-5-5Z" class="cls-4"/><path d="M54.9 72A32.6 32.6 0 0 1 51.2 9" class="cls-2"/><path d="m46.2 15.9 4.1-6.8-6.8-4 4.6-1.2L54.9 8l-4.1 6.8-4.6 1.1z" class="cls-4"/><path d="M66.1 8A32.6 32.6 0 0 1 69.8 71" class="cls-2"/><path d="m74.8 64.1-4 6.8 6.7 4-4.6 1.2-6.8-4.1 4.1-6.8 4.6-1.1zM86.4 37.3c-1.8-2.7-3.9-2-6.3-1.3-13.7 4.3-11-1-17.8-11 1.1-5.7 12.1-5.3 16.5-7.5 3-.8 7.5 19.6 8 19.3l-.4.5Z" class="cls-4"/><path d="M68.3 48.1c1-2.3-.1-8.3 3.3-9.7 5-.3 12.3-5.1 15.3.6 2.4 5.8-10 10.1-13.9 12.6-2.2 1.2-5-.5-4.8-3.5ZM61.1 25.3c2.5 4.6 6.2 8.8 8 13.5-.9 2.4-.5 9.3-2.7 10-4.3-3-5.8-8.7-8.9-12.8-1.8-3.6 2.6-7.2 3.6-10.7ZM39.4 56.6c.7-1.4 1.4-2.5 1.6-3.7.7-4.2.7-4.5 4.7-3.8 3 .6 6 1.7 9 3 1.6.6.4 2.5-.2 3-7.4 6-7.6 11.3-15 1.5ZM49 42.7c-8.6 0-7.4-8.4-1.8-11.4 3.1-1 8.4 3 8.5 5.2 0 2.9-3.4 6.2-6.8 6.2Z" class="cls-4"/><path d="M41.1 48.5c-.8 6.2-1.7 9.6-6.3 2.8-.9-1-1.4-2-.6-3.3.6-1 1.5-3.2 1.8-3.1 1.6.9 4.7 1.5 5.1 3.5ZM45.5 30.6c-3 6-5.5 4.6-2 10.6-1.6 6.7-10.5-8.4 2-10.6ZM61.4 57c-2 2-2.4 7.5-5.8 4.7-2-1.2 0-5.1.8-6.3 1.6 0 4 0 5 1.5ZM37.3 44.2a40 40 0 0 1 18.1 7.3c-3-1-5.9-2.7-9-3-4 .4-6-2.8-9.1-4.3ZM55 56l-1.8 6q-2-4 1.8-6Z" class="cls-4"/><circle cx="20.5" cy="40" r="20" style="stroke-miterlimit:10;stroke:#fff;fill:#146eb4"/><path d="M38.9 42.3v-4.6h-4.8c-.4-2-1.2-4-2.4-5.7l3.4-3.4-3.2-3.2-3.4 3.4c-1.7-1.2-3.6-2-5.7-2.4v-4.8h-4.6v4.8c-2 .4-4 1.2-5.7 2.4l-3.4-3.4L6 28.6 9.3 32c-1.2 1.7-2 3.6-2.4 5.7H2.1v4.6h4.8c.4 2 1.2 4 2.4 5.7l-3.4 3.4L9 54.6l3.4-3.4c1.7 1.2 3.6 2 5.7 2.4v4.8h4.6v-4.8c2-.4 4-1.2 5.7-2.4l3.4 3.4 3.2-3.2-3.4-3.4c1.2-1.7 2-3.6 2.4-5.7h4.8Zm-18.4 6.9a9.2 9.2 0 1 1 0-18.4 9.2 9.2 0 0 1 0 18.4Z" class="cls-3"/><path d="m27 40-9.8 7.4V32.6L27 40z" class="cls-3"/></g></svg>