<svg xmlns="http://www.w3.org/2000/svg" id="Layer_2" viewBox="0 0 80 80" width="32" height="32"><defs><style>.cls-1{fill:#fff}</style></defs><g id="Layer_1-2"><rect width="78" height="78" x="1" y="1" rx="4" ry="4" style="fill:#cc3"/><path d="M75 2a3 3 0 0 1 3 3v70a3 3 0 0 1-3 3H5a3 3 0 0 1-3-3V5a3 3 0 0 1 3-3h70m0-2H5a5 5 0 0 0-5 5v70a5 5 0 0 0 5 5h70a5 5 0 0 0 5-5V5a5 5 0 0 0-5-5Z" class="cls-1"/><path d="M46.4 47.5c-.7-2.2-1.3-4-1.4-7.1-10.2-9-14.5-7.1-18.3-5.5-2.5 1-5 2-8.3-.4C17.3 40.3 15 44 15 49.2 22 54 30.4 60 38 60c2.3 0 6-1.7 10-3l.6-.2c-.6-4.5-1.4-7.1-2.2-9.3Z" class="cls-1"/><path d="M26.1 33.5c4-1.7 9-3.8 19.6 5.4 4.2-4.1 8.2-7.7 12.5-11-3.9-3.1-15-7.9-19.4-7.9-4.6 0-20 11.5-20 11.5l-.1 1.3c3 2.5 5 1.7 7.4.7ZM46.5 40.3c0 2.8.7 4.6 1.4 6.7.7 2.2 1.6 4.8 2.2 9.3 2.8-.8 5.8-1.5 8-3.2 5.3-4.2 6.9-7.7 6.9-10.8s-2.8-10-5.7-13.3c-4.4 3.4-8.5 7-12.8 11.3Z" class="cls-1"/></g></svg>