<svg xmlns="http://www.w3.org/2000/svg" id="Layer_2" viewBox="0 0 80 80" width="32" height="32"><defs><style>.cls-1{fill:#fff}.cls-2{fill:#cc3}</style></defs><g id="Layer_1-2"><rect width="78" height="78" x="1" y="1" class="cls-2" rx="4" ry="4"/><path d="M75 2a3 3 0 0 1 3 3v70a3 3 0 0 1-3 3H5a3 3 0 0 1-3-3V5a3 3 0 0 1 3-3h70m0-2H5a5 5 0 0 0-5 5v70a5 5 0 0 0 5 5h70a5 5 0 0 0 5-5V5a5 5 0 0 0-5-5Z" class="cls-1"/><path d="m45 72.2 4.4-7.4 6-1.5-2.6 4.4A30.5 30.5 0 0 0 45.3 10l-2-.4.7-4 2 .4a34.4 34.4 0 0 1 7 66l5.3 3.1-6 1.5-7.3-4.4Z" class="cls-1"/><path d="m44.4 6.3 1.5.2a34 34 0 0 1 6 65.3L57 75l-4.6 1.2-6.8-4 4.1-6.9 4.6-1.1-2.8 4.7a31 31 0 0 0-6.1-59.3l-1.5-.3.5-3m-.8-1.1-.2 1-.5 3-.1.9 1 .2 1.4.2a30 30 0 0 1 8.9 56l1.1-1.8 1.2-2.1-2.3.6-4.6 1.1-.4.1-.2.4-4 6.8-.6.8.8.5L52 77l.4.2h.4l4.6-1.2 2.3-.6-2-1.3-3.5-2a35 35 0 0 0-8-66.5l-1.5-.3-1-.1Z" class="cls-2"/><path d="M34 74a34.4 34.4 0 0 1-7-66L21.7 5l6-1.5L35 7.8l-4.4 7.4-6 1.5 2.6-4.4A30.5 30.5 0 0 0 34.8 70l2 .4-.7 4-2-.4Z" class="cls-1"/><path d="m27.6 4 6.8 4-4.1 6.8-4.6 1.1 2.8-4.7a31 31 0 0 0 6.1 59.3l1.5.3-.5 3-1.5-.3a34 34 0 0 1-6-65.3L23 5l4.6-1.2m.1-1h-.4l-4.6 1.2-2.3.6 2 1.2L26 8a35 35 0 0 0 8 66.5l1.5.3 1 .2.1-1 .6-3 .1-1h-1l-1.4-.3a30 30 0 0 1-8.9-56l-1.1 1.8-1.2 2 2.3-.5 4.6-1.1.4-.1.2-.4 4-6.8.6-.8-.8-.5L28 3l-.4-.2Z" class="cls-2"/><path d="M46.4 47.5c-.7-2.2-1.3-4-1.4-7.1-10.2-9-14.5-7.1-18.3-5.5-2.5 1-5 2-8.3-.4C17.3 40.3 15 44 15 49.2 22 54 30.4 60 38 60c2.3 0 6-1.7 10-3l.6-.2c-.6-4.5-1.4-7.1-2.2-9.3Z" class="cls-1"/><path d="M26.1 33.5c4-1.7 9-3.8 19.6 5.4 4.2-4.1 8.2-7.7 12.5-11-3.9-3.1-15-7.9-19.4-7.9-4.6 0-20 11.5-20 11.5l-.1 1.3c3 2.5 5 1.7 7.4.7ZM46.5 40.3c0 2.8.7 4.6 1.4 6.7.7 2.2 1.6 4.8 2.2 9.3 2.8-.8 5.8-1.5 8-3.2 5.3-4.2 6.9-7.7 6.9-10.8s-2.8-10-5.7-13.3c-4.4 3.4-8.5 7-12.8 11.3Z" class="cls-1"/></g></svg>